<?xml version="1.0" encoding="utf-8"?>
<!-- Generator: Adobe Illustrator 25.2.0, SVG Export Plug-In . SVG Version: 6.00 Build 0)  -->
<svg version="1.1" id="Layer_1" xmlns="http://www.w3.org/2000/svg" xmlns:xlink="http://www.w3.org/1999/xlink" x="0px" y="0px"
	 viewBox="0 0 1080 1080" style="enable-background:new 0 0 1080 1080;" xml:space="preserve">
<style type="text/css">
	.st0{opacity:0.2;fill:#D9DCD6;enable-background:new    ;}
	
		.st1{fill:none;stroke:#D9DCD6;stroke-width:3.984;stroke-linecap:round;stroke-linejoin:round;stroke-miterlimit:9.9599;stroke-dasharray:14.9398,14.9398;}
	.st2{fill:#002C3D;}
	.st3{fill:#00546F;}
	.st4{fill:#D9DCD6;}
	.st5{fill:#FFFFFF;}
	
		.st6{fill:none;stroke:#00364F;stroke-width:7.6455;stroke-linecap:round;stroke-linejoin:round;stroke-miterlimit:9.9597;stroke-dasharray:0,21.662;}
	.st7{fill:#00CCB2;}
	.st8{fill:#E64A19;}
	.st9{font-family:'SourceSansPro-Bold';}
	.st10{font-size:56.3619px;}
	.st11{fill:#FF9E00;}
	.st12{font-size:86.3982px;}
	.st13{clip-path:url(#SVGID_2_);}
	.st14{fill:#FFD550;}
	.st15{fill:#F2C39C;}
	.st16{fill:#030229;}
	.st17{fill:#ECECEC;}
	.st18{fill:#E1E1E1;}
	.st19{fill:#F0F0F0;}
	.st20{fill:#F0F0F0;stroke:#E1E1E1;stroke-width:1.7256;stroke-linecap:round;stroke-linejoin:round;stroke-miterlimit:10;}
	.st21{fill:#F5F5F5;}
	.st22{fill:#E7E7E7;}
	.st23{fill:#FAFAFA;}
	.st24{fill:#1A2E35;}
	.st25{opacity:0.5;}
	.st26{opacity:0.6;fill:#FFFFFF;}
	.st27{fill:#007CFF;}
	.st28{opacity:0.2;}
	.st29{opacity:0.1;fill:#FFFFFF;}
	.st30{opacity:0.6;}
	.st31{fill:#CE5B51;}
	.st32{opacity:0.6;fill:#FFFFFF;enable-background:new    ;}
	.st33{fill:#CD5B51;}
	.st34{opacity:0.4;fill:#FFFFFF;enable-background:new    ;}
	.st35{fill:#BA221F;}
	.st36{opacity:0.4;fill:#FFFFFF;}
	.st37{opacity:0.3;enable-background:new    ;}
	.st38{opacity:0.6;enable-background:new    ;}
	.st39{opacity:0.2;enable-background:new    ;}
	.st40{opacity:0.7;fill:#FFFFFF;enable-background:new    ;}
	.st41{opacity:0.8;fill:#FFFFFF;enable-background:new    ;}
	.st42{opacity:0.2;fill:#FFFFFF;}
	.st43{fill:#FAB373;}
	.st44{opacity:0.1;enable-background:new    ;}
	.st45{fill:#FCB373;}
	.st46{fill:none;stroke:#1A2E35;stroke-width:2.1435;stroke-miterlimit:10;}
	.st47{fill:#EC873E;}
	.st48{fill:none;stroke:#1A2E35;stroke-width:0.5359;stroke-linecap:round;stroke-linejoin:round;stroke-miterlimit:10;}
	.st49{opacity:0.7;fill:#FFFFFF;}
	.st50{opacity:0.5;fill:#FFFFFF;enable-background:new    ;}
	.st51{opacity:0.8;}
	.st52{fill:#CCD3E6;}
	.st53{fill:#575759;}
	.st54{fill:#363638;}
	.st55{fill:#FD615B;}
	.st56{fill:#0592F5;}
	.st57{fill:#CEDCEC;}
	.st58{clip-path:url(#SVGID_4_);}
	.st59{fill:#FF9B79;}
	.st60{fill:#F56C63;}
	.st61{fill:#FFB028;}
	.st62{fill:#DC7F21;}
	.st63{fill:#0076FA;}
	.st64{fill:#004ECB;}
	.st65{fill:#00B570;}
	.st66{fill:#007D55;}
	.st67{fill:#CE101D;}
</style>
<g>
	<circle class="st0" cx="530.8" cy="444.2" r="291.8"/>
	<circle class="st1" cx="530.8" cy="444.2" r="372.2"/>
	<g>
		<g>
			<g>
				<rect x="427.5" y="486.2" class="st2" width="206.4" height="58.2"/>
				<path class="st3" d="M634,488H427.5c0,0-10.2-47.9,0-58.2c36.6-36.6,169.9-36.6,206.4,0C644.2,440.2,634,488,634,488z"/>
			</g>
			<g>
				<path class="st3" d="M671.5,423.3c-89.7-38.8-191.5-38.8-281.4,0c-6.6-15.4-13.3-30.7-19.9-46.1c102.5-44.4,218.8-44.4,321.3,0
					C684.7,392.6,678.1,408,671.5,423.3z"/>
				<g>
					<g>
						<path class="st3" d="M384.7,374.1L384.7,374.1c21.9,0,39.7,17.8,39.7,39.7v39.7h-79.4v-39.7
							C345,391.9,362.8,374.1,384.7,374.1z"/>
						<rect x="345" y="453.5" class="st4" width="79.4" height="17.4"/>
					</g>
					<g>
						<path class="st3" d="M676.8,374.1L676.8,374.1c21.9,0,39.7,17.8,39.7,39.7v39.7h-79.4v-39.7
							C637.2,391.9,654.8,374.1,676.8,374.1z"/>
						<rect x="637.2" y="453.5" class="st4" width="79.4" height="17.4"/>
					</g>
				</g>
			</g>
			<g>
				<circle class="st5" cx="530.8" cy="452.8" r="63"/>
				
					<ellipse transform="matrix(0.6225 -0.7826 0.7826 0.6225 -154.0981 586.1718)" class="st6" cx="530.6" cy="452.8" rx="45.3" ry="45.3"/>
				<circle class="st7" cx="530.8" cy="452.8" r="19.1"/>
			</g>
		</g>
	</g>
	<g>
		<g>
			<circle class="st5" cx="708.4" cy="621.6" r="68.3"/>
			<g>
				<g>
					<g>
						<g>
							<g>
								<g>
									<path class="st8" d="M709.7,670.1c-26.1,0-47.2-21.1-47.2-47.2c0-26.1,21.1-47.2,47.2-47.2c26.1,0,47.2,21.1,47.2,47.2
										C756.9,649,735.7,670.1,709.7,670.1z M709.7,580.4c-23.5,0-42.5,19.1-42.5,42.5c0,23.5,19.1,42.5,42.5,42.5
										s42.5-19.1,42.5-42.5C752.3,599.6,733.1,580.4,709.7,580.4z"/>
									<path class="st8" d="M709.7,576.4c25.7,0,46.5,20.9,46.5,46.5s-20.9,46.5-46.5,46.5c-25.7,0-46.5-20.9-46.5-46.5
										S684.1,576.4,709.7,576.4 M709.7,666.3c23.8,0,43.2-19.4,43.2-43.2s-19.4-43.2-43.2-43.2s-43.2,19.4-43.2,43.2
										C666.4,646.9,685.8,666.3,709.7,666.3 M709.7,575.1c-26.5,0-47.9,21.4-47.9,47.9c0,26.5,21.4,47.9,47.9,47.9
										c26.5,0,47.9-21.4,47.9-47.9C757.6,596.6,736.1,575.1,709.7,575.1L709.7,575.1z M709.7,665c-23.1,0-41.9-18.7-41.9-41.9
										s18.7-41.9,41.9-41.9c23.1,0,41.9,18.7,41.9,41.9C751.6,646.1,732.9,665,709.7,665L709.7,665z"/>
								</g>
							</g>
						</g>
						<g>
							<g>
								<g>
									<rect x="707.3" y="577.5" class="st8" width="4.7" height="91.1"/>
									<path class="st8" d="M711.3,578.2v89.7H708v-89.7H711.3 M712.7,576.8h-1.3H708h-1.3v1.3v89.7v1.3h1.3h3.3h1.3v-1.3v-89.7
										V576.8L712.7,576.8z"/>
								</g>
							</g>
						</g>
						<g>
							<g>
								<g>
									<g>
										<path class="st8" d="M709.1,665.2l0.4-0.1c13.8-7.6,22.7-24.1,22.7-42c0-17.8-8.9-34.3-22.7-42l-0.4-0.1v-5.2l0.9,0.5
											c16.2,8.1,26.7,26.5,26.7,46.8c0,20.3-10.5,38.8-26.7,46.8l-0.9,0.5V665.2z"/>
										<path class="st8" d="M709.7,576.7c15.6,7.7,26.3,25.5,26.3,46.3c0,20.7-10.9,38.5-26.3,46.3v-3.7
											c13.7-7.6,23.1-23.8,23.1-42.5s-9.4-35-23.1-42.5V576.7 M708.4,574.6v2.1v3.7v0.8l0.7,0.4c13.6,7.6,22.5,23.8,22.5,41.3
											c0,17.7-8.8,33.9-22.5,41.3l-0.7,0.4v0.8v3.7v2.1l1.9-0.9c16.5-8.2,27.1-26.9,27.1-47.5c0-20.6-10.6-39.2-27.1-47.5
											L708.4,574.6L708.4,574.6z"/>
									</g>
								</g>
							</g>
							<g>
								<g>
									<g>
										<path class="st8" d="M709.3,669.9c-16.2-8.1-26.7-26.5-26.7-46.8c0-20.3,10.5-38.8,26.7-46.8l0.9-0.5v5.2l-0.4,0.1
											c-13.8,7.6-22.7,24.1-22.7,42c0,17.8,8.9,34.3,22.7,42l0.4,0.1v5.2L709.3,669.9z"/>
										<path class="st8" d="M709.7,576.7v3.7c-13.7,7.6-23.1,23.8-23.1,42.5s9.4,35,23.1,42.5v3.7c-15.6-7.7-26.3-25.5-26.3-46.3
											C683.3,602.4,694.2,584.4,709.7,576.7 M711.1,574.6l-1.9,0.9c-16.5,8.2-27.1,26.9-27.1,47.5s10.6,39.2,27.1,47.5l1.9,0.9
											v-2.1v-3.7v-0.8l-0.7-0.4c-13.6-7.6-22.5-23.8-22.5-41.3c0-17.7,8.8-33.9,22.5-41.3l0.7-0.4v-0.8v-3.7V574.6L711.1,574.6z
											"/>
									</g>
								</g>
							</g>
						</g>
					</g>
					<g>
						<g>
							<g>
								<path class="st8" d="M663.3,625.3v-0.7c0-1.1,0-2.3,0.1-3.3v-0.5h91.6v0.7c0.1,1.1,0.1,2.3,0.1,3.3v0.7h-91.8V625.3z"/>
								<path class="st8" d="M754.7,621.4c0.1,1.1,0.1,2.3,0.1,3.3h-90.7c0-1.1,0-2.1,0.1-3.3H754.7 M755.9,620h-1.2h-90.4h-1.2
									l-0.1,1.2c-0.1,1.2-0.1,2.3-0.1,3.5v1.3h1.3h90.7h1.3v-1.3c0-1.1,0-2.3-0.1-3.3L755.9,620L755.9,620z"/>
							</g>
						</g>
					</g>
					<g>
						<g>
							<g>
								<g>
									<path class="st8" d="M667.3,603.3l0.5-0.9c0.5-1.1,1.2-2.3,2.1-3.3l0.1-0.3H748l0.1,0.3c0.7,1.1,1.3,2.1,2,3.3l0.5,0.9
										H667.3z"/>
									<path class="st8" d="M747.6,599.3c0.7,1.1,1.3,2.1,2,3.3h-81.2c0.5-1.1,1.2-2.1,2-3.3H747.6 M748.3,598h-0.7h-77.2h-0.7
										l-0.4,0.5c-0.8,1.2-1.6,2.4-2.1,3.5l-0.9,2h2.1h81.2h2.3l-1.1-2c-0.7-1.2-1.3-2.4-2-3.5L748.3,598L748.3,598z"/>
								</g>
							</g>
						</g>
						<g>
							<g>
								<g>
									<path class="st8" d="M671.3,647.3l-0.1-0.4c-0.5-1.1-1.1-2.1-1.6-3.3l-0.4-0.9h81.9l-0.5,1.1c-0.7,1.1-1.3,2.1-2,3.3
										l-0.1,0.3H671.3z"/>
									<path class="st8" d="M749.7,643.4c-0.7,1.2-1.3,2.3-2,3.3h-76c-0.5-1.1-1.1-2.1-1.6-3.3H749.7 M752.1,642.1h-2.3h-79.6
										h-2.1l0.9,1.9c0.5,1.1,1.1,2.3,1.6,3.3l0.4,0.7h0.8h76h0.7l0.4-0.7c0.8-1.1,1.5-2.3,2-3.3L752.1,642.1L752.1,642.1z"/>
								</g>
							</g>
						</g>
					</g>
				</g>
			</g>
		</g>
	</g>
	<g>
		<path class="st5" d="M272.2,255.4h98.8c9.2,0,16.6,7.4,16.6,16.6v45.3c0,9.2-7.4,16.6-16.6,16.6h-73.8l-12.5,25l-12.5-25l0,0
			c-10.5,0-19.1-8.5-19.1-19.1v-40.1C253,263.9,261.7,255.4,272.2,255.4z"/>
		<text transform="matrix(-1 0 0 1 363.7412 307.126)" class="st3 st9 st10">.....</text>
	</g>
	<g>
		
			<ellipse transform="matrix(0.7071 -0.7071 0.7071 0.7071 16.7656 599.1872)" class="st8" cx="731.7" cy="279.4" rx="66.5" ry="66.5"/>
		<g>
			<text transform="matrix(1 0 0 1 691.9541 300.8408)" class="st11 st9 st12">@</text>
		</g>
	</g>
	<g>
		<path class="st11" d="M448,202.4v92h84.3h84.3v-92l-79.4-76.6c-2.7-1.9-6-1.9-8.6,0L448,202.4z"/>
		<g>
			<rect x="454.7" y="185.4" class="st4" width="155.4" height="58.5"/>
			<g>
				<g>
					<defs>
						<rect id="SVGID_1_" x="465.4" y="186" width="134" height="57.2"/>
					</defs>
					<clipPath id="SVGID_2_">
						<use xlink:href="#SVGID_1_"  style="overflow:visible;"/>
					</clipPath>
					<g class="st13">
						<g>
							<rect x="452.3" y="195.6" class="st3" width="69.4" height="8"/>
							<rect x="548.9" y="195.6" class="st3" width="48.1" height="8"/>
							<rect x="528.2" y="195.6" class="st3" width="13.8" height="8"/>
							<rect x="600.5" y="195.6" class="st3" width="12" height="8"/>
						</g>
						<g>
							<rect x="543" y="225.6" class="st3" width="69.4" height="8"/>
							<rect x="467.6" y="225.6" class="st3" width="48.1" height="8"/>
							<rect x="522.7" y="225.6" class="st3" width="13.8" height="8"/>
							<rect x="452.3" y="225.6" class="st3" width="8" height="8"/>
						</g>
						<g>
							<rect x="543" y="210.6" class="st3" width="69.4" height="8"/>
							<rect x="472.6" y="210.6" class="st3" width="48.1" height="8"/>
							<rect x="530.3" y="210.6" class="st3" width="13.8" height="8"/>
							<rect x="452.3" y="210.6" class="st3" width="8" height="8"/>
							<rect x="568" y="208" class="st4" width="3.5" height="13.4"/>
						</g>
					</g>
				</g>
			</g>
		</g>
		<polygon class="st14" points="616.7,294.4 532.4,248.4 448,294.4 448,202.4 532.4,248.4 616.7,202.4 		"/>
	</g>
	<g>
		<path class="st11" d="M855.1,449.9c0,25.4-45.9,82.1-45.9,82.1s-45.9-56.9-45.9-82.1c0-25.3,20.5-45.9,45.9-45.9
			C834.5,404,855.1,424.6,855.1,449.9z"/>
		<circle class="st5" cx="809.3" cy="449.9" r="32.6"/>
	</g>
	<g>
		<g>
			<g>
				<path class="st11" d="M434.2,628.4c0-33.4-33.6-60.5-75.2-60.5c-41.5,0-75.2,27.1-75.2,60.5c0,33.4,33.6,60.5,75.2,60.5
					c0.3,0,0.5,0,0.8,0l34.2,30.4l-7.7-34.4C414.4,676.1,434.2,654.1,434.2,628.4z"/>
			</g>
			<g>
				<text transform="matrix(1 0 0 1 304.8662 646.9023)" class="st8 st9 st10">24/7</text>
			</g>
		</g>
	</g>
	<g>
		<circle class="st2" cx="264.6" cy="475.9" r="60.5"/>
		<path class="st4" d="M286.2,489.5c-6.2-4.9-12.6-6.6-17.3-7.4v-4.3c5.7-3.3,10.4-12.4,12.1-20.1l0,0c2.4,0,4.3-1.5,4.3-3.2
			c0-1.6-1.5-2.8-3.6-3.1c-0.1-9.4-7.8-17-17.3-17c-9.4,0-17.1,7.6-17.3,17c-2,0.3-3.6,1.6-3.6,3.1c0,1.7,1.9,3.2,4.3,3.2l0,0
			c1.7,7.6,6.2,16.7,12.1,20.1v4.3c-4.7,0.8-11,2.5-17.3,7.4c-8.2,6.5-7.4,15.3-8.9,18.9c11.7,0,18.9,0,30.6,0s18.9,0,30.6,0
			C293.7,504.8,294.5,496,286.2,489.5z"/>
	</g>
</g>
<path class="st15" d="M510.9,694.9c-6.4-7.4-21-19.8-25.3-41.9c-4.1-21.7,0.7-42.1,3.9-50.9v-58.2c0-5.3,4.9-9.6,11-9.6
	c6.1,0,11,4.3,11,9.6v55.7c0,0.7,0.7,1.3,1.5,1.3s1.5-0.5,1.5-1.3v-2.7c0-3.5,3.2-6.2,7.3-6.2c4.1,0,7.3,2.8,7.3,6.2v2.8
	c0,0.7,0.7,1.2,1.3,1.2c0.8,0,1.3-0.5,1.3-1.2V597c0-3.6,3.3-6.4,7.4-6.4s7.4,2.9,7.4,6.4v2.7c0,0.7,0.7,1.2,1.3,1.2
	c0.8,0,1.3-0.5,1.3-1.2v-3.3c0-3.3,3.2-6,7-6c9,0,19,36.7,14.5,62.7c-3.2,18.3-8.1,33.5-14,41.9v229.3h-46.3V694.9H510.9z"/>
<rect x="501.8" y="718" class="st16" width="65.7" height="269.3"/>
</svg>
