<svg width="45" height="48" viewBox="0 0 45 48" fill="none" xmlns="http://www.w3.org/2000/svg">
<path d="M15 16C14.5027 16 14.0258 16.2107 13.6742 16.5858C13.3225 16.9609 13.125 17.4696 13.125 18C13.125 18.5304 12.9275 19.0391 12.5758 19.4142C12.2242 19.7893 11.7473 20 11.25 20C10.7527 20 10.2758 19.7893 9.92418 19.4142C9.57255 19.0391 9.375 18.5304 9.375 18C9.375 16.4087 9.96763 14.8826 11.0225 13.7574C12.0774 12.6321 13.5082 12 15 12C16.4918 12 17.9226 12.6321 18.9775 13.7574C20.0324 14.8826 20.625 16.4087 20.625 18C20.625 18.5304 20.4275 19.0391 20.0758 19.4142C19.7242 19.7893 19.2473 20 18.75 20C18.2527 20 17.7758 19.7893 17.4242 19.4142C17.0725 19.0391 16.875 18.5304 16.875 18C16.875 17.4696 16.6775 16.9609 16.3258 16.5858C15.9742 16.2107 15.4973 16 15 16ZM30 16C29.5027 16 29.0258 16.2107 28.6742 16.5858C28.3225 16.9609 28.125 17.4696 28.125 18C28.125 18.5304 27.9275 19.0391 27.5758 19.4142C27.2242 19.7893 26.7473 20 26.25 20C25.7527 20 25.2758 19.7893 24.9242 19.4142C24.5725 19.0391 24.375 18.5304 24.375 18C24.375 16.4087 24.9676 14.8826 26.0225 13.7574C27.0774 12.6321 28.5082 12 30 12C31.4918 12 32.9226 12.6321 33.9775 13.7574C35.0324 14.8826 35.625 16.4087 35.625 18C35.625 18.5304 35.4275 19.0391 35.0758 19.4142C34.7242 19.7893 34.2473 20 33.75 20C33.2527 20 32.7758 19.7893 32.4242 19.4142C32.0725 19.0391 31.875 18.5304 31.875 18C31.875 17.4696 31.6775 16.9609 31.3258 16.5858C30.9742 16.2107 30.4973 16 30 16ZM9.50625 24C9.23787 24 8.97262 24.0615 8.72843 24.1803C8.48425 24.2991 8.26682 24.4725 8.09085 24.6886C7.91487 24.9048 7.78445 25.1587 7.70839 25.4332C7.63234 25.7078 7.61243 25.9965 7.65 26.28C8.15949 30.0939 9.94194 33.5837 12.6699 36.1083C15.398 38.6329 18.8883 40.0229 22.5 40.0229C26.1117 40.0229 29.602 38.6329 32.3301 36.1083C35.0581 33.5837 36.8405 30.0939 37.35 26.28C37.3876 25.9962 37.3676 25.7071 37.2913 25.4323C37.2151 25.1575 37.0843 24.9033 36.9079 24.6871C36.7315 24.4709 36.5136 24.2976 36.269 24.1791C36.0244 24.0606 35.7587 23.9995 35.49 24H9.50625ZM22.5 36C20.1728 36.0001 17.9028 35.2309 16.0023 33.7983C14.1018 32.3657 12.6643 30.34 11.8875 28H33.1125C32.3357 30.34 30.8982 32.3657 28.9977 33.7983C27.0972 35.2309 24.8272 36.0001 22.5 36ZM45 24C45 20.8483 44.418 17.7274 43.2873 14.8156C42.1566 11.9038 40.4992 9.25804 38.4099 7.02944C36.3206 4.80083 33.8402 3.033 31.1104 1.82689C28.3806 0.620779 25.4547 0 22.5 0C19.5453 0 16.6194 0.620779 13.8896 1.82689C11.1598 3.033 8.67942 4.80083 6.5901 7.02944C4.50078 9.25804 2.84344 11.9038 1.71271 14.8156C0.581979 17.7274 -4.40291e-08 20.8483 0 24C8.89208e-08 30.3652 2.37053 36.4697 6.5901 40.9706C10.8097 45.4714 16.5326 48 22.5 48C28.4674 48 34.1903 45.4714 38.4099 40.9706C42.6295 36.4697 45 30.3652 45 24ZM3.75 24C3.75 18.6957 5.72544 13.6086 9.24175 9.85786C12.7581 6.10714 17.5272 4 22.5 4C27.4728 4 32.2419 6.10714 35.7583 9.85786C39.2746 13.6086 41.25 18.6957 41.25 24C41.25 29.3043 39.2746 34.3914 35.7583 38.1421C32.2419 41.8929 27.4728 44 22.5 44C17.5272 44 12.7581 41.8929 9.24175 38.1421C5.72544 34.3914 3.75 29.3043 3.75 24Z" fill="#FFD233"/>
</svg>
