<svg width="277" height="155" viewBox="0 0 277 155" fill="none" xmlns="http://www.w3.org/2000/svg">
<g clip-path="url(#clip0_203_126)">
<path d="M258.237 145.976C258.162 148.768 257.693 151.535 256.843 154.197C256.825 154.258 256.804 154.319 256.783 154.381H251.582C251.588 154.326 251.593 154.264 251.599 154.197C251.946 150.223 249.965 126.325 247.574 122.189C247.783 122.525 258.64 133.35 258.237 145.976Z" fill="#F1F1F1"/>
<path d="M257.847 154.197C257.803 154.258 257.758 154.32 257.712 154.381H253.81C253.84 154.328 253.874 154.267 253.914 154.197C254.558 153.037 256.466 149.57 258.237 145.976C260.139 142.114 261.886 138.105 261.739 136.654C261.784 136.981 263.101 146.957 257.847 154.197Z" fill="#F1F1F1"/>
<path d="M14.3936 148.139C14.4493 150.212 14.7978 152.267 15.4288 154.244C15.4427 154.29 15.4583 154.335 15.4734 154.381H19.3361C19.332 154.34 19.3279 154.294 19.3238 154.244C19.0663 151.293 20.5376 133.544 22.3131 130.472C22.1575 130.722 14.0941 138.761 14.3936 148.139Z" fill="#F1F1F1"/>
<path d="M14.6834 154.244C14.7157 154.29 14.7493 154.336 14.7837 154.381H17.6816C17.6597 154.342 17.6342 154.296 17.6047 154.244C17.126 153.383 15.7091 150.808 14.3939 148.139C12.981 145.27 11.6837 142.293 11.7929 141.215C11.7591 141.458 10.781 148.867 14.6834 154.244Z" fill="#F1F1F1"/>
<path d="M203.107 108.724C173.932 96.4006 147.538 96.869 122.677 104.391C84.3715 97.7226 58.1414 98.7544 41.3162 108.724V77.7708H203.107V108.724Z" fill="#CBCBCB"/>
<path d="M203.107 100.212C176.229 88.073 149.384 87.2893 122.134 100.212C94.2232 92.202 67.2418 92.2857 41.1609 100.212V6.11332C68.8901 -2.13609 95.8634 -1.93785 122.134 6.11332C149.884 -1.91005 176.899 -2.16451 203.107 6.11332V100.212Z" fill="#E5E5E5"/>
<path d="M48.4447 17.7909L47.5406 15.4843C47.8949 15.3464 56.3622 12.0835 68.7887 10.4192C80.2774 8.88011 97.3942 8.51269 113.697 15.5001L112.715 17.775C96.9579 11.0215 80.3473 11.3771 69.1872 12.8643C57.0399 14.4835 48.5292 17.758 48.4447 17.7909Z" fill="white"/>
<path d="M48.4447 26.4579L47.5406 24.1513C47.8949 24.0133 56.3622 20.7505 68.7887 19.0862C80.2774 17.5472 97.3942 17.1798 113.697 24.167L112.715 26.442C96.9579 19.6885 80.3473 20.0438 69.1872 21.5313C57.0399 23.1505 48.5292 26.4249 48.4447 26.4579Z" fill="white"/>
<path d="M48.4447 35.1249L47.5406 32.8183C47.8949 32.6803 56.3622 29.4175 68.7887 27.7532C80.2774 26.2141 97.3942 25.8467 113.697 32.834L112.715 35.109C96.9579 28.3555 80.3473 28.7108 69.1872 30.1983C57.0399 31.8175 48.5292 35.0919 48.4447 35.1249Z" fill="white"/>
<path d="M48.4447 43.7919L47.5406 41.4853C47.8949 41.3473 56.3622 38.0845 68.7887 36.4201C80.2774 34.8814 97.3942 34.5135 113.697 41.501L112.715 43.776C96.9579 37.0224 80.3473 37.3779 69.1872 38.8653C57.0399 40.4845 48.5292 43.7589 48.4447 43.7919Z" fill="white"/>
<path d="M48.4447 52.4589L47.5406 50.1523C47.8949 50.0144 56.3622 46.7515 68.7887 45.0872C80.2774 43.5481 97.3942 43.1807 113.697 50.1681L112.715 52.443C96.9579 45.6893 80.3473 46.045 69.1872 47.5323C57.0399 49.1515 48.5292 52.426 48.4447 52.4589Z" fill="white"/>
<path d="M48.4447 61.1259L47.5406 58.8193C47.8949 58.6813 56.3622 55.4185 68.7887 53.7542C80.2774 52.2154 97.3942 51.8477 113.697 58.835L112.715 61.11C96.9579 54.3563 80.3473 54.7121 69.1872 56.1993C57.0399 57.8185 48.5292 61.0929 48.4447 61.1259Z" fill="white"/>
<path d="M129.495 79.3885L128.591 77.082C128.945 76.944 137.413 73.6811 149.839 72.0168C161.328 70.478 178.445 70.1103 194.747 77.0977L193.766 79.3726C178.008 72.6189 161.398 72.9747 150.238 74.4619C138.09 76.0811 129.58 79.3556 129.495 79.3885Z" fill="white"/>
<path d="M128.733 62.7549V15.4177L129.605 15.1462C151.697 8.26736 173.683 8.26873 194.95 15.1503L195.809 15.4281V62.6918L194.128 62.0595C171.996 53.7334 150.572 53.7285 130.451 62.0448L128.733 62.7549ZM161.514 53.3294C171.913 53.3294 182.516 55.2615 193.325 59.1255V17.2318C173.104 10.8756 152.217 10.8791 131.217 17.2419V59.0681C140.866 55.2789 151.143 53.3322 161.514 53.3294Z" fill="white"/>
<path d="M193.376 78.162L193.702 70.2839L204.864 48.1616C205.179 47.5327 205.692 47.0241 206.325 46.714C206.712 46.5213 207.135 46.4076 207.567 46.3795C207.999 46.3514 208.432 46.4094 208.842 46.5502C209.316 46.7132 209.746 46.9831 210.098 47.339C210.45 47.6948 210.715 48.127 210.872 48.6017C210.94 48.8067 210.987 49.0177 211.014 49.2317C211.093 49.867 210.98 50.5114 210.69 51.0824L199.512 73.2346L193.376 78.162Z" fill="white"/>
<path d="M207.715 46.528L195.598 70.5417L194.674 70.0786L206.394 46.8529C206.804 46.648 207.256 46.537 207.715 46.528Z" fill="#3F3D56"/>
<path d="M210.86 49.2513L199.205 72.3498L198.281 71.8867L210.373 47.9227C210.522 48.1488 210.64 48.3934 210.725 48.6502C210.789 48.8458 210.834 49.0471 210.86 49.2513Z" fill="#3F3D56"/>
<path d="M209.699 47.1902L197.448 71.4694L196.525 71.0063L208.791 46.6966C208.922 46.7412 209.049 46.7947 209.173 46.8567C209.359 46.9503 209.535 47.062 209.699 47.1902Z" fill="#3F3D56"/>
<path d="M194.778 76.8383L193.545 77.8279L193.648 75.2188C194.071 75.3651 194.53 76.0002 194.778 76.8383Z" fill="#3F3D56"/>
<path d="M73.1859 105.274L71.7101 100.812L73.2823 86.1399C73.3256 85.7233 73.5048 85.3323 73.7925 85.0271C73.9681 84.8387 74.1797 84.687 74.4148 84.581C74.6499 84.475 74.9039 84.4168 75.1618 84.4097C75.4606 84.4015 75.7572 84.4622 76.0285 84.5871C76.2999 84.7119 76.5386 84.8976 76.7261 85.1295C76.8068 85.2298 76.8776 85.3376 76.9375 85.4514C77.1154 85.7891 77.1881 86.1721 77.1463 86.5512L75.5719 101.243L73.1859 105.274Z" fill="white"/>
<path d="M74.5287 84.6328L72.8221 100.56L72.2094 100.494L73.86 85.0903C74.046 84.8901 74.2745 84.7338 74.5287 84.6328Z" fill="#3F3D56"/>
<path d="M76.8557 85.4945L75.214 100.814L74.6013 100.749L76.3044 84.8552C76.435 84.9502 76.5526 85.0619 76.654 85.1874C76.731 85.283 76.7985 85.3859 76.8557 85.4945Z" fill="#3F3D56"/>
<path d="M75.7749 84.5874L74.0494 100.69L73.4366 100.625L75.1643 84.502C75.2466 84.4995 75.329 84.5027 75.4108 84.5115C75.5344 84.5248 75.6563 84.5502 75.7749 84.5874Z" fill="#3F3D56"/>
<path d="M73.6891 104.243L73.2097 105.053L72.7184 103.576C72.9853 103.569 73.3745 103.827 73.6891 104.243Z" fill="#3F3D56"/>
<path d="M233.04 100.042C232.872 100.335 232.648 100.592 232.38 100.799C232.112 101.005 231.806 101.157 231.479 101.246C230.819 101.425 230.115 101.336 229.521 100.997C228.927 100.659 228.493 100.099 228.313 99.4414C228.133 98.7835 228.223 98.0814 228.562 97.4895C228.568 97.4795 228.574 97.4695 228.58 97.4596C228.652 97.3391 228.733 97.2242 228.823 97.116L226.653 81.7025L226.588 81.2407L226.147 78.0955L226.083 77.6422L226.323 77.6534L230.526 77.8449L231.653 77.8956L231.794 80.7648L232.594 96.8964C233.012 97.2947 233.283 97.8215 233.364 98.3919C233.445 98.9624 233.331 99.5435 233.04 100.042Z" fill="#FFB8B8"/>
<path d="M226.601 81.3804L231.938 80.8924C232.215 80.8662 232.47 80.7321 232.648 80.5192C232.826 80.3062 232.913 80.0318 232.888 79.7557L231.9 68.6919C231.804 67.6263 231.288 66.6422 230.465 65.9559C229.641 65.2697 228.578 64.9376 227.509 65.0327C226.44 65.1279 225.453 65.6424 224.764 66.4632C224.076 67.284 223.743 68.3437 223.838 69.4093C223.845 69.4855 223.854 69.5615 223.865 69.6372L225.466 80.4892C225.502 80.7378 225.627 80.965 225.818 81.1294C226.009 81.2938 226.252 81.3845 226.505 81.3849C226.537 81.3854 226.569 81.3839 226.601 81.3804Z" fill="#CBCBCB"/>
<path d="M230.646 72.4423C231.186 70.918 231.211 69.2596 230.718 67.7199C230.224 66.1802 229.239 64.8436 227.912 63.9139C225.899 62.5412 223.145 62.0484 220.179 65.5681C216.59 69.865 214.03 74.9205 212.693 80.3509L224.84 82.322C224.84 82.322 228.971 77.2888 230.646 72.4423Z" fill="#CBCBCB"/>
<path d="M211 151.736H207.537L205.889 138.421H211.001L211 151.736Z" fill="#FFB8B8"/>
<path d="M200.858 154.941H211.743V150.749H205.064C203.949 150.749 202.879 151.191 202.09 151.977C201.302 152.763 200.858 153.83 200.858 154.941Z" fill="#2F2E41"/>
<path d="M239.473 148.725L236.185 149.809L230.428 137.682L235.281 136.083L239.473 148.725Z" fill="#FFB8B8"/>
<path d="M230.853 154.941L241.187 151.536L239.868 147.556L233.526 149.646C232.467 149.995 231.59 150.749 231.089 151.742C230.588 152.735 230.503 153.886 230.853 154.941Z" fill="#2F2E41"/>
<path d="M223.021 60.4226C226.853 60.4226 229.959 57.3263 229.959 53.5068C229.959 49.6873 226.853 46.5909 223.021 46.5909C219.189 46.5909 216.083 49.6873 216.083 53.5068C216.083 57.3263 219.189 60.4226 223.021 60.4226Z" fill="#FFB8B8"/>
<path d="M216.946 148.03L220.162 126.871C220.197 126.645 220.309 126.438 220.479 126.285C220.649 126.133 220.868 126.044 221.097 126.034C221.326 126.024 221.551 126.093 221.734 126.231C221.917 126.368 222.047 126.564 222.101 126.786L226.999 146.95C227.076 147.259 227.266 147.528 227.532 147.705C227.798 147.881 228.12 147.952 228.436 147.904L241.946 145.739C242.125 145.711 242.296 145.644 242.447 145.544C242.598 145.444 242.726 145.313 242.823 145.16C242.919 145.006 242.981 144.834 243.005 144.655C243.029 144.476 243.014 144.293 242.961 144.12L225.345 86.228C225.295 86.0635 225.289 85.8887 225.327 85.7212L225.914 83.187C225.978 82.9123 225.949 82.624 225.829 82.3681C225.71 82.1122 225.509 81.9035 225.256 81.7752C222.858 80.5551 216.782 78.0186 212.197 80.797C212.048 80.8875 211.919 81.0072 211.818 81.1489C211.717 81.2906 211.646 81.4512 211.609 81.6211L197.848 146.094C197.81 146.269 197.811 146.45 197.849 146.626C197.887 146.801 197.961 146.966 198.068 147.11C198.175 147.254 198.311 147.374 198.468 147.462C198.625 147.55 198.799 147.604 198.978 147.62L215.576 149.101C215.614 149.105 215.651 149.106 215.689 149.106C215.993 149.106 216.286 148.997 216.517 148.8C216.747 148.602 216.899 148.329 216.945 148.029L216.946 148.03Z" fill="#2F2E41"/>
<path d="M227.622 48.6205C227.099 48.3069 226.635 47.9048 226.25 47.4323C226.061 47.1935 225.936 46.9101 225.888 46.6092C225.84 46.3084 225.87 46.0003 225.976 45.7146C226.327 44.9437 227.368 44.701 228.176 44.9626C228.983 45.2242 229.607 45.8557 230.196 46.4642C230.716 46.9992 231.25 47.5601 231.496 48.2638C231.741 48.9674 231.616 49.8597 231.003 50.2869C230.401 50.7059 229.536 50.5344 228.957 50.0845C228.411 49.5925 227.975 48.9908 227.679 48.319L227.622 48.6205Z" fill="#2F2E41"/>
<path d="M229.972 46.6501C230.01 44.7015 232.238 43.3041 234.163 43.6496C236.088 43.9951 237.567 45.6305 238.307 47.4343C239.872 51.2454 238.697 55.5941 237.19 59.4295C235.683 63.2648 233.817 67.1557 234.037 71.2678C234.186 73.4904 234.934 75.6317 236.203 77.4655C237.472 79.2993 239.214 80.7575 241.245 81.6862C239.073 82.6675 236.477 81.6538 234.652 80.124C230.599 76.7267 229.034 70.6782 230.934 65.7511C231.871 63.3208 233.522 61.2417 234.812 58.9775C236.101 56.7133 237.047 54.0448 236.381 51.5273C235.715 49.0097 232.883 46.9716 230.461 47.9456L229.972 46.6501Z" fill="#2F2E41"/>
<path d="M222.605 56.5757C223.21 55.5569 223.82 54.2194 222.715 53.3288C222.474 53.144 222.199 53.0089 221.906 52.9316C221.612 52.8542 221.306 52.8361 221.006 52.8783C219.759 53.0281 218.402 53.0897 217.195 52.6384C216.743 52.4832 216.326 52.2389 215.97 51.9201C215.614 51.6013 215.326 51.2144 215.123 50.7825C214.502 49.3115 215.28 47.5241 216.582 46.5943C217.379 46.0462 218.32 45.7447 219.288 45.7276C220.256 45.7105 221.207 45.9786 222.023 46.4983C223.709 45.7558 225.755 46.0861 227.287 47.1082C228.819 48.1303 229.868 49.7671 230.437 51.5149C230.962 53.0193 231.052 54.6402 230.698 56.1933C230.413 57.2737 229.871 58.2697 229.118 59.097C228.365 59.9243 227.423 60.5586 226.371 60.946C225.962 61.107 225.517 61.1579 225.082 61.0937C224.647 61.0294 224.236 60.8523 223.891 60.58C223.33 60.0786 222.899 59.4492 222.635 58.7458C222.405 57.9751 222.282 57.12 222.605 56.5757Z" fill="#2F2E41"/>
<path d="M202.022 62.7467C202.057 62.8986 202.08 63.053 202.09 63.2085L214.225 70.1865L217.174 68.494L220.319 72.5971L215.389 76.0994C214.991 76.3824 214.511 76.529 214.022 76.5171C213.533 76.5053 213.061 76.3355 212.677 76.0335L200.163 66.1935C199.598 66.4021 198.983 66.4343 198.399 66.2858C197.815 66.1373 197.291 65.8152 196.895 65.3623C196.5 64.9094 196.252 64.3472 196.185 63.7505C196.118 63.1538 196.235 62.5508 196.52 62.0219C196.805 61.4929 197.245 61.063 197.781 60.7894C198.317 60.5157 198.924 60.4113 199.521 60.49C200.119 60.5687 200.678 60.8267 201.124 61.2299C201.57 61.633 201.883 62.1621 202.021 62.7467L202.022 62.7467Z" fill="#FFB8B8"/>
<path d="M214.631 70.5171L218.553 75.5838C218.664 75.7278 218.806 75.8461 218.967 75.9308C219.129 76.0154 219.307 76.0644 219.489 76.0744C219.671 76.0843 219.854 76.055 220.024 75.9885C220.193 75.922 220.347 75.8198 220.474 75.6888L224.914 71.0932C225.287 70.8178 225.602 70.4716 225.841 70.0746C226.08 69.6775 226.238 69.2373 226.306 68.7793C226.374 68.3212 226.351 67.8543 226.238 67.4052C226.125 66.9561 225.923 66.5338 225.646 66.1623C225.369 65.7908 225.021 65.4775 224.622 65.2404C224.223 65.0033 223.781 64.847 223.321 64.7805C222.861 64.7139 222.393 64.7385 221.942 64.8527C221.492 64.9669 221.069 65.1685 220.697 65.446C220.659 65.4745 220.621 65.5037 220.584 65.5337L215.015 68.6373C214.856 68.7262 214.718 68.8483 214.61 68.9954C214.502 69.1424 214.427 69.3108 214.391 69.4892C214.354 69.6676 214.357 69.8517 214.398 70.0291C214.439 70.2065 214.518 70.3729 214.63 70.5171H214.631Z" fill="#CBCBCB"/>
<path d="M64.7633 151.304L68.528 151.304L70.3192 136.829L64.7627 136.83L64.7633 151.304Z" fill="#A0616A"/>
<path d="M63.803 150.079L71.2171 150.078H71.2174C72.4705 150.078 73.6723 150.575 74.5583 151.458C75.4444 152.341 75.9422 153.539 75.9423 154.788V154.941L63.8032 154.941L63.803 150.079Z" fill="#2F2E41"/>
<path d="M35.4498 149.679L39.1722 150.24L43.1138 136.195L38.2337 135.368L35.4498 149.679Z" fill="#A0616A"/>
<path d="M34.6839 148.325L42.0148 149.429C43.2538 149.616 44.3679 150.286 45.1115 151.291C45.8552 152.296 46.1678 153.555 45.9806 154.79L45.9576 154.941L33.9548 153.133L34.6839 148.325Z" fill="#2F2E41"/>
<path d="M47.0574 79.5724L51.2375 80.6641L50.9594 87.4193L50.925 99.7185C51.3368 100.002 51.6524 100.404 51.8302 100.871C52.0079 101.337 52.0393 101.847 51.9202 102.332C51.8012 102.816 51.5373 103.254 51.1635 103.586C50.7896 103.918 50.3235 104.129 49.8266 104.191C49.3298 104.253 48.8258 104.164 48.3811 103.934C47.9365 103.705 47.5722 103.346 47.3366 102.906C47.1009 102.465 47.0049 101.964 47.0613 101.468C47.1177 100.972 47.3238 100.505 47.6523 100.128L46.3678 87.7841L47.0574 79.5724Z" fill="#A0616A"/>
<path d="M46.3298 71.8349C46.3528 71.1821 46.564 70.5497 46.9381 70.0133C47.3122 69.4769 47.8333 69.0592 48.4392 68.8102C49.0063 68.5573 49.6352 68.4749 50.2487 68.5732C50.8621 68.6716 51.4334 68.9464 51.8924 69.3638C52.2223 69.6576 52.4839 70.0196 52.659 70.4246C52.8341 70.8295 52.9185 71.2677 52.9063 71.7085C52.9173 75.6658 52.021 81.434 52.012 81.4917L51.9976 81.5834L45.8878 83.6343L46.3298 71.8349Z" fill="#CBCBCB"/>
<path d="M57.2546 83.0684L66.5998 80.6572L70.9197 95.1589L71.0732 149.184L63.9269 149.139L60.9396 105.413L41.9006 145.817L34.2236 144.898L50.9594 101.587C50.9594 101.587 50.0382 93.9345 52.9555 90.1084L52.3413 86.1293L57.2546 83.0684Z" fill="#2F2E41"/>
<path d="M50.9532 86.6764C50.8226 86.5181 50.7277 86.3336 50.675 86.1355C50.6223 85.9374 50.613 85.7302 50.6477 85.5282L46.385 72.7813C46.186 72.1854 46.1649 71.5448 46.3242 70.9371C46.4835 70.3295 46.8164 69.7811 47.2824 69.3584L49.1329 67.6818L50.3869 62.6819L57.5945 64.438L57.0007 66.8057L60.2627 66.2147L67.1333 81.4678L52.7719 87.1896L52.0646 87.2007C51.8519 87.201 51.6418 87.1542 51.4496 87.0635C51.2573 86.9728 51.0878 86.8405 50.9532 86.6764Z" fill="#CBCBCB"/>
<path d="M60.9572 75.9139L65.0754 74.6093L68.463 80.4666L75.0294 90.8796C75.5298 90.9001 76.012 91.0716 76.4125 91.3712C76.8129 91.6709 77.1126 92.0847 77.272 92.5578C77.4314 93.031 77.4429 93.5412 77.305 94.0211C77.1671 94.5009 76.8863 94.9277 76.4998 95.245C76.1133 95.5623 75.6392 95.7551 75.1403 95.798C74.6415 95.841 74.1413 95.7319 73.7059 95.4853C73.2706 95.2387 72.9206 94.8661 72.7023 94.4169C72.484 93.9678 72.4077 93.4631 72.4834 92.9697L64.778 83.2214L60.9572 75.9139Z" fill="#A0616A"/>
<path d="M56.1929 69.762C55.8624 69.198 55.7017 68.551 55.7302 67.8984C55.7587 67.2458 55.9752 66.6153 56.3537 66.082C56.6975 65.5662 57.1849 65.1617 57.756 64.918C58.3272 64.6742 58.9573 64.602 59.569 64.71C60.0054 64.7826 60.4206 64.9491 60.7858 65.198C61.1509 65.447 61.4572 65.7723 61.6833 66.1514C63.8147 69.49 66.1505 74.8426 66.1738 74.8961L66.2108 74.9813L62.1469 79.9699L56.1929 69.762Z" fill="#CBCBCB"/>
<path d="M55.7196 61.7515C58.8824 61.7515 61.4463 59.1958 61.4463 56.0433C61.4463 52.8907 58.8824 50.3351 55.7196 50.3351C52.5569 50.3351 49.9929 52.8907 49.9929 56.0433C49.9929 59.1958 52.5569 61.7515 55.7196 61.7515Z" fill="#A0616A"/>
<path d="M45.5993 53.6355C48.6458 53.6355 51.1156 51.1737 51.1156 48.137C51.1156 45.1003 48.6458 42.6385 45.5993 42.6385C42.5527 42.6385 40.083 45.1003 40.083 48.137C40.083 51.1737 42.5527 53.6355 45.5993 53.6355Z" fill="#2F2E41"/>
<path d="M40.8412 52.6901C41.5552 53.2045 42.3824 53.5409 43.2535 53.6713C44.1247 53.8017 45.0146 53.7222 45.8486 53.4396C46.6826 53.1569 47.4366 52.6792 48.0475 52.0465C48.6584 51.4138 49.1084 50.6445 49.3598 49.8029C49.2647 50.5571 49.0137 51.2835 48.6227 51.9361C48.2317 52.5887 47.7093 53.1534 47.0883 53.5946C46.4673 54.0358 45.7613 54.3439 45.0148 54.4994C44.2684 54.6549 43.4977 54.6544 42.7514 54.498C42.0051 54.3417 41.2995 54.0328 40.679 53.5908C40.0586 53.1489 39.5368 52.5836 39.1466 51.9305C38.7564 51.2774 38.5063 50.5508 38.412 49.7965C38.3178 49.0422 38.3815 48.2766 38.599 47.5481C38.4755 48.5268 38.6184 49.5207 39.0129 50.4255C39.4074 51.3302 40.039 52.1124 40.8412 52.6901Z" fill="#2F2E41"/>
<path d="M62.6108 52.6962C61.6478 50.9777 61.2793 50.2599 60.0377 49.2149C58.9396 48.2907 57.5891 48.0193 56.4997 48.895C55.211 48.34 53.7771 48.2141 52.4109 48.5361C51.0447 48.8581 49.8192 49.6108 48.9164 50.6824C48.0135 51.7539 47.4815 53.0872 47.3994 54.4841C47.3173 55.881 47.6895 57.2671 48.4606 58.4364C49.2317 59.6057 50.3606 60.4959 51.6797 60.9747C52.9988 61.4535 54.4377 61.4955 55.7826 61.0943C57.1275 60.6931 58.3067 59.8701 59.1451 58.7477C59.9834 57.6253 60.4361 56.2633 60.436 54.864C60.435 54.6182 60.4202 54.3728 60.3916 54.1287C61.3385 53.9961 61.6639 52.8288 62.6108 52.6962Z" fill="#2F2E41"/>
<path d="M118.626 155H0.310538C0.228178 155 0.149191 154.967 0.0909543 154.909C0.0327171 154.851 0 154.773 0 154.69C0 154.608 0.0327171 154.53 0.0909543 154.472C0.149191 154.414 0.228178 154.381 0.310538 154.381H118.626C118.708 154.381 118.787 154.414 118.845 154.472C118.903 154.53 118.936 154.608 118.936 154.69C118.936 154.773 118.903 154.851 118.845 154.909C118.787 154.967 118.708 155 118.626 155Z" fill="#CBCBCB"/>
<path d="M276.689 155H158.374C158.292 155 158.213 154.967 158.155 154.909C158.097 154.851 158.064 154.773 158.064 154.69C158.064 154.608 158.097 154.53 158.155 154.472C158.213 154.414 158.292 154.381 158.374 154.381H276.689C276.772 154.381 276.851 154.414 276.909 154.472C276.967 154.53 277 154.608 277 154.69C277 154.773 276.967 154.851 276.909 154.909C276.851 154.967 276.772 155 276.689 155Z" fill="#CBCBCB"/>
<path d="M122.444 6.11331H121.823V99.9144H122.444V6.11331Z" fill="#CBCBCB"/>
</g>
<defs>
<clipPath id="clip0_203_126">
<rect width="277" height="155" fill="white"/>
</clipPath>
</defs>
</svg>
