<svg width="234" height="155" viewBox="0 0 234 155" fill="none" xmlns="http://www.w3.org/2000/svg">
<g clip-path="url(#clip0_203_260)">
<path d="M228.445 94.6639H220.217C220.041 94.6643 219.868 94.6241 219.709 94.5464C219.551 94.4686 219.412 94.3553 219.303 94.215C219.195 94.0783 219.118 93.9184 219.08 93.7473C219.041 93.5763 219.041 93.3985 219.079 93.2274C219.852 89.7511 219.815 86.1386 218.971 82.6796C218.905 82.415 218.932 82.1355 219.047 81.8888C219.161 81.6421 219.355 81.4435 219.597 81.3267C223.034 79.6873 226.19 79.73 228.977 81.4534C229.123 81.5425 229.249 81.663 229.344 81.8065C229.44 81.95 229.504 82.1131 229.532 82.2843C230.122 86.0449 230.145 89.8755 229.599 93.6431C229.56 93.9267 229.422 94.1864 229.209 94.3741C228.997 94.5618 228.726 94.6647 228.445 94.6639Z" fill="white"/>
<path d="M228.32 89.1703H222.029C221.872 89.17 221.723 89.1065 221.612 88.9937C221.502 88.881 221.44 88.7282 221.44 88.5689C221.44 88.4096 221.502 88.2568 221.612 88.144C221.723 88.0313 221.872 87.9677 222.029 87.9674H228.32C228.476 87.9677 228.626 88.0313 228.736 88.144C228.847 88.2568 228.909 88.4096 228.909 88.5689C228.909 88.7282 228.847 88.881 228.736 88.9937C228.626 89.1065 228.476 89.17 228.32 89.1703Z" fill="white"/>
<path d="M228.32 87.061H222.029C221.872 87.0606 221.723 86.9971 221.612 86.8844C221.502 86.7716 221.44 86.6188 221.44 86.4595C221.44 86.3002 221.502 86.1474 221.612 86.0347C221.723 85.9219 221.872 85.8584 222.029 85.8581H228.32C228.476 85.8584 228.626 85.9219 228.736 86.0347C228.847 86.1474 228.909 86.3002 228.909 86.4595C228.909 86.6188 228.847 86.7716 228.736 86.8844C228.626 86.9971 228.476 87.0606 228.32 87.061Z" fill="white"/>
<path d="M63.6793 93.8234C87.8256 93.8234 107.4 73.8732 107.4 49.2635C107.4 24.6538 87.8256 4.70367 63.6793 4.70367C39.5329 4.70367 19.9585 24.6538 19.9585 49.2635C19.9585 73.8732 39.5329 93.8234 63.6793 93.8234Z" fill="#F2F2F2"/>
<path d="M114.385 92.505C118.957 92.505 122.664 88.7275 122.664 84.0677C122.664 79.4078 118.957 75.6303 114.385 75.6303C109.813 75.6303 106.107 79.4078 106.107 84.0677C106.107 88.7275 109.813 92.505 114.385 92.505Z" fill="#F2F2F2"/>
<path d="M156.036 111.489C157.894 111.489 159.399 109.954 159.399 108.061C159.399 106.168 157.894 104.634 156.036 104.634C154.179 104.634 152.673 106.168 152.673 108.061C152.673 109.954 154.179 111.489 156.036 111.489Z" fill="#F2F2F2"/>
<path d="M182.003 121.543C180.585 110.497 173.795 99.6494 163.428 96.1195C167.579 107.471 167.657 119.953 163.647 131.357C162.085 135.749 159.899 140.469 161.422 144.876C162.369 147.618 164.658 149.705 167.21 151.003C169.763 152.301 172.59 152.909 175.382 153.505L175.933 153.964C180.295 143.75 183.422 132.589 182.003 121.543Z" fill="#F2F2F2"/>
<path d="M163.327 96.3292C169.394 103.169 173.192 111.783 174.182 120.948C174.382 122.913 174.418 124.924 174.008 126.865C173.595 128.753 172.693 130.495 171.396 131.908C170.213 133.25 168.85 134.483 168.007 136.095C167.119 137.794 167.096 139.719 167.723 141.513C168.49 143.709 169.985 145.493 171.506 147.186C173.196 149.066 174.98 150.991 175.708 153.493C175.797 153.796 176.253 153.638 176.165 153.336C174.897 148.983 170.728 146.533 168.723 142.618C167.787 140.792 167.385 138.667 168.24 136.726C168.987 135.03 170.391 133.757 171.601 132.408C172.871 130.992 173.842 129.441 174.336 127.574C174.84 125.665 174.882 123.648 174.732 121.687C174.359 117.241 173.302 112.883 171.601 108.773C169.685 104.07 166.993 99.7364 163.643 95.9589C163.436 95.7252 163.121 96.097 163.327 96.3292Z" fill="white"/>
<path d="M174.034 117.978C175.52 117.6 176.826 116.696 177.719 115.427C178.611 114.158 179.032 112.608 178.906 111.052C178.88 110.737 178.398 110.764 178.425 111.079C178.545 112.528 178.153 113.972 177.319 115.152C176.486 116.332 175.266 117.169 173.88 117.513C173.579 117.588 173.734 118.053 174.034 117.978Z" fill="white"/>
<path d="M172.084 131.308C169.385 129.689 167.384 127.093 166.48 124.038C166.39 123.735 165.934 123.892 166.023 124.195C166.97 127.373 169.058 130.07 171.87 131.748C172.138 131.907 172.351 131.467 172.084 131.308Z" fill="white"/>
<path d="M169.241 104.538C168.695 104.807 168.093 104.933 167.489 104.906C166.884 104.878 166.295 104.698 165.775 104.382C165.509 104.218 165.297 104.659 165.562 104.822C166.137 105.169 166.788 105.367 167.456 105.398C168.124 105.43 168.79 105.294 169.395 105.003C169.454 104.981 169.502 104.936 169.531 104.878C169.559 104.821 169.564 104.754 169.546 104.692C169.525 104.631 169.481 104.58 169.424 104.551C169.367 104.522 169.301 104.518 169.241 104.538Z" fill="white"/>
<path d="M132.022 116.07C132.185 116.176 132.349 116.283 132.512 116.394C134.7 117.84 136.768 119.464 138.698 121.251C138.849 121.387 139.001 121.527 139.148 121.667C143.751 126.023 147.521 131.213 150.266 136.972C151.356 139.265 152.274 141.639 153.011 144.073C154.028 147.435 154.868 151.164 156.858 153.906C157.062 154.195 157.284 154.47 157.521 154.731L175.341 154.614C175.381 154.593 175.422 154.577 175.462 154.556L176.174 154.584C176.145 154.456 176.112 154.323 176.082 154.195C176.065 154.121 176.045 154.046 176.028 153.972C176.016 153.922 176.003 153.872 175.995 153.827C175.99 153.81 175.986 153.794 175.982 153.781C175.974 153.736 175.961 153.695 175.953 153.653C175.769 152.913 175.58 152.172 175.386 151.432C175.386 151.428 175.386 151.427 175.382 151.423C173.887 145.785 171.917 140.225 169.181 135.146C169.099 134.993 169.016 134.836 168.926 134.683C167.68 132.401 166.254 130.226 164.661 128.18C163.785 127.063 162.854 125.992 161.872 124.971C159.329 122.337 156.395 120.127 153.179 118.422C146.766 115.025 139.358 113.755 132.541 115.901C132.367 115.956 132.196 116.011 132.022 116.07Z" fill="#F2F2F2"/>
<path d="M132.064 116.3C140.948 118.038 149.07 122.586 155.274 129.296C156.595 130.742 157.811 132.326 158.631 134.127C159.416 135.888 159.725 137.832 159.524 139.756C159.372 141.554 159.012 143.375 159.292 145.179C159.586 147.081 160.705 148.631 162.265 149.679C164.175 150.962 166.422 151.469 168.637 151.887C171.097 152.351 173.658 152.794 175.718 154.344C175.968 154.532 176.239 154.126 175.99 153.939C172.406 151.241 167.63 151.843 163.716 149.948C161.89 149.064 160.314 147.613 159.85 145.54C159.444 143.727 159.814 141.849 159.983 140.03C160.161 138.12 160.02 136.286 159.311 134.492C158.586 132.658 157.428 131.022 156.149 129.548C153.225 126.228 149.807 123.396 146.021 121.158C141.713 118.579 137.004 116.771 132.097 115.81C131.794 115.751 131.762 116.241 132.064 116.3Z" fill="white"/>
<path d="M153.401 127.015C154.365 125.802 154.873 124.278 154.836 122.718C154.799 121.157 154.219 119.66 153.2 118.495C152.993 118.26 152.625 118.577 152.832 118.812C153.783 119.896 154.324 121.29 154.355 122.743C154.386 124.197 153.907 125.614 153.004 126.738C152.807 126.983 153.206 127.259 153.401 127.015Z" fill="white"/>
<path d="M159.719 138.855C156.608 139.218 153.477 138.374 150.95 136.489C150.699 136.302 150.428 136.708 150.678 136.894C153.311 138.851 156.571 139.723 159.808 139.337C160.116 139.3 160.025 138.818 159.719 138.855Z" fill="white"/>
<path d="M141.635 119.226C141.358 119.774 140.952 120.245 140.453 120.594C139.954 120.943 139.377 121.161 138.776 121.227C138.467 121.26 138.558 121.742 138.865 121.709C139.529 121.633 140.166 121.392 140.718 121.007C141.27 120.623 141.721 120.106 142.033 119.503C142.067 119.448 142.079 119.383 142.067 119.319C142.056 119.256 142.021 119.199 141.97 119.161C141.917 119.125 141.852 119.111 141.789 119.123C141.727 119.135 141.671 119.172 141.635 119.226Z" fill="white"/>
<path d="M217.489 78.3751L215.08 54.6018L214.443 44.8175L221.188 43.5745C221.188 43.5745 222.199 50.3007 223.082 54.248C223.954 58.1431 221.921 77.8531 221.867 78.373C222.362 78.8244 222.711 79.4185 222.868 80.0766C223.025 80.7347 222.982 81.4259 222.745 82.0586C222.508 82.6914 222.088 83.2359 221.541 83.6202C220.994 84.0045 220.345 84.2104 219.681 84.2108C219.016 84.2111 218.367 84.0058 217.82 83.622C217.272 83.2383 216.852 82.6941 216.614 82.0616C216.377 81.4291 216.333 80.738 216.49 80.0797C216.646 79.4214 216.994 78.827 217.489 78.3751Z" fill="#FFB8B8"/>
<path d="M189.926 151.37H186.495L184.862 137.88L189.927 137.881L189.926 151.37Z" fill="#FFB6B6"/>
<path d="M190.801 154.76L179.737 154.759V154.617C179.737 153.453 180.191 152.336 180.999 151.513C181.806 150.69 182.902 150.228 184.044 150.228H184.044L186.065 148.665L189.836 150.228L190.802 150.228L190.801 154.76Z" fill="#2F2E41"/>
<path d="M220.168 151.37H216.737L215.104 137.88L220.169 137.881L220.168 151.37Z" fill="#FFB6B6"/>
<path d="M221.043 154.76L209.979 154.759V154.617C209.979 153.453 210.433 152.336 211.241 151.513C212.048 150.69 213.143 150.228 214.286 150.228H214.286L216.307 148.665L220.078 150.228L221.043 150.228L221.043 154.76Z" fill="#2F2E41"/>
<path d="M214.949 79.1744L217.835 107.118C217.835 107.118 221.677 135.098 220.956 138.958C220.234 142.819 221.136 143.371 221.136 143.371L214.553 142.893C214.553 142.893 214.733 140.503 213.651 139.4C212.568 138.297 213.11 134.988 213.11 134.988L200.339 89.4695L192.582 113.369C192.582 113.369 191.32 139.658 191.139 140.026C190.959 140.393 190.418 145.357 190.418 145.357H183.744C183.744 145.357 184.646 142.415 183.383 141.496C182.12 140.577 181.038 141.312 182.12 139.658C183.203 138.003 183.563 135.981 183.203 135.062C182.842 134.143 182.842 130.466 182.842 130.466C182.842 130.466 183.383 80.829 186.449 79.1745C189.516 77.5199 214.949 79.1744 214.949 79.1744Z" fill="#2F2E41"/>
<path d="M201.281 22.5956C205.202 22.5956 208.38 19.3565 208.38 15.3609C208.38 11.3653 205.202 8.12619 201.281 8.12619C197.361 8.12619 194.183 11.3653 194.183 15.3609C194.183 19.3565 197.361 22.5956 201.281 22.5956Z" fill="#FFB8B8"/>
<path d="M222.326 47.3672L215.344 49.919L213.218 50.6955L211.666 30.4915L216.992 33.3706C217.001 33.3773 217.009 33.3853 217.016 33.3944C217.938 34.4328 218.71 35.6002 219.308 36.8613C222.229 42.9135 222.326 47.3672 222.326 47.3672Z" fill="#3F3D56"/>
<path d="M174.232 76.6682C174.232 76.6682 181.327 54.1988 181.451 53.9294C182.381 46.7364 185.054 43.5635 185.454 43.9079L192.353 46.3439C192.353 46.3439 190.301 52.967 188.912 56.901C187.584 60.66 178.492 78.0154 178.236 78.4687C178.511 79.0857 178.595 79.7729 178.477 80.4395C178.36 81.1061 178.047 81.7207 177.579 82.202C177.111 82.6832 176.512 83.0084 175.859 83.1346C175.206 83.2608 174.531 83.1821 173.923 82.9087C173.315 82.6354 172.802 82.1804 172.454 81.6039C172.105 81.0274 171.936 80.3566 171.97 79.6802C172.003 79.0038 172.237 78.3536 172.641 77.8158C173.045 77.278 173.6 76.8778 174.232 76.6682Z" fill="#FFB8B8"/>
<path d="M195.668 31.7926C195.668 31.7926 189.694 28.809 187.378 34.669C185.86 38.6209 185.142 40.3447 184.129 44.4609C184.129 44.4609 190.217 45.3919 192.17 48.8986L195.668 31.7926Z" fill="#3F3D56"/>
<path d="M217.402 82.2201C203.655 85.1135 185.438 80.139 185.438 80.139L190.297 58.6686L188.57 36.1995C188.359 33.4518 189.894 30.8761 192.283 29.9634L195.582 28.7042L198.308 24.726L206.096 24.9864L209.209 29.163L211.666 30.4914L216.992 33.3706L217.016 33.3825V33.3944L215.344 49.9189L214.336 59.8824C214.336 59.8824 217.398 71.0882 216.769 72.5744C216.141 74.0582 216.687 73.3414 216.84 74.1346C216.992 74.9279 217.459 74.978 217.529 76.5407C217.602 78.1009 217.402 82.2201 217.402 82.2201Z" fill="#3F3D56"/>
<path d="M208.982 12.7847C208.421 12.2207 209.265 10.7275 209.106 9.94097C208.923 9.03923 207.948 9.01284 207.715 8.12305C207.465 7.16587 206.465 6.64479 205.539 6.34143C203.168 5.56799 200.637 5.44986 198.206 5.9991C197.13 6.26686 196.071 6.59946 195.033 6.99516C194.317 7.252 195.008 6.55309 194.292 6.80993C194.021 6.8715 193.782 7.03324 193.62 7.26393C193.492 7.51199 193.665 7.90871 193.936 7.85846C193.062 8.25136 192.188 8.64426 191.314 9.03716C191.804 9.56058 192.294 10.084 192.784 10.6075C192.088 10.4053 191.344 11.2522 191.619 11.9356C191.73 12.1513 191.89 12.3364 192.086 12.475C192.283 12.6135 192.509 12.7013 192.746 12.7308C193.534 12.887 192.936 13.6507 193.738 13.6358C194.541 13.621 200.133 11.9453 200.523 12.6598C200.801 13.1686 200.771 13.8425 201.167 14.2617C201.674 14.798 202.56 14.6018 203.205 14.2527C203.851 13.9036 204.506 13.4237 205.232 13.5074C205.99 13.5948 206.564 15.0228 206.75 15.7768C206.937 16.5309 206.819 17.3243 206.7 18.0925C206.544 19.1014 204.981 20.1103 204.825 21.1191C206.56 21.608 208.42 20.0526 209.106 17.3478C209.038 15.638 210.177 13.9866 208.982 12.7847Z" fill="#2F2E41"/>
<path d="M98.6298 106.744C77.7334 106.745 59.552 90.8577 56.8661 69.1881L57.3795 69.1219C60.0322 90.524 77.9921 106.216 98.6302 106.217C100.384 106.217 102.135 106.104 103.875 105.88C126.637 102.949 142.816 81.6909 139.941 58.4919L140.454 58.4257C143.365 81.9131 126.985 103.436 103.94 106.403C102.179 106.63 100.405 106.744 98.6298 106.744Z" fill="#3F3D56"/>
<path d="M99.752 115.563H91.5242C91.3484 115.564 91.1749 115.524 91.0165 115.446C90.8581 115.368 90.7191 115.255 90.6098 115.115C90.5018 114.978 90.4257 114.818 90.387 114.647C90.3484 114.476 90.3482 114.298 90.3866 114.127C91.1673 110.615 91.1212 106.965 90.2521 103.475C90.1928 103.233 90.2096 102.979 90.3003 102.749C90.3909 102.518 90.5507 102.322 90.7568 102.19C93.6032 100.392 96.7026 100.449 100.233 102.361C100.393 102.448 100.532 102.57 100.638 102.72C100.744 102.87 100.815 103.043 100.845 103.225C101.43 106.972 101.45 110.789 100.906 114.543C100.867 114.826 100.729 115.086 100.517 115.274C100.305 115.461 100.033 115.564 99.752 115.563Z" fill="white"/>
<path d="M62.24 70.74H54.0123C53.8365 70.7403 53.6629 70.7001 53.5045 70.6224C53.3462 70.5447 53.2071 70.4314 53.0978 70.291C52.9899 70.1543 52.9137 69.9944 52.8751 69.8233C52.8364 69.6523 52.8363 69.4745 52.8746 69.3034C53.6582 65.7795 53.609 62.1161 52.731 58.6154C52.6755 58.3849 52.6889 58.1427 52.7696 57.9201C52.8502 57.6974 52.9944 57.5044 53.1836 57.366C57.4143 54.2648 60.7461 54.3548 63.0866 57.6339C63.1921 57.7834 63.2622 57.9558 63.2914 58.1375C63.9167 61.9691 63.9513 65.8767 63.3939 69.7191C63.3552 70.0027 63.2169 70.2624 63.0048 70.4501C62.7926 70.6378 62.5209 70.7408 62.24 70.74Z" fill="#CCCCCC"/>
<path d="M95.9076 107.693H93.0773C92.921 107.693 92.7712 107.629 92.6608 107.517C92.5504 107.404 92.4884 107.251 92.4884 107.092C92.4884 106.933 92.5504 106.78 92.6608 106.667C92.7712 106.554 92.921 106.491 93.0773 106.49H95.9076C96.0642 106.49 96.2143 106.554 96.3249 106.667C96.4356 106.779 96.4978 106.932 96.4978 107.092C96.4978 107.251 96.4356 107.404 96.3249 107.517C96.2143 107.63 96.0642 107.693 95.9076 107.693Z" fill="white"/>
<path d="M99.3683 110.07H93.0773C92.921 110.069 92.7712 110.006 92.6608 109.893C92.5504 109.78 92.4884 109.628 92.4884 109.468C92.4884 109.309 92.5504 109.156 92.6608 109.044C92.7712 108.931 92.921 108.867 93.0773 108.867H99.3683C99.5246 108.867 99.6744 108.931 99.7848 109.044C99.8952 109.156 99.9572 109.309 99.9572 109.468C99.9572 109.628 99.8952 109.78 99.7848 109.893C99.6744 110.006 99.5246 110.069 99.3683 110.07Z" fill="white"/>
<path d="M59.6892 62.3425H56.8589C56.7026 62.3421 56.5528 62.2786 56.4424 62.1659C56.332 62.0531 56.27 61.9003 56.27 61.741C56.27 61.5817 56.332 61.4289 56.4424 61.3162C56.5528 61.2034 56.7026 61.1399 56.8589 61.1396H59.6892C59.8455 61.1399 59.9953 61.2034 60.1057 61.3162C60.2161 61.4289 60.2781 61.5817 60.2781 61.741C60.2781 61.9003 60.2161 62.0531 60.1057 62.1659C59.9953 62.2786 59.8455 62.3421 59.6892 62.3425Z" fill="white"/>
<path d="M59.6892 64.4518H56.8589C56.7026 64.4515 56.5528 64.388 56.4424 64.2752C56.332 64.1624 56.27 64.0097 56.27 63.8504C56.27 63.6911 56.332 63.5383 56.4424 63.4255C56.5528 63.3127 56.7026 63.2492 56.8589 63.2489H59.6892C59.8455 63.2492 59.9953 63.3127 60.1057 63.4255C60.2161 63.5383 60.2781 63.6911 60.2781 63.8504C60.2781 64.0097 60.2161 64.1624 60.1057 64.2752C59.9953 64.388 59.8455 64.4515 59.6892 64.4518Z" fill="white"/>
<path d="M59.6892 66.5611H56.8589C56.7026 66.5608 56.5528 66.4973 56.4424 66.3845C56.332 66.2718 56.27 66.119 56.27 65.9597C56.27 65.8004 56.332 65.6476 56.4424 65.5349C56.5528 65.4221 56.7026 65.3586 56.8589 65.3582H59.6892C59.8455 65.3586 59.9953 65.4221 60.1057 65.5349C60.2161 65.6476 60.2781 65.8004 60.2781 65.9597C60.2781 66.119 60.2161 66.2718 60.1057 66.3845C59.9953 66.4973 59.8455 66.5608 59.6892 66.5611Z" fill="white"/>
<path d="M172.976 80.6468H146.675C145.97 80.646 145.294 80.3602 144.796 79.8523C144.297 79.3443 144.017 78.6555 144.016 77.9372V61.4273C144.017 60.7089 144.297 60.0202 144.796 59.5122C145.294 59.0042 145.97 58.7185 146.675 58.7177H172.976C173.681 58.7185 174.356 59.0042 174.855 59.5122C175.353 60.0202 175.634 60.7089 175.634 61.4273V77.9372C175.634 78.6555 175.353 79.3443 174.855 79.8523C174.356 80.3602 173.681 80.646 172.976 80.6468Z" fill="#E6E6E6"/>
<path d="M162.526 78.5202H148.523C147.863 78.5195 147.23 78.2519 146.764 77.7761C146.297 77.3004 146.034 76.6553 146.033 75.9825V63.3819C146.034 62.709 146.297 62.064 146.764 61.5883C147.23 61.1125 147.863 60.8449 148.523 60.8442H171.127C171.787 60.8449 172.42 61.1125 172.887 61.5883C173.354 62.064 173.616 62.709 173.617 63.3819V67.2165C173.614 70.2134 172.444 73.0866 170.365 75.2057C168.285 77.3248 165.466 78.5168 162.526 78.5202Z" fill="white"/>
<path d="M168.872 67.744H150.778C150.622 67.744 150.472 67.6807 150.361 67.5679C150.25 67.4551 150.188 67.3021 150.188 67.1426C150.188 66.9831 150.25 66.8301 150.361 66.7174C150.472 66.6046 150.622 66.5412 150.778 66.5412H168.872C169.029 66.5412 169.179 66.6046 169.289 66.7174C169.4 66.8301 169.462 66.9831 169.462 67.1426C169.462 67.3021 169.4 67.4551 169.289 67.5679C169.179 67.6807 169.029 67.744 168.872 67.744Z" fill="white"/>
<path d="M153.609 70.1206H150.778C150.622 70.1202 150.472 70.0567 150.362 69.944C150.251 69.8312 150.189 69.6784 150.189 69.5191C150.189 69.3598 150.251 69.207 150.362 69.0943C150.472 68.9815 150.622 68.918 150.778 68.9177H153.609C153.765 68.918 153.915 68.9815 154.025 69.0943C154.135 69.207 154.197 69.3598 154.197 69.5191C154.197 69.6784 154.135 69.8312 154.025 69.944C153.915 70.0567 153.765 70.1202 153.609 70.1206Z" fill="white"/>
<path d="M158.621 72.4971H150.778C150.622 72.4971 150.472 72.4337 150.361 72.3209C150.25 72.2081 150.188 72.0552 150.188 71.8956C150.188 71.7361 150.25 71.5831 150.361 71.4704C150.472 71.3576 150.622 71.2942 150.778 71.2942H158.621C158.778 71.2942 158.928 71.3576 159.039 71.4704C159.149 71.5831 159.212 71.7361 159.212 71.8956C159.212 72.0552 159.149 72.2081 159.039 72.3209C158.928 72.4337 158.778 72.4971 158.621 72.4971Z" fill="white"/>
<path d="M143.098 64.0593C146.171 64.0593 148.662 61.5205 148.662 58.3888C148.662 55.2571 146.171 52.7183 143.098 52.7183C140.025 52.7183 137.534 55.2571 137.534 58.3888C137.534 61.5205 140.025 64.0593 143.098 64.0593Z" fill="#3F3D56"/>
<path d="M80.1169 15.2531C80.4852 13.3477 81.2181 11.5349 82.2738 9.91824C83.3295 8.30155 84.6873 6.91263 86.2697 5.83076C89.4655 3.64584 93.3819 2.84427 97.1575 3.60238C99.027 3.97777 100.806 4.72476 102.392 5.80072C103.978 6.87669 105.341 8.26054 106.402 9.87328C107.464 11.486 108.203 13.2961 108.579 15.2C108.954 17.104 108.957 19.0647 108.589 20.9701L108.081 20.8681C108.798 17.1573 108.04 13.3081 105.973 10.1672C103.905 7.02628 100.698 4.85102 97.0575 4.11993C93.4166 3.38884 89.6398 4.16181 86.5581 6.26879C83.4763 8.37577 81.342 11.6442 80.6247 15.355L80.1169 15.2531Z" fill="#3F3D56"/>
<path d="M85.6267 24.5828L77.406 24.9298C77.2304 24.9376 77.0553 24.9048 76.8939 24.8338C76.7325 24.7628 76.589 24.6554 76.4741 24.5198C76.3607 24.3877 76.2781 24.2312 76.2326 24.0619C76.187 23.8927 76.1796 23.7151 76.211 23.5425C76.8419 20.0366 76.658 16.4287 75.6742 13.0082C75.5983 12.7467 75.6137 12.4663 75.7179 12.215C75.822 11.9637 76.0085 11.757 76.2454 11.6301C79.6126 9.84717 82.7676 9.75676 85.6223 11.3611C85.7719 11.444 85.902 11.5591 86.0035 11.6984C86.105 11.8378 86.1755 11.998 86.21 12.1679C86.953 15.9004 87.1312 19.7268 86.7382 23.5142C86.711 23.7992 86.5834 24.0645 86.379 24.2609C86.1747 24.4574 85.9074 24.5717 85.6267 24.5828Z" fill="white"/>
<path d="M85.2788 19.0991L78.9932 19.3645C78.9157 19.3678 78.8383 19.3555 78.7655 19.3284C78.6927 19.3012 78.6258 19.2597 78.5688 19.2062C78.5117 19.1527 78.4655 19.0883 78.4329 19.0166C78.4003 18.9449 78.3818 18.8674 78.3786 18.7884C78.3754 18.7095 78.3875 18.6306 78.4142 18.5564C78.4409 18.4822 78.4817 18.4141 78.5342 18.356C78.5868 18.2979 78.65 18.2509 78.7204 18.2177C78.7908 18.1845 78.8669 18.1658 78.9443 18.1626L85.23 17.8972C85.3074 17.894 85.3847 17.9063 85.4575 17.9335C85.5302 17.9606 85.597 18.0022 85.654 18.0557C85.7111 18.1091 85.7572 18.1736 85.7898 18.2452C85.8224 18.3169 85.8408 18.3944 85.844 18.4733C85.8472 18.5522 85.8351 18.631 85.8085 18.7052C85.7818 18.7793 85.7411 18.8474 85.6886 18.9055C85.6361 18.9636 85.5729 19.0106 85.5026 19.0439C85.4323 19.0771 85.3562 19.0959 85.2788 19.0991Z" fill="white"/>
<path d="M85.1931 16.9916L78.9075 17.2569C78.7511 17.2635 78.5986 17.2065 78.4834 17.0985C78.3683 16.9905 78.3 16.8402 78.2935 16.6809C78.287 16.5215 78.3429 16.366 78.4489 16.2486C78.5549 16.1313 78.7023 16.0616 78.8587 16.055L85.1443 15.7897C85.3007 15.7831 85.4532 15.8401 85.5684 15.9481C85.6835 16.0561 85.7519 16.2064 85.7583 16.3657C85.7648 16.5251 85.7089 16.6806 85.6029 16.798C85.4969 16.9153 85.3495 16.985 85.1931 16.9916Z" fill="white"/>
<path d="M139.426 21.9292H113.125C112.42 21.9283 111.744 21.6426 111.246 21.1346C110.747 20.6266 110.467 19.9379 110.466 19.2195V2.70965C110.467 1.99126 110.747 1.30252 111.246 0.794539C111.744 0.286557 112.42 0.000814409 113.125 0H139.426C140.131 0.000811616 140.807 0.286552 141.305 0.794535C141.803 1.30252 142.084 1.99126 142.085 2.70965V19.2195C142.084 19.9379 141.803 20.6266 141.305 21.1346C140.807 21.6426 140.131 21.9283 139.426 21.9292Z" fill="#E6E6E6"/>
<path d="M128.976 19.8026H114.974C114.314 19.8018 113.681 19.5342 113.214 19.0585C112.747 18.5828 112.484 17.9377 112.484 17.2649V4.66423C112.484 3.99141 112.747 3.34638 113.214 2.87064C113.681 2.39489 114.314 2.1273 114.974 2.12656H137.577C138.237 2.1273 138.87 2.3949 139.337 2.87065C139.804 3.34639 140.066 3.99143 140.067 4.66423V8.49887C140.064 11.4958 138.894 14.369 136.815 16.4881C134.736 18.6072 131.917 19.7992 128.976 19.8026Z" fill="white"/>
<path d="M135.322 9.0264H117.228C117.072 9.0264 116.922 8.96304 116.811 8.85025C116.701 8.73746 116.638 8.58448 116.638 8.42497C116.638 8.26547 116.701 8.11249 116.811 7.9997C116.922 7.88691 117.072 7.82355 117.228 7.82355H135.322C135.479 7.82355 135.629 7.88691 135.74 7.9997C135.85 8.11249 135.912 8.26547 135.912 8.42497C135.912 8.58448 135.85 8.73746 135.74 8.85025C135.629 8.96304 135.479 9.0264 135.322 9.0264Z" fill="white"/>
<path d="M120.059 11.4029H117.228C117.072 11.4026 116.922 11.3391 116.812 11.2263C116.702 11.1136 116.64 10.9608 116.64 10.8015C116.64 10.6422 116.702 10.4894 116.812 10.3766C116.922 10.2639 117.072 10.2003 117.228 10.2H120.059C120.215 10.2003 120.365 10.2639 120.475 10.3766C120.586 10.4894 120.648 10.6422 120.648 10.8015C120.648 10.9608 120.586 11.1136 120.475 11.2263C120.365 11.3391 120.215 11.4026 120.059 11.4029Z" fill="white"/>
<path d="M125.072 13.7794H117.228C117.072 13.7794 116.922 13.7161 116.811 13.6033C116.7 13.4905 116.638 13.3375 116.638 13.178C116.638 13.0185 116.7 12.8655 116.811 12.7527C116.922 12.6399 117.072 12.5765 117.228 12.5765H125.072C125.228 12.5769 125.378 12.6404 125.488 12.7531C125.599 12.8659 125.661 13.0187 125.661 13.178C125.661 13.3373 125.599 13.4901 125.488 13.6028C125.378 13.7156 125.228 13.7791 125.072 13.7794Z" fill="white"/>
<path d="M113.592 24.7872C115.214 22.1275 114.414 18.6311 111.804 16.9777C109.195 15.3244 105.764 16.1402 104.142 18.8C102.52 21.4597 103.32 24.9561 105.93 26.6095C108.539 28.2628 111.97 27.4469 113.592 24.7872Z" fill="#3F3D56"/>
<path d="M233.762 155H157.323C157.26 155 157.199 154.974 157.155 154.929C157.11 154.884 157.085 154.822 157.085 154.758C157.085 154.693 157.11 154.632 157.155 154.586C157.199 154.541 157.26 154.515 157.323 154.515H233.762C233.825 154.515 233.886 154.541 233.93 154.586C233.975 154.632 234 154.693 234 154.758C234 154.822 233.975 154.884 233.93 154.929C233.886 154.974 233.825 155 233.762 155Z" fill="#CCCCCC"/>
<path d="M34.7511 66.0302C32.4685 59.88 32.6765 53.0576 35.3293 47.0637C37.9822 41.0698 42.8626 36.3954 48.897 34.0689C54.9314 31.7425 61.6254 31.9544 67.5065 34.6582C73.3875 37.362 77.9738 42.3361 80.2565 48.4863L79.7724 48.6729C78.6662 45.6925 76.9949 42.9632 74.8538 40.6411C72.7127 38.3189 70.1437 36.4494 67.2937 35.1391C64.4437 33.8288 61.3683 33.1034 58.2432 33.0045C55.1181 32.9055 52.0045 33.4348 49.0802 34.5623C46.1558 35.6897 43.478 37.3932 41.1996 39.5754C38.9211 41.7576 37.0867 44.3758 35.8011 47.2805C34.5155 50.1852 33.8038 53.3196 33.7067 56.5046C33.6096 59.6897 34.129 62.8631 35.2352 65.8435L34.7511 66.0302Z" fill="#3F3D56"/>
<path d="M56.0311 41.4728H47.8034C47.6276 41.4732 47.454 41.433 47.2957 41.3553C47.1373 41.2775 46.9983 41.1642 46.889 41.0239C46.781 40.8872 46.7049 40.7273 46.6662 40.5562C46.6275 40.3852 46.6274 40.2074 46.6658 40.0363C47.4447 36.5327 47.4006 32.8911 46.5372 29.4081C46.476 29.1616 46.4947 28.9016 46.5907 28.6669C46.6867 28.4322 46.8547 28.2355 47.0695 28.1063C50.0499 26.3381 53.2327 26.392 56.5291 28.2671C56.6852 28.3538 56.8197 28.4757 56.9225 28.6235C57.0253 28.7713 57.0937 28.9411 57.1223 29.1199C57.709 32.872 57.7302 36.6934 57.1851 40.452C57.1463 40.7356 57.0081 40.9953 56.7959 41.183C56.5838 41.3707 56.3121 41.4736 56.0311 41.4728Z" fill="white"/>
<path d="M52.1868 33.339H49.3565C49.2002 33.3387 49.0504 33.2752 48.94 33.1624C48.8296 33.0496 48.7676 32.8969 48.7676 32.7376C48.7676 32.5783 48.8296 32.4255 48.94 32.3127C49.0504 32.2 49.2002 32.1364 49.3565 32.1361H52.1868C52.3431 32.1364 52.4929 32.2 52.6033 32.3127C52.7137 32.4255 52.7757 32.5783 52.7757 32.7376C52.7757 32.8969 52.7137 33.0496 52.6033 33.1624C52.4929 33.2752 52.3431 33.3387 52.1868 33.339Z" fill="white"/>
<path d="M55.6475 35.7155H49.3565C49.1999 35.7155 49.0498 35.6521 48.9392 35.5394C48.8285 35.4266 48.7663 35.2736 48.7663 35.1141C48.7663 34.9545 48.8285 34.8016 48.9392 34.6888C49.0498 34.576 49.1999 34.5126 49.3565 34.5126H55.6475C55.8038 34.5129 55.9536 34.5765 56.064 34.6892C56.1744 34.802 56.2364 34.9548 56.2364 35.1141C56.2364 35.2734 56.1744 35.4262 56.064 35.5389C55.9536 35.6517 55.8038 35.7152 55.6475 35.7155Z" fill="white"/>
<path d="M28.9597 65.698H2.65862C1.95375 65.6972 1.27798 65.4114 0.779567 64.9034C0.281152 64.3955 0.000794959 63.7067 0 62.9883V46.4785C0.000794959 45.7601 0.281152 45.0713 0.779567 44.5634C1.27798 44.0554 1.95375 43.7696 2.65862 43.7688H28.9597C29.6646 43.7696 30.3403 44.0554 30.8387 44.5634C31.3372 45.0713 31.6175 45.7601 31.6183 46.4785V62.9883C31.6175 63.7067 31.3372 64.3955 30.8387 64.9035C30.3403 65.4114 29.6646 65.6972 28.9597 65.698Z" fill="#E6E6E6"/>
<path d="M18.5098 63.5714H4.50741C3.84726 63.5707 3.21436 63.3031 2.74755 62.8273C2.28074 62.3516 2.01816 61.7066 2.0174 61.0337V48.4331C2.01816 47.7602 2.28074 47.1152 2.74755 46.6395C3.21436 46.1637 3.84726 45.8961 4.50741 45.8954H27.111C27.7711 45.8961 28.404 46.1637 28.8708 46.6395C29.3376 47.1152 29.6001 47.7602 29.6009 48.4331V52.2677C29.5975 55.2646 28.4279 58.1378 26.3487 60.2569C24.2694 62.376 21.4503 63.568 18.5098 63.5714Z" fill="white"/>
<path d="M24.8561 52.7952H6.76225C6.60575 52.7952 6.45565 52.7319 6.34499 52.6191C6.23432 52.5063 6.17215 52.3533 6.17215 52.1938C6.17215 52.0343 6.23432 51.8813 6.34499 51.7685C6.45565 51.6557 6.60575 51.5924 6.76225 51.5924H24.8561C25.0126 51.5924 25.1627 51.6557 25.2733 51.7685C25.384 51.8813 25.4462 52.0343 25.4462 52.1938C25.4462 52.3533 25.384 52.5063 25.2733 52.6191C25.1627 52.7319 25.0126 52.7952 24.8561 52.7952Z" fill="white"/>
<path d="M9.59258 55.1718H6.76224C6.60594 55.1714 6.45615 55.1079 6.34575 54.9951C6.23534 54.8824 6.17334 54.7296 6.17334 54.5703C6.17334 54.411 6.23534 54.2582 6.34575 54.1455C6.45615 54.0327 6.60594 53.9692 6.76224 53.9688H9.59258C9.74888 53.9692 9.89866 54.0327 10.0091 54.1455C10.1195 54.2582 10.1815 54.411 10.1815 54.5703C10.1815 54.7296 10.1195 54.8824 10.0091 54.9951C9.89866 55.1079 9.74888 55.1714 9.59258 55.1718Z" fill="white"/>
<path d="M14.6055 57.5483H6.76224C6.60594 57.5479 6.45615 57.4844 6.34575 57.3717C6.23534 57.2589 6.17334 57.1061 6.17334 56.9468C6.17334 56.7875 6.23534 56.6347 6.34575 56.522C6.45615 56.4092 6.60594 56.3457 6.76224 56.3454H14.6055C14.762 56.3454 14.9121 56.4087 15.0228 56.5215C15.1334 56.6343 15.1956 56.7873 15.1956 56.9468C15.1956 57.1063 15.1334 57.2593 15.0228 57.3721C14.9121 57.4849 14.762 57.5483 14.6055 57.5483Z" fill="white"/>
<path d="M39.3443 68.0287C40.9665 65.369 40.166 61.8726 37.5564 60.2192C34.9467 58.5659 31.5161 59.3818 29.8939 62.0415C28.2717 64.7012 29.0722 68.1977 31.6819 69.851C34.2915 71.5043 37.7221 70.6885 39.3443 68.0287Z" fill="#3F3D56"/>
<path d="M84.2298 57.2929H76.002C75.8263 57.2933 75.6527 57.2531 75.4943 57.1754C75.3359 57.0976 75.1969 56.9843 75.0876 56.844C74.9797 56.7072 74.9035 56.5473 74.8648 56.3763C74.8262 56.2053 74.826 56.0275 74.8644 55.8564C75.6419 52.3589 75.5994 48.7239 74.7404 45.2463C74.6794 44.9964 74.7001 44.7331 74.7992 44.4962C74.8984 44.2593 75.0706 44.0619 75.2899 43.9338C79.2867 41.602 82.4516 41.6664 84.9653 44.1307C85.1415 44.3065 85.2575 44.5354 85.2962 44.7835C85.9069 48.5855 85.9365 52.4609 85.3837 56.2721C85.345 56.5557 85.2067 56.8154 84.9946 57.0031C84.7824 57.1907 84.5107 57.2937 84.2298 57.2929Z" fill="#FF6584"/>
<path d="M80.9029 49.4228H78.0725C77.9162 49.4224 77.7664 49.3589 77.656 49.2461C77.5456 49.1334 77.4836 48.9806 77.4836 48.8213C77.4836 48.662 77.5456 48.5092 77.656 48.3965C77.7664 48.2837 77.9162 48.2202 78.0725 48.2198H80.9029C81.0592 48.2202 81.2089 48.2837 81.3193 48.3965C81.4297 48.5092 81.4917 48.662 81.4917 48.8213C81.4917 48.9806 81.4297 49.1334 81.3193 49.2461C81.2089 49.3589 81.0592 49.4224 80.9029 49.4228Z" fill="white"/>
<path d="M84.3635 51.7993H78.0725C77.916 51.7993 77.7659 51.7359 77.6552 51.6231C77.5446 51.5103 77.4824 51.3573 77.4824 51.1978C77.4824 51.0383 77.5446 50.8853 77.6552 50.7725C77.7659 50.6597 77.916 50.5963 78.0725 50.5963H84.3635C84.5198 50.5967 84.6696 50.6602 84.78 50.773C84.8904 50.8857 84.9524 51.0385 84.9524 51.1978C84.9524 51.3571 84.8904 51.5099 84.78 51.6227C84.6696 51.7354 84.5198 51.7989 84.3635 51.7993Z" fill="white"/>
</g>
<defs>
<clipPath id="clip0_203_260">
<rect width="234" height="155" fill="white"/>
</clipPath>
</defs>
</svg>
