<svg width="255" height="177" viewBox="0 0 255 177" fill="none" xmlns="http://www.w3.org/2000/svg">
<g clip-path="url(#clip0_203_71)">
<path d="M117.594 37.7598H54.6888C54.3799 37.7595 54.0838 37.6465 53.8655 37.4458C53.6471 37.245 53.5242 36.9728 53.5239 36.6888V22.3433C53.5242 22.0594 53.6471 21.7872 53.8655 21.5864C54.0838 21.3856 54.3799 21.2727 54.6888 21.2724H117.594C117.903 21.2727 118.199 21.3856 118.417 21.5864C118.636 21.7872 118.759 22.0594 118.759 22.3433V36.6888C118.759 36.9728 118.636 37.245 118.417 37.4458C118.199 37.6465 117.903 37.7595 117.594 37.7598ZM54.6888 21.7007C54.5035 21.7009 54.3258 21.7687 54.1948 21.8892C54.0637 22.0096 53.99 22.173 53.9898 22.3433V36.6888C53.99 36.8592 54.0637 37.0225 54.1948 37.143C54.3258 37.2635 54.5035 37.3312 54.6888 37.3314H117.594C117.779 37.3312 117.957 37.2635 118.088 37.143C118.219 37.0225 118.293 36.8592 118.293 36.6888V22.3433C118.293 22.173 118.219 22.0096 118.088 21.8892C117.957 21.7687 117.779 21.7009 117.594 21.7008L54.6888 21.7007Z" fill="#3F3D56"/>
<path d="M64.463 33.3281C67.0837 33.3281 69.2082 31.375 69.2082 28.9656C69.2082 26.5563 67.0837 24.6032 64.463 24.6032C61.8423 24.6032 59.7177 26.5563 59.7177 28.9656C59.7177 31.375 61.8423 33.3281 64.463 33.3281Z" fill="white"/>
<path d="M75.4222 26.0573C75.2124 26.0573 75.0113 26.1339 74.863 26.2703C74.7146 26.4066 74.6313 26.5916 74.6313 26.7844C74.6313 26.9772 74.7146 27.1622 74.863 27.2985C75.0113 27.4349 75.2124 27.5115 75.4222 27.5115H112.706C112.916 27.5115 113.117 27.4349 113.265 27.2985C113.414 27.1622 113.497 26.9772 113.497 26.7844C113.497 26.5916 113.414 26.4066 113.265 26.2703C113.117 26.1339 112.916 26.0573 112.706 26.0573H75.4222Z" fill="#E6E6E6"/>
<path d="M75.4222 30.4198C75.2124 30.4198 75.0113 30.4964 74.863 30.6328C74.7146 30.7691 74.6313 30.9541 74.6313 31.1469C74.6313 31.3397 74.7146 31.5247 74.863 31.661C75.0113 31.7974 75.2124 31.874 75.4222 31.874H91.4656C91.5696 31.8741 91.6726 31.8555 91.7687 31.819C91.8648 31.7825 91.9522 31.729 92.0258 31.6615C92.0994 31.5939 92.1577 31.5137 92.1976 31.4254C92.2374 31.3371 92.2579 31.2425 92.2579 31.1469C92.2579 31.0513 92.2374 30.9566 92.1976 30.8683C92.1577 30.78 92.0994 30.6998 92.0258 30.6323C91.9522 30.5648 91.8648 30.5112 91.7687 30.4748C91.6726 30.4383 91.5696 30.4196 91.4656 30.4198H75.4222Z" fill="#E6E6E6"/>
<path d="M90.2844 88.895H62.3264C62.0176 88.8947 61.7215 88.7817 61.5031 88.581C61.2847 88.3802 61.1619 88.108 61.1615 87.8241V61.0555C61.1619 60.7716 61.2847 60.4994 61.5031 60.2986C61.7215 60.0978 62.0176 59.9849 62.3264 59.9845H90.2844C90.5932 59.9849 90.8893 60.0978 91.1077 60.2986C91.3261 60.4994 91.4489 60.7716 91.4493 61.0555V87.8241C91.4489 88.108 91.3261 88.3802 91.1077 88.581C90.8893 88.7817 90.5932 88.8947 90.2844 88.895ZM62.3264 60.4129C62.1411 60.4131 61.9634 60.4809 61.8324 60.6013C61.7014 60.7218 61.6277 60.8851 61.6275 61.0555V87.8241C61.6277 87.9944 61.7014 88.1577 61.8324 88.2782C61.9634 88.3987 62.1411 88.4664 62.3264 88.4666H90.2844C90.4697 88.4664 90.6474 88.3987 90.7784 88.2782C90.9094 88.1577 90.9831 87.9944 90.9833 87.8241V61.0555C90.9831 60.8851 90.9094 60.7218 90.7784 60.6013C90.6474 60.4809 90.4697 60.4131 90.2844 60.4129H62.3264Z" fill="#3F3D56"/>
<path d="M68.2837 65.5047C68.074 65.5047 67.8728 65.5813 67.7245 65.7176C67.5762 65.854 67.4928 66.0389 67.4928 66.2318C67.4928 66.4246 67.5762 66.6095 67.7245 66.7459C67.8728 66.8823 68.074 66.9589 68.2837 66.9589H84.3271C84.5369 66.9589 84.738 66.8823 84.8863 66.7459C85.0347 66.6095 85.118 66.4246 85.118 66.2318C85.118 66.0389 85.0347 65.854 84.8863 65.7176C84.738 65.5813 84.5369 65.5047 84.3271 65.5047H68.2837Z" fill="#E6E6E6"/>
<path d="M68.2837 69.7885C68.1797 69.7883 68.0767 69.807 67.9806 69.8435C67.8845 69.8799 67.7971 69.9335 67.7236 70.001C67.65 70.0685 67.5916 70.1487 67.5517 70.237C67.5119 70.3253 67.4914 70.42 67.4914 70.5156C67.4914 70.6112 67.5119 70.7058 67.5517 70.7941C67.5916 70.8824 67.65 70.9626 67.7236 71.0302C67.7971 71.0977 67.8845 71.1512 67.9806 71.1877C68.0767 71.2242 68.1797 71.2428 68.2837 71.2427H84.3271C84.5369 71.2427 84.738 71.1661 84.8863 71.0297C85.0347 70.8934 85.118 70.7084 85.118 70.5156C85.118 70.3228 85.0347 70.1378 84.8863 70.0015C84.738 69.8651 84.5369 69.7885 84.3271 69.7885H68.2837Z" fill="#E6E6E6"/>
<path d="M76.3054 83.3748C75.3209 83.3748 74.3584 83.1064 73.5397 82.6035C72.7211 82.1006 72.083 81.3859 71.7062 80.5496C71.3294 79.7133 71.2308 78.7931 71.4229 77.9053C71.615 77.0175 72.0891 76.2021 72.7854 75.562C73.4816 74.9219 74.3686 74.4861 75.3343 74.3095C76.2999 74.1329 77.3009 74.2235 78.2105 74.5699C79.1202 74.9163 79.8976 75.5029 80.4447 76.2555C80.9917 77.0082 81.2836 77.893 81.2836 78.7982C81.2821 80.0116 80.7572 81.1749 79.8239 82.0328C78.8906 82.8908 77.6253 83.3734 76.3054 83.3748Z" fill="white"/>
<path d="M136.084 0H164.042C164.351 0.000333399 164.647 0.113272 164.866 0.314042C165.084 0.514812 165.207 0.78702 165.207 1.07095V27.8395C165.207 28.1234 165.084 28.3956 164.866 28.5964C164.647 28.7972 164.351 28.9101 164.042 28.9105H136.084C135.775 28.9101 135.479 28.7972 135.261 28.5964C135.043 28.3956 134.92 28.1234 134.919 27.8395V1.07095C134.92 0.78702 135.043 0.514812 135.261 0.314042C135.479 0.113272 135.775 0.000333399 136.084 0ZM164.042 28.4821C164.228 28.4819 164.405 28.4141 164.536 28.2937C164.667 28.1732 164.741 28.0099 164.741 27.8395V1.07095C164.741 0.900589 164.667 0.737256 164.536 0.61679C164.405 0.496325 164.228 0.428566 164.042 0.42838H136.084C135.899 0.428566 135.721 0.496325 135.59 0.61679C135.459 0.737256 135.385 0.900589 135.385 1.07095V27.8395C135.385 28.0099 135.459 28.1732 135.59 28.2937C135.721 28.4141 135.899 28.4819 136.084 28.4821H164.042Z" fill="#3F3D56"/>
<path d="M158.085 23.3903C158.295 23.3903 158.496 23.3137 158.644 23.1773C158.792 23.041 158.876 22.856 158.876 22.6632C158.876 22.4704 158.792 22.2854 158.644 22.1491C158.496 22.0127 158.295 21.9361 158.085 21.9361H142.041C141.832 21.9361 141.631 22.0127 141.482 22.1491C141.334 22.2854 141.251 22.4704 141.251 22.6632C141.251 22.856 141.334 23.041 141.482 23.1773C141.631 23.3137 141.832 23.3903 142.041 23.3903H158.085Z" fill="#E6E6E6"/>
<path d="M158.085 19.1065C158.295 19.1065 158.496 19.0299 158.644 18.8935C158.792 18.7572 158.876 18.5722 158.876 18.3794C158.876 18.1866 158.792 18.0016 158.644 17.8653C158.496 17.7289 158.295 17.6523 158.085 17.6523H142.041C141.832 17.6523 141.631 17.7289 141.482 17.8653C141.334 18.0016 141.251 18.1866 141.251 18.3794C141.251 18.5722 141.334 18.7572 141.482 18.8935C141.631 19.0299 141.832 19.1065 142.041 19.1065H158.085Z" fill="#E6E6E6"/>
<path d="M150.063 5.52016C151.048 5.52016 152.01 5.78858 152.829 6.29147C153.648 6.79436 154.286 7.50913 154.662 8.3454C155.039 9.18168 155.138 10.1019 154.946 10.9897C154.754 11.8775 154.279 12.6929 153.583 13.333C152.887 13.973 152 14.4089 151.034 14.5855C150.069 14.7621 149.068 14.6715 148.158 14.3251C147.248 13.9787 146.471 13.3921 145.924 12.6395C145.377 11.8868 145.085 11.002 145.085 10.0968C145.086 8.88343 145.611 7.72014 146.545 6.86215C147.478 6.00416 148.743 5.52154 150.063 5.52016Z" fill="white"/>
<path d="M53.8831 55.38C58.8304 51.8573 64.6106 49.4551 70.7555 48.3679C76.9493 47.2829 83.3362 47.5846 89.3764 49.2476C92.4127 50.0787 95.33 51.2408 98.066 52.7091C100.854 54.2073 103.373 56.0517 105.797 58.0045C108.252 59.9828 110.626 62.049 113.189 63.9114C120.507 69.2888 129.591 72.2267 138.959 72.2456C139.733 72.2467 140.506 72.2271 141.279 72.1868C141.698 72.1656 141.701 71.5636 141.279 71.5849C131.73 72.0683 122.3 69.4487 114.64 64.1846C111.984 62.3583 109.558 60.2702 107.082 58.2468C104.681 56.2851 102.216 54.3768 99.4924 52.8007C92.8301 48.942 85.0794 46.9723 77.2072 47.1372C69.3351 47.3022 61.69 49.5945 55.2259 53.7283C54.6113 54.1212 54.0109 54.5318 53.4202 54.9545C53.0881 55.1921 53.5544 55.6152 53.8831 55.38Z" fill="#3F3D56"/>
<path d="M53.5356 58.2891C55.4145 58.2891 56.9377 56.8888 56.9377 55.1614C56.9377 53.434 55.4145 52.0337 53.5356 52.0337C51.6566 52.0337 50.1334 53.434 50.1334 55.1614C50.1334 56.8888 51.6566 58.2891 53.5356 58.2891Z" fill="#3F3D56"/>
<path d="M180.102 99.8169C181.981 99.8169 183.504 98.4165 183.504 96.6891C183.504 94.9617 181.981 93.5614 180.102 93.5614C178.223 93.5614 176.7 94.9617 176.7 96.6891C176.7 98.4165 178.223 99.8169 180.102 99.8169Z" fill="#3F3D56"/>
<path d="M197.925 78.8721H142.413C142.104 78.8717 141.808 78.7588 141.589 78.558C141.371 78.3573 141.248 78.0851 141.248 77.8011V51.2468C141.248 50.9628 141.371 50.6906 141.589 50.4899C141.808 50.2891 142.104 50.1761 142.413 50.1758H197.925C198.234 50.1761 198.53 50.2891 198.749 50.4898C198.967 50.6906 199.09 50.9628 199.09 51.2468V77.8011C199.09 78.085 198.967 78.3573 198.749 78.558C198.53 78.7588 198.234 78.8717 197.925 78.8721ZM142.413 50.6042C142.227 50.6044 142.05 50.6721 141.919 50.7926C141.787 50.9131 141.714 51.0764 141.714 51.2468V77.8011C141.714 77.9715 141.787 78.1348 141.919 78.2553C142.05 78.3757 142.227 78.4435 142.413 78.4437H197.925C198.111 78.4435 198.288 78.3757 198.419 78.2553C198.55 78.1348 198.624 77.9715 198.624 77.8011V51.2468C198.624 51.0764 198.55 50.9131 198.419 50.7926C198.288 50.6721 198.111 50.6044 197.925 50.6042H142.413Z" fill="#3F3D56"/>
<path d="M151.721 63.9451C154.342 63.9451 156.466 61.9919 156.466 59.5826C156.466 57.1733 154.342 55.2201 151.721 55.2201C149.1 55.2201 146.976 57.1733 146.976 59.5826C146.976 61.9919 149.1 63.9451 151.721 63.9451Z" fill="white"/>
<path d="M162.68 56.6743C162.576 56.6741 162.473 56.6928 162.377 56.7292C162.281 56.7657 162.193 56.8192 162.12 56.8868C162.046 56.9543 161.988 57.0345 161.948 57.1228C161.908 57.2111 161.888 57.3058 161.888 57.4014C161.888 57.497 161.908 57.5916 161.948 57.6799C161.988 57.7682 162.046 57.8484 162.12 57.916C162.193 57.9835 162.281 58.037 162.377 58.0735C162.473 58.1099 162.576 58.1286 162.68 58.1284H192.571C192.781 58.1284 192.982 58.0518 193.131 57.9155C193.279 57.7791 193.362 57.5942 193.362 57.4014C193.362 57.2085 193.279 57.0236 193.131 56.8872C192.982 56.7509 192.781 56.6743 192.571 56.6743H162.68Z" fill="#E6E6E6"/>
<path d="M162.68 61.0368C162.576 61.0366 162.473 61.0553 162.377 61.0917C162.281 61.1282 162.193 61.1817 162.12 61.2493C162.046 61.3168 161.988 61.397 161.948 61.4853C161.908 61.5736 161.888 61.6683 161.888 61.7639C161.888 61.8594 161.908 61.9541 161.948 62.0424C161.988 62.1307 162.046 62.2109 162.12 62.2784C162.193 62.346 162.281 62.3995 162.377 62.436C162.473 62.4724 162.576 62.4911 162.68 62.4909H178.723C178.933 62.4909 179.134 62.4143 179.283 62.278C179.431 62.1416 179.514 61.9567 179.514 61.7639C179.514 61.571 179.431 61.3861 179.283 61.2497C179.134 61.1134 178.933 61.0368 178.723 61.0368H162.68Z" fill="#E6E6E6"/>
<path d="M148.081 68.0111C147.479 68.0111 146.99 68.3373 146.99 68.7382C146.99 69.1391 147.479 69.4653 148.081 69.4653H192.129C192.73 69.4653 193.22 69.1391 193.22 68.7382C193.22 68.3373 192.73 68.0111 192.129 68.0111H148.081Z" fill="#E6E6E6"/>
<path d="M148.081 72.3736C147.479 72.3736 146.99 72.6998 146.99 73.1007C146.99 73.5015 147.479 73.8278 148.081 73.8278H192.129C192.73 73.8278 193.22 73.5015 193.22 73.1007C193.22 72.6998 192.73 72.3736 192.129 72.3736H148.081Z" fill="#E6E6E6"/>
<path d="M137.95 99.601C141.082 98.352 144.579 99.4409 147.53 100.592C149.051 101.185 150.555 101.818 152.128 102.286C153.452 102.679 154.807 102.974 156.182 103.169C158.94 103.558 161.745 103.573 164.509 103.216C167.286 102.86 169.993 102.136 172.545 101.068C175.083 100.01 177.428 98.6003 179.5 96.8873C179.764 96.6685 180.022 96.4446 180.275 96.2157C180.577 95.9442 180.114 95.5187 179.812 95.7901C177.818 97.5778 175.528 99.0639 173.028 100.193C170.538 101.319 167.882 102.103 165.145 102.522C162.399 102.947 159.598 102.992 156.838 102.653C155.461 102.482 154.101 102.21 152.771 101.841C151.243 101.384 149.744 100.849 148.282 100.238C145.302 99.0614 141.992 97.9095 138.718 98.7207C138.343 98.8161 137.976 98.9366 137.62 99.0813C137.234 99.235 137.567 99.7537 137.95 99.601Z" fill="#3F3D56"/>
<path d="M136.74 106.983H110.513L116.685 97.1543C116.796 96.9782 116.955 96.8319 117.147 96.7302C117.338 96.6285 117.555 96.5749 117.777 96.5749C117.998 96.5749 118.215 96.6285 118.407 96.7302C118.599 96.8319 118.758 96.9782 118.868 97.1543L121.505 101.353L125.988 94.214C126.127 93.9935 126.326 93.8103 126.566 93.683C126.806 93.5557 127.078 93.4886 127.355 93.4886C127.632 93.4886 127.904 93.5557 128.144 93.683C128.384 93.8103 128.583 93.9935 128.721 94.214L136.74 106.983Z" fill="white"/>
<path d="M136.765 106.98H108.807C108.498 106.98 108.202 106.867 107.984 106.666C107.765 106.465 107.642 106.193 107.642 105.909V91.5635C107.642 91.2796 107.765 91.0074 107.984 90.8066C108.202 90.6058 108.498 90.4929 108.807 90.4926H136.765C137.074 90.4929 137.37 90.6058 137.588 90.8066C137.807 91.0074 137.929 91.2796 137.93 91.5635V105.909C137.929 106.193 137.807 106.465 137.588 106.666C137.37 106.867 137.074 106.98 136.765 106.98ZM108.807 90.921C108.622 90.9211 108.444 90.9889 108.313 91.1094C108.182 91.2298 108.108 91.3932 108.108 91.5635V105.909C108.108 106.079 108.182 106.243 108.313 106.363C108.444 106.484 108.622 106.551 108.807 106.552H136.765C136.95 106.551 137.128 106.484 137.259 106.363C137.39 106.243 137.464 106.079 137.464 105.909V91.5635C137.464 91.3932 137.39 91.2298 137.259 91.1094C137.128 90.9889 136.95 90.9211 136.765 90.921H108.807Z" fill="#3F3D56"/>
<path d="M191.601 94.3545L186.617 96.6809C184.839 97.5113 183.122 97.3694 182.465 95.6378C182.308 95.2258 182.251 94.7875 182.295 94.3531C182.34 93.9186 182.487 93.4982 182.725 93.1206C182.963 92.743 183.287 92.4171 183.674 92.1653C184.062 91.9134 184.505 91.7416 184.971 91.6615L189.707 90.8486L209.992 84.6615L222.28 76.6513L226.784 83.2489L212.586 90.2922L191.601 94.3545Z" fill="#FFB8B8"/>
<path d="M214.864 171.577L211.051 170.993L211.475 164.372H215.499L214.864 171.577Z" fill="#FFB8B8"/>
<path d="M251.869 165.11L248.179 166.168L245.312 160.082L248.904 158.415L251.869 165.11Z" fill="#FFB8B8"/>
<path d="M249.815 159.309L245.154 161.061L222.913 134.187L215.923 165.735L211.263 164.956C208.273 137.758 205.836 110.016 208.827 96.8953L226.09 96.2137L233.928 119.193L237.741 134.772L249.815 159.309Z" fill="#2F2E41"/>
<path d="M214.654 176.932C213.957 177.069 213.23 176.998 212.58 176.729L210.315 175.792C208.416 175.702 207.123 176.05 206.065 174.782C205.767 174.419 205.58 173.99 205.523 173.538C205.466 173.086 205.542 172.629 205.742 172.213C205.94 171.796 206.256 171.435 206.657 171.167C207.057 170.899 207.528 170.734 208.021 170.689L211.132 168.887L211.295 170.238C212.717 170.978 214.405 170.658 216.194 169.937L217.17 173.079C217.296 173.484 217.33 173.909 217.27 174.327C217.21 174.744 217.057 175.146 216.821 175.507C216.586 175.869 216.271 176.181 215.899 176.426C215.526 176.671 215.102 176.843 214.654 176.932Z" fill="#2F2E41"/>
<path d="M253.379 170.487C252.768 170.825 252.056 170.975 251.346 170.914L248.873 170.704C247.045 171.187 245.945 171.902 244.496 171.017C244.086 170.763 243.757 170.413 243.544 170.003C243.331 169.593 243.241 169.138 243.283 168.685C243.324 168.231 243.495 167.795 243.779 167.422C244.063 167.049 244.45 166.753 244.9 166.563L247.206 163.929L247.838 165.159C249.444 165.434 250.928 164.628 252.365 163.412L254.398 166.092C254.66 166.438 254.842 166.829 254.933 167.242C255.024 167.655 255.022 168.081 254.926 168.493C254.831 168.905 254.644 169.295 254.378 169.638C254.112 169.981 253.772 170.27 253.379 170.487Z" fill="#2F2E41"/>
<path d="M219.736 68.561C223.947 68.561 227.361 65.4223 227.361 61.5505C227.361 57.6787 223.947 54.54 219.736 54.54C215.524 54.54 212.11 57.6787 212.11 61.5505C212.11 65.4223 215.524 68.561 219.736 68.561Z" fill="#FFB8B8"/>
<path d="M229.056 76.3506L219.1 74.4032L217.829 66.8085L224.819 65.4453L229.056 76.3506Z" fill="#FFB8B8"/>
<path d="M226.302 97.1874H208.509L212.52 87.9303C212.228 84.7451 213.697 82.4023 215.798 80.3627L218.465 74.2084C222.773 71.6017 226.021 71.7964 229.48 75.1821C233.58 80.5198 230.742 88.5437 226.302 97.1874Z" fill="white"/>
<path d="M218.253 116.856L217.747 121.973C217.566 123.8 216.523 125.061 214.578 124.652C214.116 124.555 213.681 124.367 213.305 124.101C212.928 123.835 212.619 123.497 212.397 123.111C212.176 122.725 212.048 122.3 212.022 121.864C211.996 121.428 212.073 120.992 212.247 120.586L214.017 116.466L219.1 97.3821L218.253 83.5558H226.726L225.667 98.3558L218.253 116.856Z" fill="#FFB8B8"/>
<path d="M227.361 83.9453H217.618L218.301 78.1017C218.346 77.091 218.8 76.1322 219.574 75.4137C220.349 74.6952 221.387 74.2688 222.486 74.2183C223.068 74.1915 223.651 74.2712 224.199 74.4527C224.748 74.6342 225.252 74.9139 225.682 75.2757C226.112 75.6374 226.46 76.074 226.706 76.5602C226.951 77.0464 227.09 77.5725 227.112 78.1081L227.361 83.9453Z" fill="white"/>
<path d="M229.174 54.3421C230.757 54.3421 232.04 53.1623 232.04 51.707C232.04 50.2517 230.757 49.0719 229.174 49.0719C227.591 49.0719 226.307 50.2517 226.307 51.707C226.307 53.1623 227.591 54.3421 229.174 54.3421Z" fill="#2F2E41"/>
<path d="M226.22 51.0619C226.267 50.3934 226.59 49.7664 227.122 49.3089C227.654 48.8513 228.356 48.5975 229.085 48.5991C229.026 48.5922 228.967 48.5838 228.907 48.5802C228.148 48.5358 227.402 48.77 226.831 49.2315C226.261 49.6929 225.913 50.3437 225.864 51.0409C225.815 51.738 226.07 52.4245 226.571 52.9493C227.073 53.474 227.781 53.7943 228.539 53.8395C228.599 53.8431 228.659 53.8416 228.718 53.8418C227.995 53.7576 227.335 53.4232 226.87 52.9067C226.406 52.3902 226.174 51.7305 226.22 51.0619Z" fill="#2F2E41"/>
<path d="M226.204 52.1872C223.648 50.2376 216.316 52.7154 215.843 54.0261C212.386 54.4592 209.769 56.3133 209.769 59.6101C211.824 60.3841 214.161 60.2887 216.688 59.6101C220.716 62.6277 220.992 66.4211 218.542 70.7782L221.556 70.8336L225.291 65.8146L225.47 70.9056L232.377 70.7782V63.4825C232.4 61.0568 231.792 58.6611 230.606 56.4944C229.529 54.5718 227.859 53.4492 226.204 52.1872Z" fill="#2F2E41"/>
<path d="M219.772 65.077C220.529 65.077 221.142 64.2872 221.142 63.3128C221.142 62.3385 220.529 61.5487 219.772 61.5487C219.015 61.5487 218.401 62.3385 218.401 63.3128C218.401 64.2872 219.015 65.077 219.772 65.077Z" fill="#FFB8B8"/>
<path d="M47.3115 65.5515C47.3115 65.5515 48.1366 52.4223 52.4199 55.4056C56.7033 58.3889 50.5493 66.7691 50.5493 66.7691L47.3115 65.5515Z" fill="#FFB9B9"/>
<path d="M31.3755 104.496C31.3755 104.496 40.8903 114.316 35.5669 114.991C30.2435 115.666 28.1495 105.74 28.1495 105.74L31.3755 104.496Z" fill="#FFB9B9"/>
<path d="M18.9594 58.0123C20.1536 58.3012 21.2284 58.9081 22.0487 59.7567C22.8689 60.6053 23.3982 61.6577 23.57 62.782L26.5966 82.5864L30.8395 98.384C30.8395 98.384 32.9609 100.139 32.1123 101.114C31.2638 102.09 33.173 106.185 33.173 106.185L27.8694 107.746C27.8694 107.746 27.233 103.65 26.1723 103.455C25.2401 103.283 14.8049 77.6556 12.2896 71.4472C11.9428 70.5911 11.7465 70.1043 11.7465 70.1043C11.7465 70.1043 12.1708 57.0371 18.9594 58.0123Z" fill="#575A89"/>
<path d="M19.9281 161.29L23.1858 166.597C25.7085 171.549 23.4667 172.448 17.2813 169.994L15.8714 163.727L19.9281 161.29Z" fill="#FFB9B9"/>
<path d="M21.5718 168.344C21.5718 168.344 23.1182 166.029 23.6776 166.417C24.2369 166.804 26.5439 168.483 26.5439 168.483L29.5489 171.129C29.5489 171.129 39.7015 172.116 33.2503 175.386C26.7991 178.656 23.234 175.945 23.234 175.945C23.234 175.945 14.1985 176.377 14.3443 174.059C14.49 171.742 17.404 168.075 17.404 168.075C17.404 168.075 21.0767 170.339 21.5718 168.344Z" fill="#2F2E41"/>
<path d="M5.47252 101.299L8.52654 135.272C8.52654 135.272 8.62834 155.581 11.886 159.512C15.1436 163.443 15.2453 165.408 15.2453 165.408L21.9642 162.226C21.9642 162.226 18.503 156.924 19.2156 156.112C19.6548 155.597 19.9674 155.001 20.1318 154.365L18.2994 133.401L21.7606 96.9007L5.47252 101.299Z" fill="#2F2E41"/>
<path d="M13.82 161.29L10.9696 168.216L4.50528 165.731L7.91566 160.541L13.82 161.29Z" fill="#FFB9B9"/>
<path d="M9.0648 165.883C9.0648 165.883 11.4893 164.49 11.7923 165.047C12.0954 165.605 13.3076 167.973 13.3076 167.973L14.6714 171.455C14.6714 171.455 23.0054 176.331 15.8836 176.61C8.76174 176.888 6.9434 173.127 6.9434 173.127C6.9434 173.127 -1.08762 169.923 0.12462 167.973C1.33686 166.022 5.57965 164 5.57965 164C5.57965 164 7.70105 167.416 9.0648 165.883Z" fill="#2F2E41"/>
<path d="M31.3298 101.393L32.9586 132.652C32.9586 132.652 18.0958 160.916 16.467 161.665C15.9816 161.895 15.5514 162.212 15.2017 162.598C14.852 162.984 14.5899 163.43 14.431 163.911L5.47252 161.852L9.54455 155.862L18.503 135.834C18.503 135.834 19.9282 135.272 20.3354 133.401C20.7426 131.529 21.557 131.529 19.521 131.154C17.485 130.78 17.485 128.908 17.485 128.908L10.7661 100.457L31.3298 101.393Z" fill="#2F2E41"/>
<path d="M32.0391 46.0644C32.7595 41.9828 29.7445 38.137 25.3047 37.4746C20.865 36.8123 16.6818 39.5842 15.9613 43.6658C15.2409 47.7474 18.2559 51.5932 22.6957 52.2556C27.1354 52.9179 31.3186 50.1461 32.0391 46.0644Z" fill="#FFB9B9"/>
<path d="M16.7724 45.333C16.7724 45.333 16.1616 54.8792 15.3472 55.8151C14.5328 56.7509 23.8984 56.5638 23.8984 56.5638C23.8984 56.5638 23.2876 48.5151 23.8984 47.7664C24.5092 47.0177 16.7724 45.333 16.7724 45.333Z" fill="#FFB9B9"/>
<path d="M31.9399 103.452C31.9399 103.452 8.93293 101.581 4.6584 103.452C4.6584 103.452 6.23198 98.0855 5.82538 97.5248C5.52968 97.1146 6.34551 81.8277 6.08941 73.0094C5.94419 68.0335 4.69536 63.1741 8.32568 59.4798C9.56131 58.2249 10.9395 57.1715 12.3943 56.6569C12.3943 56.6569 11.9877 53.1009 14.0233 52.914C14.0233 52.914 21.7618 52.164 24.6106 54.4116C25.5215 55.1253 26.0944 57.3001 26.1551 59.1739C24.7453 65.548 25.2443 72.621 26.538 79.9587C26.6172 80.4247 26.7043 80.8932 26.7914 81.3616C28.1643 88.6386 30.2396 96.1413 31.9399 103.452Z" fill="#575A89"/>
<path d="M19.7456 47.0713C20.4344 47.0335 21.1069 47.2475 21.7908 47.331C24.2379 47.6297 26.7835 45.9972 27.3238 43.7828C27.3671 43.4879 27.4627 43.2016 27.6068 42.9351C27.9834 42.3699 28.8411 42.2621 29.5482 42.3921C30.2552 42.522 30.9255 42.8263 31.6455 42.861C32.7573 42.9146 33.8247 42.2854 34.4172 41.4189C34.9771 40.5249 35.2152 39.4911 35.0975 38.4652L34.5645 38.9795C34.3479 38.5582 34.2643 38.0896 34.3232 37.6268C34.0407 37.5577 33.7437 37.5563 33.4605 37.623C33.1774 37.6896 32.9176 37.8219 32.706 38.0073C32.236 38.0532 32.5907 37.2059 32.2415 36.913C32.0717 36.8171 31.8693 36.7823 31.6733 36.8153C30.6735 36.8241 29.8647 36.1211 29.0769 35.5552C27.7118 34.5768 26.1155 33.9073 24.4169 33.601C23.288 33.3986 22.0874 33.3661 21.0168 33.7525C20.1525 34.1092 19.3724 34.6179 18.7206 35.25C17.0444 36.7318 15.56 38.4728 14.8627 40.5123C14.2958 42.1828 14.2797 43.9703 14.8165 45.6492C15.0975 46.5211 15.9444 49.5071 17.1841 49.5766C18.7419 49.664 17.8066 47.1777 19.7456 47.0713Z" fill="#2F2E41"/>
<path d="M23.1166 58.9312L26.0344 59.2186C26.0344 59.2186 28.8985 64.3272 28.6905 65.3927C28.4825 66.4583 28.0296 65.8114 29.3187 67.5162C30.6078 69.221 34.2658 73.6276 34.7188 74.2745C35.1718 74.9214 47.5209 66.2593 46.7532 63.6639C46.7532 63.6639 50.6534 66.2362 52.3243 66.5786C52.3243 66.5786 39.5976 81.9233 37.824 83.8871C36.0505 85.8509 34.6232 85.4476 32.1859 84.2832C29.7486 83.1189 17.4184 71.5051 17.4184 71.5051L23.1166 58.9312Z" fill="#575A89"/>
<path opacity="0.1" d="M26.7914 81.3616L16.6503 72.0385L19.2166 71.269L26.538 79.9587C26.6172 80.4247 26.7043 80.8932 26.7914 81.3616Z" fill="black"/>
</g>
<defs>
<clipPath id="clip0_203_71">
<rect width="255" height="177" fill="white"/>
</clipPath>
</defs>
</svg>
