<svg width="206" height="155" viewBox="0 0 206 155" fill="none" xmlns="http://www.w3.org/2000/svg">
<g clip-path="url(#clip0_203_39)">
<path d="M124.912 46.7079C125.168 46.7196 125.422 46.653 125.638 46.5174C125.855 46.3818 126.025 46.1836 126.123 45.9496C126.222 45.7157 126.246 45.4573 126.192 45.2096C126.137 44.9618 126.007 44.7366 125.818 44.5645C125.787 44.4405 125.764 44.3515 125.733 44.2276C125.744 44.2006 125.755 44.1737 125.767 44.1467C126.919 41.4319 130.823 41.4507 131.965 44.1695C132.979 46.5826 134.27 48.9998 134.588 51.5512C134.728 52.679 134.669 53.8223 134.413 54.9301C136.794 49.7968 138.031 44.2175 138.039 38.5706C138.039 37.1535 137.959 35.7376 137.8 34.3293C137.668 33.1748 137.485 32.0286 137.252 30.8905C135.975 24.7157 133.235 18.9281 129.256 14.003C127.33 12.9645 125.773 11.3676 124.794 9.42741C124.439 8.72997 124.188 7.98546 124.049 7.21703C124.267 7.24519 124.869 3.97535 124.705 3.77473C125.007 3.3207 125.549 3.09501 125.88 2.65197C127.524 0.448549 129.79 0.83328 130.973 3.82755C133.499 5.08782 133.524 7.17788 131.974 9.18805C130.987 10.4669 130.852 12.1974 129.986 13.5665C130.075 13.6792 130.168 13.7883 130.257 13.9009C131.885 15.9693 133.303 18.1903 134.492 20.5321C134.156 17.9348 134.653 14.8057 135.499 12.7887C136.463 10.4905 138.27 8.55498 139.861 6.5682C141.772 4.18177 145.691 5.22326 146.028 8.24843C146.031 8.27773 146.034 8.30701 146.038 8.33628C145.801 8.46803 145.57 8.60789 145.343 8.75584C145.059 8.9436 144.839 9.21187 144.711 9.52549C144.584 9.83912 144.555 10.1835 144.629 10.5135C144.703 10.8434 144.876 11.1436 145.126 11.3747C145.375 11.6058 145.69 11.757 146.028 11.8085L146.062 11.8137C145.978 12.6555 145.829 13.4898 145.617 14.3092C147.658 22.1105 143.252 24.9519 136.96 25.0795C136.821 25.1499 136.685 25.2203 136.546 25.2872C137.741 28.6334 138.491 32.119 138.776 35.6562C138.937 37.7431 138.928 39.8395 138.747 41.9248L138.758 41.8509C139.214 39.532 140.466 37.4397 142.302 35.9272C145.029 33.7133 148.881 32.8981 151.823 31.1185C153.239 30.2619 155.054 31.3689 154.807 32.9915C154.803 33.0174 154.799 33.0433 154.795 33.0693C154.356 33.2458 153.929 33.4491 153.516 33.6781C153.28 33.8099 153.049 33.9498 152.822 34.0977C152.538 34.2855 152.318 34.5537 152.19 34.8674C152.063 35.181 152.034 35.5254 152.108 35.8553C152.182 36.1853 152.355 36.4855 152.605 36.7166C152.854 36.9477 153.169 37.0989 153.507 37.1504L153.541 37.1556C153.566 37.1591 153.588 37.1627 153.613 37.1662C152.863 38.9344 151.812 40.562 150.504 41.9776C149.227 48.7878 143.746 49.434 137.882 47.4508H137.878C137.235 50.2137 136.303 52.9032 135.097 55.4757H125.161C125.125 55.3666 125.093 55.2539 125.061 55.1448C125.981 55.202 126.904 55.1476 127.81 54.9829C127.073 54.0889 126.336 53.1879 125.599 52.2939C125.582 52.2772 125.567 52.2595 125.552 52.2411C125.178 51.7835 124.801 51.3295 124.427 50.8719L124.427 50.8714C124.407 49.4688 124.57 48.0696 124.911 46.7081L124.912 46.7079Z" fill="#F2F2F2"/>
<path d="M156.814 21.5765C154.966 14.9194 169.868 9.21078 173.781 14.5717C174.325 13.8096 176.336 13.3466 177.258 13.5804C178.181 13.8142 178.957 14.3987 179.714 14.9645C180.755 15.7548 181.834 16.5731 182.472 17.7094C183.116 18.841 183.215 20.3841 182.349 21.366C181.663 22.1469 179.638 22.6519 178.607 22.8577C177.888 23.0027 177.282 23.1196 176.762 23.2037C176.289 22.5306 176.071 21.7144 176.147 20.8984C175.796 21.132 175.503 21.4392 175.287 21.7982C175.071 22.1571 174.938 22.5589 174.897 22.9746C174.883 23.1476 180.712 44.3441 180.712 44.3441C180.012 44.738 179.275 45.0652 178.512 45.3214C177.003 43.0413 175.847 40.5511 175.082 37.9332C174.906 39.6837 174.928 41.4481 175.148 43.1938C175.265 44.1726 175.433 45.1449 175.65 46.1069C168.723 47.5846 158.304 47.0983 153.772 40.8137C153.771 40.7877 153.77 40.7617 153.769 40.7356C153.766 40.4876 153.675 40.2484 153.513 40.0592C153.35 39.8699 153.127 39.7423 152.88 39.6983C152.633 39.6542 152.378 39.6964 152.159 39.8176C151.94 39.9388 151.77 40.1315 151.679 40.3627C151.569 40.64 151.468 40.88 151.378 41.0708C150.057 36.4042 151.765 31.0033 156.814 21.5765Z" fill="#2F2E41"/>
<path d="M145.026 133.185V133.403C145.018 133.33 145.018 133.257 145.026 133.185Z" fill="#2F2E41"/>
<path d="M151.81 95.5102C151.986 95.4631 152.166 95.4286 152.347 95.4072C152.139 95.4407 151.96 95.475 151.81 95.5102Z" fill="#2F2E41"/>
<path d="M151.653 95.5506C151.701 95.5371 151.754 95.5237 151.81 95.5102C151.758 95.524 151.707 95.5342 151.653 95.5506Z" fill="#2F2E41"/>
<path d="M201.77 154.999H176.379C176.017 154.713 175.765 154.313 175.666 153.866C175.567 153.418 175.627 152.951 175.836 152.542C176.529 150.97 175.17 149.533 175.17 149.533C174.709 148.999 174.388 148.36 174.236 147.674C174.084 146.988 174.106 146.275 174.3 145.599C174.973 143.277 172.336 136.723 172.336 136.723C172.336 136.723 170.915 145.186 169.174 154.999H145.027C144.622 154.318 144.409 153.543 144.409 152.753C144.409 151.964 144.622 151.188 145.027 150.507C146.434 148.149 145.027 147.697 145.027 147.697C145.027 147.697 143.619 145.058 145.027 143.142C146.434 141.226 145.027 133.403 145.027 133.403C145.08 133.749 145.481 133.12 146.098 131.801C147.038 129.795 148.474 126.187 149.924 121.999C150.962 119.01 152.007 115.72 152.881 112.505H152.883C153.112 111.66 153.33 110.823 153.535 109.993C153.935 108.367 154.279 106.786 154.54 105.302C155.106 102.105 155.293 99.3587 154.858 97.5727C154.498 96.0864 153.709 95.2667 152.347 95.4072C153.076 95.2877 154.145 95.1745 155.463 95.0676C155.7 95.0487 155.946 95.0298 156.201 95.0089C166.026 94.2752 187.106 93.8538 187.106 93.8538L193.563 105.281L201.74 119.756C201.74 119.756 201.517 139.174 201.77 154.999Z" fill="#2F2E41"/>
<path d="M174.669 44.4642L159.793 41.3457L156.84 47.2214L146.893 52.9125C146.893 52.9125 153.305 78.8205 153.268 82.4643C153.175 91.7154 138.198 112.454 149.511 110.858C160.824 109.263 163.122 102.58 166.753 103.637C170.029 104.59 174.028 108.829 176.706 105.797C179.383 102.765 180.326 106.266 182.019 106.387C182.824 106.445 182.339 102.559 184.364 106.508C186.388 110.457 197.123 105.141 193.485 101.545C187.425 95.5569 186.194 51.411 186.194 51.411L179.448 49.3597L174.669 44.4642Z" fill="#E6E6E6"/>
<path d="M146.612 138.551C147.21 137.847 147.506 136.94 147.437 136.023C147.368 135.106 146.94 134.252 146.244 133.642C146.101 133.521 145.947 133.411 145.785 133.314L148.273 121.25L142.523 117.849L140.923 134.739C140.57 135.433 140.458 136.224 140.607 136.987C140.755 137.75 141.155 138.443 141.744 138.958C142.082 139.248 142.475 139.469 142.899 139.609C143.324 139.749 143.772 139.805 144.218 139.774C144.665 139.743 145.101 139.625 145.501 139.427C145.901 139.23 146.258 138.956 146.551 138.622C146.572 138.598 146.592 138.575 146.612 138.551Z" fill="#A0616A"/>
<path d="M164.465 74.9618C164.429 74.574 163.928 74.3979 163.235 74.1547C162.538 73.9426 161.876 73.6327 161.268 73.2345C159.733 72.1381 160.337 70.9914 161.173 69.4066C161.336 69.0984 161.506 68.7777 161.665 68.4444C162.138 67.457 161.385 63.3839 159.423 56.3361C158.818 54.1664 158.82 52.634 158.403 51.6173C157.987 50.6006 157.153 50.0995 154.882 49.9947C152.136 49.8577 149.447 50.8023 147.404 52.6214C147.349 52.6696 147.292 52.722 147.237 52.7723C147.133 52.8688 147.031 52.9673 146.931 53.0679C145.043 54.9457 143.962 57.4726 143.915 60.1199L143.905 60.5706L143.436 82.104L142.119 101L140.303 127.03L141.648 127.095L147.014 127.359L147.665 127.391L149.21 120.988L151.068 113.285L151.751 110.455L153.87 101.675L154.858 97.5727L155.463 95.0676L155.709 94.0446L156.909 89.0721C156.937 88.9673 159.699 78.1985 162.882 76.3978C164.07 75.727 164.499 75.3371 164.465 74.9618Z" fill="#E6E6E6"/>
<path d="M200.187 138.423C199.517 137.786 199.124 136.916 199.092 135.997C199.061 135.078 199.394 134.183 200.02 133.503C200.149 133.367 200.29 133.242 200.44 133.128L196.656 121.398L202.003 117.407L205.429 134.029C205.856 134.682 206.053 135.456 205.988 136.23C205.923 137.005 205.601 137.737 205.071 138.311C204.767 138.635 204.401 138.897 203.994 139.081C203.587 139.265 203.147 139.368 202.7 139.385C202.253 139.401 201.807 139.33 201.387 139.176C200.968 139.022 200.583 138.788 200.255 138.487C200.232 138.466 200.21 138.444 200.187 138.423Z" fill="#A0616A"/>
<path d="M202.803 112.97C202.803 112.97 198.633 98.4691 199.905 96.8993C201.177 95.3294 197.42 95.0229 199.039 92.0993C200.658 89.1757 198.424 88.6867 198.424 88.6867L197.211 81.9647L195.044 65.4538L194.978 64.9628L194.348 60.1593C194.172 58.7873 193.717 57.4644 193.012 56.2699C192.307 55.0753 191.365 54.0336 190.243 53.2069C190.186 53.1636 190.128 53.1219 190.069 53.0803C189.802 52.8905 189.53 52.7146 189.251 52.5526C187.171 51.3396 184.728 50.881 182.342 51.2556C177.847 51.9475 179.246 53.6041 178.517 58.0423C177.332 65.2586 177.025 69.3871 177.602 70.3199C177.797 70.634 178.001 70.9345 178.196 71.223C179.2 72.712 179.926 73.7862 178.517 75.0416C177.956 75.5004 177.331 75.878 176.663 76.1631C176.001 76.4799 175.521 76.7072 175.528 77.0966C175.535 77.4739 176.003 77.8146 177.256 78.3548C178.775 79.0116 180.406 81.4945 181.741 84.0309C182.801 86.0754 183.746 88.1759 184.573 90.323L196.054 122.235L197.927 127.44L198.573 127.339L203.877 126.507L205.208 126.299L202.803 112.97Z" fill="#E6E6E6"/>
<path d="M168.393 41.1253C175.096 41.1253 180.529 35.7553 180.529 29.131C180.529 22.5068 175.096 17.1368 168.393 17.1368C161.69 17.1368 156.257 22.5068 156.257 29.131C156.257 35.7553 161.69 41.1253 168.393 41.1253Z" fill="#A0616A"/>
<path d="M150.19 22.5117C148.342 15.8546 163.244 10.146 167.157 15.507C167.701 14.7448 169.712 14.2818 170.634 14.5156C171.557 14.7494 172.333 15.334 173.09 15.8998C174.131 16.69 175.21 17.5083 175.848 18.6446C176.492 19.7762 176.591 21.3193 175.725 22.3013C175.039 23.0821 173.014 23.5872 171.983 23.7929C171.264 23.9379 170.658 24.0548 170.138 24.1389C169.665 23.4658 169.447 22.6496 169.523 21.8336C169.172 22.0672 168.879 22.3745 168.663 22.7334C168.447 23.0924 168.314 23.4941 168.273 23.9098C168.259 24.0828 174.088 45.2793 174.088 45.2793C173.388 45.6732 172.651 46.0005 171.888 46.2566C170.379 43.9765 169.223 41.4863 168.458 38.8684C168.282 40.6189 168.304 42.3833 168.524 44.129C168.641 45.1078 168.809 46.0802 169.026 47.0421C162.099 48.5198 151.68 48.0335 147.148 41.7489C147.147 41.7229 147.146 41.6969 147.145 41.6708C147.142 41.4228 147.051 41.1836 146.889 40.9944C146.726 40.8051 146.503 40.6776 146.256 40.6335C146.009 40.5894 145.754 40.6316 145.535 40.7528C145.316 40.874 145.146 41.0667 145.055 41.2979C144.945 41.5752 144.844 41.8152 144.754 42.0061C143.433 37.3394 145.142 31.9385 150.19 22.5117Z" fill="#2F2E41"/>
<path d="M90.0011 63.957C89.7448 63.9687 89.491 63.9022 89.2743 63.7665C89.0575 63.6309 88.8881 63.4327 88.7892 63.1987C88.6902 62.9648 88.6664 62.7064 88.7209 62.4587C88.7755 62.2109 88.9058 61.9857 89.0942 61.8136C89.1257 61.6896 89.1484 61.6006 89.1799 61.4767C89.1687 61.4497 89.1573 61.4228 89.1459 61.3958C87.9939 58.681 84.0896 58.6998 82.9474 61.4186C81.9336 63.8317 80.6429 66.2489 80.3251 68.8003C80.1851 69.9281 80.2441 71.0714 80.4996 72.1792C78.1185 67.0459 76.882 61.4667 76.8741 55.8197C76.8736 54.4026 76.9532 52.9867 77.1127 51.5784C77.2445 50.424 77.4273 49.2777 77.6611 48.1397C78.9374 41.9648 81.6775 36.1772 85.6565 31.2521C87.5823 30.2137 89.1397 28.6167 90.1189 26.6765C90.4736 25.9791 90.7243 25.2346 90.8632 24.4661C90.646 24.4943 90.0441 21.2245 90.208 21.0238C89.9052 20.5698 89.3633 20.3441 89.0327 19.9011C87.3882 17.6977 85.1226 18.0824 83.9399 21.0767C81.4132 22.3369 81.3888 24.427 82.9391 26.4372C83.9254 27.716 84.061 29.4465 84.9264 30.8157C84.8373 30.9283 84.7447 31.0374 84.6557 31.1501C83.0281 33.2184 81.6096 35.4394 80.4204 37.7812C80.7569 35.1839 80.2601 32.0549 79.4133 30.0378C78.4494 27.7396 76.6426 25.8041 75.0515 23.8173C73.1404 21.4309 69.2214 22.4724 68.8847 25.4976C68.8815 25.5268 68.8783 25.5561 68.8752 25.5854C69.1115 25.7172 69.3428 25.857 69.5692 26.005C69.8535 26.1927 70.0739 26.461 70.2013 26.7746C70.3287 27.0882 70.3573 27.4326 70.2834 27.7626C70.2094 28.0925 70.0363 28.3927 69.7868 28.6238C69.5372 28.8549 69.2228 29.0061 68.8849 29.0576L68.8503 29.0629C68.9344 29.9046 69.0833 30.7389 69.2954 31.5583C67.2543 39.3596 71.661 42.201 77.9532 42.3286C78.0921 42.399 78.2274 42.4694 78.3663 42.5363C77.1715 45.8825 76.4221 49.3681 76.1369 52.9053C75.9754 54.9922 75.9849 57.0886 76.1654 59.1739L76.1547 59.1C75.6988 56.7812 74.4471 54.6888 72.6111 53.1764C69.8841 50.9625 66.0313 50.1472 63.0894 48.3677C61.6732 47.511 59.8585 48.618 60.1057 50.2407C60.1096 50.2666 60.1136 50.2925 60.1177 50.3184C60.5562 50.4949 60.9833 50.6983 61.3962 50.9273C61.6325 51.059 61.8639 51.1989 62.0902 51.3468C62.3746 51.5346 62.5949 51.8029 62.7224 52.1165C62.8498 52.4301 62.8784 52.7745 62.8044 53.1044C62.7305 53.4344 62.5574 53.7346 62.3078 53.9657C62.0583 54.1968 61.7439 54.348 61.4059 54.3995L61.3713 54.4047C61.3464 54.4083 61.325 54.4118 61.3001 54.4153C62.0494 56.1836 63.1011 57.8111 64.4092 59.2267C65.6854 66.0369 71.1671 66.6831 77.0308 64.6999H77.0343C77.6777 67.4629 78.6099 70.1523 79.8158 72.7248H89.7521C89.7877 72.6157 89.8197 72.503 89.8518 72.3939C88.9321 72.4511 88.0087 72.3967 87.1024 72.2321C87.8396 71.338 88.5768 70.437 89.314 69.543C89.3305 69.5263 89.3459 69.5086 89.3603 69.4902C89.7343 69.0326 90.1118 68.5786 90.4857 68.121L90.4859 68.1205C90.5059 66.7179 90.343 65.3187 90.0014 63.9572L90.0011 63.957Z" fill="#F2F2F2"/>
<path d="M43.6376 14.572C43.4121 15.0914 36.4585 15.0357 36.1401 15.4982C33.6846 19.0688 42.536 34.2608 40.0806 37.836L39.7385 38.2389C40.5396 37.874 41.3091 37.445 42.0393 36.9561C42.1049 35.4927 42.1705 34.0246 42.2408 32.5612C42.9763 33.491 43.5699 34.5223 44.0027 35.6223C44.5744 35.224 45.0434 34.4857 47.4938 33.0335C48.4858 31.9565 49.6294 31.0262 50.8895 30.271L43.6376 14.572Z" fill="#2F2E41"/>
<path d="M48.687 43.835C47.9197 43.3409 47.0442 43.0349 46.1332 42.9422C45.2222 42.8496 44.302 42.9729 43.4489 43.3021C42.5959 43.6313 41.8345 44.1568 41.2281 44.835C40.6216 45.5132 40.1876 46.3245 39.962 47.2017L29.395 74.4124L11.2317 64.2214C11.1519 63.05 10.6989 61.9336 9.93746 61.0324C9.17605 60.1313 8.14542 59.4916 6.99339 59.205C5.84135 58.9185 4.6271 59 3.52478 59.4376C2.42246 59.8753 1.48872 60.6468 0.857464 61.6413C0.226208 62.6359 -0.0701255 63.8025 0.0109646 64.9738C0.0920547 66.1451 0.546404 67.261 1.30884 68.1613C2.07129 69.0616 3.10265 69.7002 4.25501 69.9854C5.40737 70.2706 6.62153 70.1878 7.72334 69.7489C11.5484 73.7836 28.1313 90.3255 34.9966 83.8622C40.7671 78.4294 49.0947 57.3741 51.0993 50.1032C51.4205 48.9406 51.3599 47.7072 50.9264 46.5807C50.4929 45.4543 49.7088 44.4928 48.687 43.835Z" fill="#FFB6B6"/>
<path d="M28.8452 85.0024L32.1798 99.8979L56.5635 102.078L58.8044 89.1077L28.8452 85.0024Z" fill="#FFB6B6"/>
<path d="M66.0917 123.2C66.0806 123.413 66.0672 123.625 66.0516 123.838C65.8177 126.925 65.5504 130.484 65.2609 134.385C64.8042 140.576 64.2941 147.624 63.7796 154.999H12.6346L22.5536 125.534C22.5536 125.534 26.5587 123.355 24.5197 119.694C22.4806 116.033 26.4927 118.951 26.53 113.722C26.5674 108.494 30.1626 102.932 30.1626 102.932L30.7529 95.0155L31.0892 95.0221L57.7053 95.4602L58.1909 95.469L59.0083 102.265C63.9719 108.102 66.5041 115.586 66.0917 123.2Z" fill="#2F2E41"/>
<path d="M44.0639 36.6162L56.2008 35.9983L61.8381 44.8016C61.8381 44.8016 72.4448 46.5541 71.7096 58.9064C70.9743 71.2588 58.8044 82.098 58.8044 82.098L59.3246 80.3353L58.4211 82.8868L58.537 84.3194L59.7695 85.8366L59.8964 87.4056L58.8044 89.8882C58.9464 90.1131 59.0217 90.3729 59.0219 90.6381C59.0221 90.9032 58.9471 91.1631 58.8054 91.3882C58.6637 91.6134 58.4609 91.7948 58.2202 91.9118C57.9795 92.0289 57.7104 92.0769 57.4434 92.0504L39.9065 90.3135C39.5072 89.2281 39.1869 87.9293 37.5864 90.0914L35.9344 89.9332L29.067 89.2756L28.6628 87.8204C28.4331 86.9935 28.3973 86.1258 28.5582 85.2832C28.719 84.4406 29.0722 83.6453 29.5908 82.958C28.9943 81.1119 29.1506 79.1087 30.0263 77.3749L30.0591 77.3098L30.7884 76.7091C30.7884 76.7091 22.8098 64.8627 31.969 55.9401L35.6451 49.7639L39.7583 44.8044L44.0639 36.6162Z" fill="white"/>
<path d="M47.0845 31.4195C53.4409 31.4195 58.5937 26.3271 58.5937 20.0451C58.5937 13.7632 53.4409 8.67072 47.0845 8.67072C40.7282 8.67072 35.5753 13.7632 35.5753 20.0451C35.5753 26.3271 40.7282 31.4195 47.0845 31.4195Z" fill="#FFB6B6"/>
<path d="M55.8258 36.4308C54.8886 35.6569 54.2362 34.5987 53.9701 33.4206C53.7573 34.851 53.8129 36.3078 54.1342 37.7183C53.5109 38.1814 52.9065 38.6213 52.3347 39.0196C51.9019 37.9196 51.3083 36.8883 50.5728 35.9584C50.5026 37.4219 50.4369 38.8899 50.3713 40.3534C49.6411 40.8423 48.8716 41.2713 48.0705 41.6362L48.4126 41.2333C50.868 37.6581 44.5139 31.0773 46.9693 27.5067C47.6582 26.5063 44.5467 18.6011 42.1756 18.2445C40.0669 17.9296 40.1559 18.5316 38.1129 18.9716C37.9007 18.0971 37.5713 17.2545 37.1335 16.4661C37.25 17.3446 37.2231 18.2358 37.0538 19.1058C36.3275 19.1336 35.7561 18.6763 34.9826 18.5594C30.0483 17.8138 30.5497 12.539 31.9227 10.8671C33.3004 9.19994 37.8739 8.69978 39.9826 8.15792C40.1747 7.97269 40.6105 8.08846 40.8026 7.91248C44.8438 4.25737 50.2486 3.65205 55.1124 5.27208C60.2993 6.99972 63.5333 10.3435 65.1931 15.4982L65.6691 19.6234C66.0962 20.9497 65.5589 27.1212 65.1931 28.4653C63.7708 33.6901 60.742 31.0819 55.8258 36.4308Z" fill="#2F2E41"/>
<path d="M72.6072 90.3199L72.1541 55.4444C72.1305 53.9669 71.52 52.5578 70.4544 51.5212C69.3889 50.4846 67.9536 49.9036 66.4584 49.9036C65.6849 49.9036 64.9195 50.0593 64.2089 50.3612C63.4983 50.6631 62.8573 51.1048 62.325 51.6595C61.7928 52.2142 61.3804 52.8702 61.1131 53.5875C60.8457 54.3049 60.729 55.0685 60.77 55.8319L62.3644 92.0447L62.3947 114.089C61.455 114.483 60.6607 115.153 60.1198 116.009C59.5789 116.864 59.3176 117.864 59.3714 118.871C59.4252 119.878 59.7915 120.845 60.4205 121.64C61.0495 122.434 61.9108 123.018 62.8872 123.312C63.8637 123.606 64.908 123.595 65.8783 123.282C66.8486 122.969 67.6979 122.368 68.3107 121.562C68.9236 120.755 69.2703 119.781 69.3037 118.773C69.3371 117.765 69.0557 116.771 68.4977 115.926L72.6072 90.3199Z" fill="#FFB6B6"/>
<path d="M132.007 135.44C132.007 135.44 131.307 147.896 130.985 155H106.859C106.363 148.535 106.196 143.786 106.196 143.786L104.876 155H80.49L78.9781 134.231L86.284 116.333C86.284 116.333 125.876 113.619 129.549 117.062C133.219 120.502 132.007 135.44 132.007 135.44Z" fill="#2F2E41"/>
<path d="M110.674 30.6611C117.952 30.6611 123.851 24.8302 123.851 17.6375C123.851 10.4448 117.952 4.61398 110.674 4.61398C103.396 4.61398 97.4958 10.4448 97.4958 17.6375C97.4958 24.8302 103.396 30.6611 110.674 30.6611Z" fill="#FFB6B6"/>
<path d="M126.034 13.4057C124.68 14.0157 123.803 18.4333 122.739 17.4063C121.675 16.3793 121.746 15.0428 120.312 14.6638C119.154 14.3564 117.907 14.7077 116.851 15.2617C116.662 15.3595 116.479 15.4658 116.301 15.5715C116.183 15.4938 116.066 15.4207 115.941 15.3533C114.996 14.8534 113.893 14.7308 112.859 15.0107C113.676 15.2811 114.386 15.7984 114.889 16.4895C114.535 16.7237 114.177 16.9585 113.811 17.1665C110.75 18.912 106.395 15.1165 103.174 13.6906C105.192 17.433 104.198 18.9828 102.446 22.8532L102.385 23.0736C102.485 22.1036 99.4477 21.3807 99.6238 22.7462C99.7489 23.7157 100.598 25.8706 101.073 26.7266C97.6863 22.8561 95.3717 18.1196 95.8601 13.2335C95.9664 12.2071 95.9344 11.1242 96.47 10.2333C97.0063 9.34702 98.1243 8.72508 99.1133 9.06305C99.0295 7.50483 99.3745 5.95329 100.112 4.57338C100.849 3.19347 101.951 2.03677 103.3 1.22625C104.649 0.415725 106.195 -0.0183161 107.774 -0.0297369C109.353 -0.0411577 110.905 0.370472 112.267 1.16139C113.531 1.8948 114.587 2.93209 115.746 3.82683C116.905 4.72157 118.242 5.50148 119.711 5.57535C120.644 5.61979 121.659 5.39481 122.46 5.8721C123.388 6.42591 123.547 7.58543 123.686 8.70117C122.858 8.78181 122.074 9.1045 121.432 9.62801C122.289 9.54167 123.151 9.72443 123.896 10.1503C123.91 10.1566 123.924 10.1642 123.936 10.1729C124.427 12.0169 124.377 12.4257 126.034 13.4057Z" fill="#2F2E41"/>
<path d="M80.5484 122.634C91.7705 109.652 87.98 93.14 83.5261 76.4722L84.3736 51.8488C84.4151 50.6409 84.7502 49.4607 85.3504 48.4077C85.9507 47.3548 86.7985 46.46 87.8222 45.799L99.2785 38.4023L103.737 32.0308L116.029 33.2455L122.844 40.3692L130.389 46.0614C132.283 47.4906 133.725 49.4253 134.543 51.6373C135.362 53.8494 135.523 56.2466 135.008 58.5463L127.789 90.8145C127.789 90.8145 130.808 107.543 128.966 109.39C127.123 111.237 122.376 109.391 126.141 111.465C130.659 113.954 134.767 113.494 132.481 115.754C130.194 118.014 133.088 121.155 133.088 121.155L80.5484 122.634Z" fill="white"/>
<path d="M85.3464 141.501L87.2173 128.328L79.7523 126.222L78.2757 140.218C77.6579 140.778 77.2104 141.497 76.9834 142.295C76.7564 143.092 76.759 143.936 76.9909 144.732C77.2228 145.528 77.6748 146.245 78.296 146.801C78.9172 147.357 79.6831 147.731 80.5075 147.88C81.3319 148.03 82.1822 147.949 82.9627 147.647C83.7433 147.345 84.4231 146.834 84.9259 146.171C85.4286 145.508 85.7343 144.72 85.8086 143.895C85.8829 143.07 85.7228 142.241 85.3464 141.501Z" fill="#FFB6B6"/>
<path d="M99.5585 40.7769C99.5585 40.7769 78.3099 47.6116 77.8032 52.6125C77.2966 57.6134 77.4646 60.6748 75.222 80.6862L75.3401 134.592C75.3401 134.592 89.586 137.606 88.125 134.383C86.664 131.16 87.1738 129.644 87.1738 129.644C87.1738 129.644 90.2281 128.453 89.4636 124.669C88.699 120.884 92.5332 102.131 92.5332 102.131L94.9532 68.498L99.5585 40.7769Z" fill="white"/>
<path d="M125.758 140.803L124.763 127.538L132.351 125.918L132.899 139.98C133.478 140.579 133.877 141.325 134.051 142.136C134.225 142.946 134.166 143.788 133.882 144.568C133.598 145.347 133.1 146.033 132.443 146.547C131.787 147.062 130.998 147.386 130.165 147.482C129.333 147.577 128.489 147.442 127.731 147.09C126.972 146.739 126.327 146.185 125.869 145.491C125.411 144.797 125.158 143.991 125.139 143.163C125.119 142.334 125.334 141.517 125.758 140.803Z" fill="#FFB6B6"/>
<path d="M118.239 39.3766C118.239 39.3766 138.99 47.5693 139.165 52.5923C139.339 57.6152 138.969 60.6592 139.883 80.7727L136.2 134.555C136.2 134.555 121.786 136.643 123.457 133.521C125.128 130.4 124.719 128.854 124.719 128.854C124.719 128.854 121.75 127.468 122.763 123.741C123.777 120.014 121.191 101.053 121.191 101.053L121.001 67.3359L118.239 39.3766Z" fill="white"/>
</g>
<defs>
<clipPath id="clip0_203_39">
<rect width="206" height="155" fill="white"/>
</clipPath>
</defs>
</svg>
