<svg width="281" height="177" viewBox="0 0 281 177" fill="none" xmlns="http://www.w3.org/2000/svg">
<g clip-path="url(#clip0_203_183)">
<path d="M259.264 85.4689H31.4038C28.3496 85.4689 25.8648 83.079 25.8648 80.1411V5.32746C25.8648 2.38988 28.3496 0 31.4038 0H259.264C262.318 0 264.803 2.38988 264.803 5.32746V80.1411C264.803 83.079 262.318 85.4689 259.264 85.4689ZM31.4038 0.635152C28.7138 0.635152 26.5252 2.74018 26.5252 5.32746V80.1411C26.5252 82.7286 28.7138 84.8337 31.4038 84.8337H259.264C261.954 84.8337 264.142 82.7286 264.142 80.1411V5.32746C264.142 2.74018 261.954 0.635152 259.264 0.635152H31.4038Z" fill="#3F3D56"/>
<path d="M281 174.844H0V175.378H281V174.844Z" fill="#E6E6E6"/>
<path d="M281 147.532H0V148.067H281V147.532Z" fill="#E6E6E6"/>
<path d="M128.06 88.2202C128.261 90.6592 129.733 92.536 131.347 92.4122C132.961 92.2885 134.105 90.2112 133.903 87.7714C133.836 86.7957 133.527 85.8496 133.002 85.0123L132.012 74.6887L126.985 75.2391L128.495 85.3579C128.114 86.2649 127.965 87.2464 128.06 88.2202Z" fill="#FFB6B6"/>
<path d="M122.054 40.0569C122.054 40.0569 126.754 37.6643 129.136 41.2397C131.519 44.8151 133.164 83.484 133.164 83.484L126.559 84.1622L125.307 56.9133L122.054 40.0569Z" fill="#E6E6E6"/>
<path d="M112.301 145.515L116.127 145.514L117.947 131.32L112.3 131.321L112.301 145.515Z" fill="#FFB6B6"/>
<path d="M125.409 145.431C125.528 145.624 125.591 146.247 125.591 146.471C125.591 147.161 125.01 147.72 124.293 147.72H112.444C111.955 147.72 111.558 147.339 111.558 146.868V146.394C111.558 146.394 110.972 144.968 112.179 143.21C112.179 143.21 113.679 144.587 115.92 142.431L116.581 141.279L121.365 144.645L124.016 144.958C124.597 145.027 125.111 144.948 125.409 145.431Z" fill="#2F2E41"/>
<path d="M134.442 144.905L138.148 143.994L136.259 129.809L130.788 131.153L134.442 144.905Z" fill="#FFB6B6"/>
<path d="M147.121 141.704C147.286 141.863 147.507 142.451 147.565 142.669C147.742 143.337 147.323 144.017 146.628 144.188L135.148 147.008C134.674 147.125 134.191 146.85 134.07 146.394L133.948 145.934C133.948 145.934 133.013 144.692 133.73 142.702C133.73 142.702 135.538 143.678 137.154 141.056L137.498 139.783L142.999 141.905L145.649 141.578C146.229 141.506 146.707 141.307 147.121 141.704Z" fill="#2F2E41"/>
<path d="M109.136 37.0056L108.954 35.7394L111.11 30.6747L117.034 30.0417L118.314 37.2924L109.136 37.0056Z" fill="#FFB6B6"/>
<path opacity="0.1" d="M109.136 37.0056L108.954 35.7394L111.11 30.6747L117.034 30.0417L118.314 37.2924L109.136 37.0056Z" fill="black"/>
<path d="M102.224 72.775L99.5914 79.7389L101.566 83.5375L111.439 138.616H118.004L116.705 89.8683L131.844 138.616H138.341L133.117 105.695L129.212 75.3073L126.843 73.8999L115.389 67.7103L102.224 72.775Z" fill="#2F2E41"/>
<path d="M119.009 77.5231L115.06 78.1562L109.794 66.1276H121.642L119.009 77.5231Z" fill="#E6E6E6"/>
<path d="M126.908 74.3577L119.009 77.5231L116.376 71.8254L115.06 78.1562L101.237 73.8766L103.212 66.1276L101.237 40.8041L108.208 36.3345L109.136 35.7394L117.693 36.3725L118.443 36.765L123.617 39.538L124.933 60.4298L126.908 74.3577Z" fill="#2F2E41"/>
<path d="M118.443 36.765L114.731 51.8831L108.208 36.3345L109.136 35.7394L117.693 36.3725L118.443 36.765Z" fill="#E6E6E6"/>
<path d="M112.098 35.7394L110.781 37.9201L112.098 38.6469L111.44 51.9225L114.072 55.3651L116.705 50.277L114.731 38.6469L115.389 35.7394H112.098Z" fill="#2F2E41"/>
<path d="M114.072 34.4733C117.526 34.4733 120.326 31.7806 120.326 28.4589C120.326 25.1373 117.526 22.4446 114.072 22.4446C110.619 22.4446 107.819 25.1373 107.819 28.4589C107.819 31.7806 110.619 34.4733 114.072 34.4733Z" fill="#FFB6B6"/>
<path d="M110.076 28.9865L111.427 29.5537L112.017 26.1508C112.017 26.1508 114.376 25.0165 116.145 25.5837C117.914 26.1508 120.862 25.5837 120.862 25.5837C120.862 25.5837 120.862 19.9123 116.734 19.9123C112.607 19.9123 108.479 20.4794 108.479 22.1808C108.479 23.8823 106.71 25.5837 106.71 25.5837C106.71 25.5837 104.351 28.9865 106.71 31.2551C109.069 33.5236 110.248 33.5236 110.248 33.5236L110.076 28.9865Z" fill="#2F2E41"/>
<path d="M97.9429 88.0423C97.8743 90.4881 99.1308 92.5046 100.749 92.5463C102.367 92.588 103.734 90.6393 103.803 88.1926C103.844 87.2157 103.641 86.2434 103.212 85.3572L103.366 74.9908L98.3068 75.0248L98.6917 85.2406C98.213 86.1036 97.9562 87.0643 97.9429 88.0423Z" fill="#FFB6B6"/>
<path d="M104.202 39.5261C104.202 39.5261 99.9238 38.2599 97.9491 42.0584C95.9744 45.8569 98.6073 84.4752 98.6073 84.4752H105.249L103.486 57.2525L104.202 39.5261Z" fill="#E6E6E6"/>
<path d="M268.329 111.472L252.373 106.774C252.02 106.67 251.65 106.632 251.282 106.662L170.419 113.282C169.266 113.376 168.976 114.872 170.017 115.359L172.607 116.573H172.538V174.674H174.978V117.684L183.096 121.488C183.717 121.779 184.411 121.898 185.098 121.831L185.962 121.747V174.674H188.403V121.51L250.946 115.434V174.674H253.387V115.196L263.76 114.189V174.674H266.201V113.952L268.093 113.768C269.422 113.639 269.605 111.848 268.329 111.472Z" fill="#3F3D56"/>
<path d="M193.894 113.051C195.42 113.051 217.996 110.41 217.996 110.41L221.352 114.812L197.86 119.214L193.894 113.051Z" fill="white"/>
<path d="M218.673 172.417L214.75 172.41L212.91 157.856L218.699 157.866L218.673 172.417Z" fill="#A0616A"/>
<path d="M205.234 172.31C205.111 172.507 205.046 173.146 205.045 173.376C205.044 174.083 205.639 174.657 206.374 174.658L218.522 174.678C219.023 174.679 219.431 174.289 219.432 173.806L219.432 173.32C219.432 173.32 220.036 171.859 218.802 170.055C218.802 170.055 217.262 171.463 214.968 169.25L214.293 168.068L209.382 171.51L206.663 171.827C206.068 171.897 205.541 171.814 205.234 172.31Z" fill="#2F2E41"/>
<path d="M239.725 165.649L236.63 167.894L226.153 157.482L230.721 154.168L239.725 165.649Z" fill="#A0616A"/>
<path d="M229.069 173.274C229.095 173.5 229.44 174.041 229.582 174.222C230.019 174.78 230.844 174.891 231.425 174.471L241.008 167.517C241.404 167.23 241.483 166.689 241.184 166.308L240.883 165.924C240.883 165.924 240.452 164.427 238.361 163.714C238.361 163.714 238.021 165.707 234.841 165.279L233.576 164.735L231.842 170.264L229.896 172.074C229.47 172.47 229.004 172.708 229.069 173.274Z" fill="#2F2E41"/>
<path d="M231.527 90.4265C231.527 93.9055 228.595 96.7258 224.977 96.7258C221.36 96.7258 218.428 93.9055 218.428 90.4265C218.428 86.9475 221.36 84.1273 224.977 84.1273C228.595 84.1273 231.527 86.9475 231.527 90.4265Z" fill="#A0616A"/>
<path d="M230.91 126.747C230.91 126.747 206.796 125.434 205.431 128.06C204.066 130.685 212.81 166.751 212.81 166.751L220.611 165.178L216.805 139.875C216.805 139.875 236.928 145.001 239.658 138.874C242.388 132.748 241.602 130.466 241.602 130.466L230.91 126.747Z" fill="#2F2E41"/>
<path d="M237.088 122.339C237.088 122.339 213.472 127.209 212.878 130.088C212.284 132.968 230.636 165.524 230.636 165.524L237.726 162.022L227.097 138.589C227.097 138.589 247.912 138.412 248.86 131.809C249.808 125.206 248.422 123.206 248.422 123.206L237.088 122.339Z" fill="#2F2E41"/>
<path d="M239.782 97.6458H228.436L220.673 109.899C220.673 109.899 218.853 117.817 220.673 118.672C222.493 119.526 222.493 128.716 222.493 128.716L241.602 130.466C241.602 130.466 244.332 102.897 243.422 100.271C242.512 97.6458 239.782 97.6458 239.782 97.6458Z" fill="white"/>
<path d="M221.81 105.742L220.673 118.672L207.879 113.449L204.825 111.972C204.227 111.222 203.451 110.621 202.562 110.218C200.351 109.182 198.003 109.438 197.317 110.792C196.631 112.145 197.868 114.081 200.078 115.117C200.956 115.543 201.927 115.761 202.91 115.751L211.844 120.632L211.855 120.613L211.895 120.681L225.905 126.309L229.129 109.335L221.81 105.742Z" fill="#A0616A"/>
<path d="M220.445 91.3005C220.445 91.3005 213.62 92.1758 216.35 86.4869C216.35 86.4869 215.934 83.4029 217.962 83.1945C219.99 82.986 222.72 79.4852 222.72 79.4852C222.72 79.4852 228.979 76.4219 232.219 79.4852C235.46 82.5484 245.014 100.49 245.014 100.49L238.645 107.054C238.645 107.054 234.815 97.3719 230.36 98.4935C225.905 99.6151 221.81 102.959 221.81 102.959C221.81 102.959 217.289 100.783 219.322 98.8862C221.355 96.9894 220.445 91.3005 220.445 91.3005Z" fill="#2F2E41"/>
<path d="M229.545 100.928C229.545 100.928 226.36 96.9894 224.085 100.053C221.81 103.116 219.99 107.054 219.99 107.054L229.09 110.118L229.545 100.928Z" fill="white"/>
<path d="M264.095 173.803L253.523 141.483L253.524 141.483H253.549L253.506 141.43L253.505 141.429L252.752 139.127L252.752 139.126C253.9 138.176 254.681 136.817 254.836 135.253L250.004 109.689C250.336 106.332 247.66 103.397 244.155 103.277L233.251 103.251C230.151 103.145 227.466 105.299 227.015 108.251L226.774 109.818L223.433 131.676C223.311 132.462 223.36 133.237 223.552 133.962L221.148 134.264L220.419 134.358L217.536 134.719L217.527 134.722L217.167 134.766H216.776V144.156H216.8V174.169C216.8 174.363 216.965 174.521 217.167 174.521C217.371 174.521 217.536 174.363 217.536 174.169V144.156H221.813L226.081 174.134C226.109 174.31 226.264 174.439 226.447 174.439C226.463 174.439 226.481 174.439 226.496 174.436C226.698 174.41 226.838 174.231 226.81 174.037L222.558 144.156H243.081C245.119 144.156 247.007 143.534 248.545 142.469L256.682 174.079C256.724 174.239 256.874 174.345 257.038 174.345C257.068 174.345 257.098 174.342 257.129 174.334C257.325 174.286 257.444 174.094 257.394 173.905L249.178 141.989C249.288 141.901 249.397 141.808 249.5 141.712L252.767 141.527L263.394 174.015C263.443 174.166 263.588 174.262 263.744 174.262C263.781 174.262 263.818 174.257 263.855 174.246C264.048 174.187 264.156 173.989 264.095 173.803ZM252.054 139.628C252.081 139.614 252.106 139.596 252.13 139.581L252.209 139.821L252.054 139.628Z" fill="#E6E6E6"/>
<path d="M56.6485 119.019L63.7637 114.667L66.6564 116.346L56.6485 127.406V119.019Z" fill="#FFB6B6"/>
<path d="M46.9186 102.175C46.9186 102.175 42.1926 103.244 44.4166 109.394C46.6406 115.544 53.8685 128.378 56.0925 127.576C58.3165 126.774 58.5945 118.752 58.5945 118.752C58.5945 118.752 58.3165 119.019 57.2045 117.95C56.0925 116.88 56.0925 117.369 56.0925 116.189C56.0925 115.009 55.183 114.134 55.183 114.134L54.1465 112.068C54.1465 112.068 54.1465 102.442 49.9766 101.907C45.8066 101.372 46.9186 102.175 46.9186 102.175Z" fill="#E6E6E6"/>
<path d="M68.9984 116.058C70.844 114.283 71.4161 111.955 70.2762 110.859C69.1362 109.762 66.716 110.313 64.8704 112.088C63.0248 113.863 62.4527 116.191 63.5926 117.287C64.7326 118.383 67.1528 117.833 68.9984 116.058Z" fill="#FFB6B6"/>
<path d="M28.5109 137.603L33.366 145.332L61.6595 143.721L54.1257 134.382L28.5109 137.603Z" fill="#E6E6E6"/>
<path d="M36.9651 173.752C36.8003 173.752 36.6567 173.635 36.6338 173.474L28.1792 114.085C28.1541 113.909 28.2823 113.746 28.4655 113.722C28.6486 113.697 28.8175 113.821 28.8427 113.997L37.2972 173.386C37.3223 173.563 37.1942 173.725 37.011 173.749C36.9955 173.751 36.9802 173.752 36.9651 173.752Z" fill="#E6E6E6"/>
<path d="M28.511 173.828C28.3261 173.828 28.1761 173.683 28.1761 173.506V114.053C28.1761 113.875 28.3261 113.731 28.511 113.731C28.6959 113.731 28.8458 113.875 28.8458 114.053V173.506C28.8458 173.683 28.6959 173.828 28.511 173.828Z" fill="#E6E6E6"/>
<path d="M70.9511 173.591C70.8087 173.591 70.6767 173.503 70.6318 173.366L50.6255 112.206C50.5699 112.036 50.668 111.855 50.8444 111.802C51.0207 111.748 51.2088 111.843 51.2642 112.012L71.2705 173.172C71.326 173.342 71.228 173.523 71.0516 173.576C71.0182 173.586 70.9843 173.591 70.9511 173.591Z" fill="#E6E6E6"/>
<path d="M64.8401 173.667C64.6906 173.667 64.5544 173.57 64.5159 173.424L50.6203 119.446C50.5747 119.273 50.683 119.098 50.8622 119.054C51.042 119.011 51.2237 119.115 51.2693 119.287L65.1649 173.265C65.2105 173.437 65.1021 173.613 64.923 173.657C64.8952 173.663 64.8675 173.667 64.8401 173.667Z" fill="#E6E6E6"/>
<path d="M28.5109 115L51.6982 114.657L55.9673 138.086H28.8458L28.5109 115Z" fill="#E6E6E6"/>
<path d="M64.144 149.45L58.3004 159.345L65.0853 160.782L67.9139 153.744L64.144 149.45Z" fill="#FFB6B6"/>
<path d="M60.3993 157.477C60.3993 157.477 60.1722 155.864 58.8372 156.376C57.5023 156.888 53.6496 158.791 53.6496 158.791C53.6496 158.791 63.6984 174.495 65.6054 173.764C67.5125 173.032 65.2296 168.593 65.2296 168.593L65.7334 160.746L60.3993 157.477Z" fill="#2F2E41"/>
<path d="M38.3007 130.249C38.3007 130.249 36.2157 139.474 42.6097 142.683C49.0036 145.891 70.8264 138.003 70.8264 138.003L60.8185 152.426L67.7684 155.116C67.7684 155.116 83.6143 135.062 82.5023 131.854C81.3903 128.645 73.8844 128.378 73.8844 128.378L56.9265 129.18L52.4786 127.843L38.3007 130.249Z" fill="#2F2E41"/>
<path d="M55.4989 153.842L46.3122 161.013L52.0884 164.726L57.3858 159.161L55.4989 153.842Z" fill="#FFB6B6"/>
<path d="M48.974 160.008C48.974 160.008 49.373 158.425 47.9358 158.435C46.4986 158.445 42.1901 158.869 42.1901 158.869C42.1901 158.869 45.6085 177.014 47.6616 177C49.7146 176.986 49.2678 172.052 49.2678 172.052L52.7058 164.92L48.974 160.008Z" fill="#2F2E41"/>
<path d="M38.6916 126.913C38.6916 126.913 33.2595 134.775 38.0012 140.002C42.7429 145.228 66.0538 145.519 66.0538 145.519L51.2754 155.45L56.7314 160.388C56.7314 160.388 79.0778 147.255 79.2559 143.877C79.4341 140.499 72.5439 137.623 72.5439 137.623L56.4451 132.435L52.8079 129.633L38.6916 126.913Z" fill="#2F2E41"/>
<path d="M52.646 108.701C52.646 108.701 47.3641 106.83 44.8621 106.83C44.623 106.83 44.3867 106.856 44.1505 106.905C42.5492 107.231 41.0758 108.554 40.3697 109.276C40.0945 109.56 39.936 109.749 39.936 109.749C39.936 109.749 39.9527 109.565 39.9861 109.241C40.1501 107.541 40.7561 101.961 41.8431 98.3885C42.2323 97.1131 42.6798 96.0943 43.1941 95.5997C44.3923 94.4446 44.9455 93.0596 45.2013 92.0275C45.4181 91.1425 45.4181 90.5195 45.4181 90.5195L43.3915 89.6799L43.0162 87.3216C42.9495 87.5997 42.6409 88.1425 41.604 89.1826C41.515 89.2708 41.4177 89.3457 41.3149 89.4098C39.8192 90.3136 36.7696 88.7414 35.1266 87.7521C35.8105 85.466 37.0504 83.3751 39.3022 83.0328C44.5841 82.2307 44.5841 79.2895 47.9201 82.4981C48.1953 82.7628 48.4733 83.0168 48.7513 83.2628C49.8188 85.2254 50.208 87.8564 50.347 89.6853C50.4471 90.966 50.4221 91.8564 50.4221 91.8564C50.4221 91.8564 51.8121 99.8778 54.036 101.482C56.26 103.086 52.646 108.701 52.646 108.701Z" fill="#2F2E41"/>
<path d="M42.3601 95.8671L38.6039 101.166L47.0861 103.354V95.8671H42.3601Z" fill="#FFB6B6"/>
<path opacity="0.1" d="M42.3601 95.8671L38.6039 101.166L47.0861 103.354V95.8671H42.3601Z" fill="black"/>
<path d="M47.6136 100.971L39.5517 97.7628C39.5517 97.7628 28.7098 102.308 29.5438 111.132C30.3778 119.955 38.1617 135.196 38.1617 135.196L53.7296 128.779L52.0616 111.667L47.6136 100.971Z" fill="#E6E6E6"/>
<path d="M44.157 98.233C48.0852 98.233 51.2696 95.1702 51.2696 91.3921C51.2696 87.6139 48.0852 84.5511 44.157 84.5511C40.2288 84.5511 37.0444 87.6139 37.0444 91.3921C37.0444 95.1702 40.2288 98.233 44.157 98.233Z" fill="#FFB6B6"/>
<path d="M53.758 88.9152C52.368 90.2521 51.256 91.589 51.256 91.589L50.7001 89.4499C50.7001 89.4499 50.5722 89.5408 50.347 89.6852C49.4657 90.2628 47.1 91.7146 45.2013 92.0275C44.3562 92.1665 43.6056 92.0783 43.1163 91.589C42.0794 90.5489 41.7708 90.0061 41.7041 89.728L41.3288 92.0863L39.3022 92.9259C39.3022 92.9259 39.3022 95.8617 41.5261 98.0061C41.6346 98.1104 41.7402 98.2387 41.8431 98.3885C42.905 99.9286 43.6667 103.699 44.1504 106.905C44.5785 109.755 44.7843 112.156 44.7843 112.156C44.7843 112.156 42.6798 109.621 40.3697 109.276C40.2418 109.257 40.1139 109.244 39.986 109.241C39.9443 109.236 39.8999 109.236 39.8582 109.236C37.3562 109.236 32.0742 111.108 32.0742 111.108C32.0742 111.108 28.4603 105.493 30.6842 103.888C32.9082 102.284 34.2982 94.2628 34.2982 94.2628C34.2982 94.2628 34.2065 90.8296 35.1266 87.7521C35.8105 85.466 37.0504 83.3751 39.3022 83.0328C44.5841 82.2307 44.5841 79.2895 47.9201 82.4981C48.1953 82.7628 48.4733 83.0168 48.7513 83.2628C51.8593 86.0115 55.034 87.6879 53.758 88.9152Z" fill="#2F2E41"/>
<path d="M22.5629 124.807H19.9214V174.984H22.5629V124.807Z" fill="#3F3D56"/>
<path d="M86.6191 124.807H83.9776V174.984H86.6191V124.807Z" fill="#3F3D56"/>
<path d="M69.7796 103.53H52.2797V120.361H69.7796V103.53Z" fill="white"/>
<path d="M42.1927 121.426L49.3079 117.074L52.2006 118.752L42.1927 129.813V121.426Z" fill="#FFB6B6"/>
<path d="M32.4628 104.581C32.4628 104.581 27.7368 105.65 29.9608 111.8C32.1848 117.95 39.4127 130.784 41.6367 129.982C43.8607 129.18 44.1387 121.159 44.1387 121.159C44.1387 121.159 43.8607 121.426 42.7487 120.356C41.6367 119.287 41.6367 119.775 41.6367 118.595C41.6367 117.415 40.7272 116.54 40.7272 116.54L39.6907 114.474C39.6907 114.474 39.6907 104.848 35.5207 104.314C31.3508 103.779 32.4628 104.581 32.4628 104.581Z" fill="#E6E6E6"/>
<path d="M54.5426 118.465C56.3882 116.689 56.9603 114.362 55.8203 113.265C54.6804 112.169 52.2602 112.719 50.4146 114.494C48.569 116.269 47.9969 118.597 49.1368 119.693C50.2768 120.79 52.697 120.24 54.5426 118.465Z" fill="#FFB6B6"/>
<path d="M91.9021 122.902H11.9969V128.618H91.9021V122.902Z" fill="#3F3D56"/>
<path d="M173.085 77.171H161.284C160.349 77.171 159.59 77.9004 159.59 78.8001V83.4812C159.59 84.381 160.349 85.1104 161.284 85.1104H173.085C174.021 85.1104 174.779 84.381 174.779 83.4812V78.8001C174.779 77.9004 174.021 77.171 173.085 77.171Z" fill="#3F3D56"/>
<path d="M197.849 81.8521H186.048C185.113 81.8521 184.354 82.5815 184.354 83.4812V83.4812C184.354 84.381 185.113 85.1104 186.048 85.1104H197.849C198.785 85.1104 199.543 84.381 199.543 83.4812V83.4812C199.543 82.5815 198.785 81.8521 197.849 81.8521Z" fill="white"/>
</g>
<defs>
<clipPath id="clip0_203_183">
<rect width="281" height="177" fill="white"/>
</clipPath>
</defs>
</svg>
