<?xml version="1.0" encoding="utf-8"?>
<!-- Generator: Adobe Illustrator 25.2.0, SVG Export Plug-In . SVG Version: 6.00 Build 0)  -->
<svg version="1.1" id="Layer_1" xmlns="http://www.w3.org/2000/svg" xmlns:xlink="http://www.w3.org/1999/xlink" x="0px" y="0px"
	 viewBox="0 0 1080 1080" style="enable-background:new 0 0 1080 1080;" xml:space="preserve">
<style type="text/css">
	.st0{opacity:0.2;fill:#D9DCD6;enable-background:new    ;}
	
		.st1{fill:none;stroke:#D9DCD6;stroke-width:3.984;stroke-linecap:round;stroke-linejoin:round;stroke-miterlimit:9.9599;stroke-dasharray:14.9398,14.9398;}
	.st2{fill:#002C3D;}
	.st3{fill:#00546F;}
	.st4{fill:#D9DCD6;}
	.st5{fill:#FFFFFF;}
	
		.st6{fill:none;stroke:#00364F;stroke-width:7.6455;stroke-linecap:round;stroke-linejoin:round;stroke-miterlimit:9.9597;stroke-dasharray:0,21.662;}
	.st7{fill:#00CCB2;}
	.st8{fill:#E64A19;}
	.st9{fill:#FF9E00;}
	.st10{clip-path:url(#SVGID_2_);}
	.st11{fill:#FFD550;}
	.st12{fill:#F2C39C;}
	.st13{fill:#030229;}
	.st14{fill:#ECECEC;}
	.st15{fill:#E1E1E1;}
	.st16{fill:#F0F0F0;}
	.st17{fill:#F0F0F0;stroke:#E1E1E1;stroke-width:1.7256;stroke-linecap:round;stroke-linejoin:round;stroke-miterlimit:10;}
	.st18{fill:#F5F5F5;}
	.st19{fill:#E7E7E7;}
	.st20{fill:#FAFAFA;}
	.st21{fill:#1A2E35;}
	.st22{opacity:0.5;}
	.st23{opacity:0.6;fill:#FFFFFF;}
	.st24{fill:#007CFF;}
	.st25{opacity:0.2;}
	.st26{opacity:0.1;fill:#FFFFFF;}
	.st27{opacity:0.6;}
	.st28{fill:#CE5B51;}
	.st29{opacity:0.6;fill:#FFFFFF;enable-background:new    ;}
	.st30{fill:#CD5B51;}
	.st31{opacity:0.4;fill:#FFFFFF;enable-background:new    ;}
	.st32{fill:#BA221F;}
	.st33{opacity:0.4;fill:#FFFFFF;}
	.st34{opacity:0.3;enable-background:new    ;}
	.st35{opacity:0.6;enable-background:new    ;}
	.st36{opacity:0.2;enable-background:new    ;}
	.st37{opacity:0.7;fill:#FFFFFF;enable-background:new    ;}
	.st38{opacity:0.8;fill:#FFFFFF;enable-background:new    ;}
	.st39{opacity:0.2;fill:#FFFFFF;}
	.st40{fill:#FAB373;}
	.st41{opacity:0.1;enable-background:new    ;}
	.st42{fill:#FCB373;}
	.st43{fill:none;stroke:#1A2E35;stroke-width:2.1435;stroke-miterlimit:10;}
	.st44{fill:#EC873E;}
	.st45{fill:none;stroke:#1A2E35;stroke-width:0.5359;stroke-linecap:round;stroke-linejoin:round;stroke-miterlimit:10;}
	.st46{opacity:0.7;fill:#FFFFFF;}
	.st47{opacity:0.5;fill:#FFFFFF;enable-background:new    ;}
	.st48{opacity:0.8;}
	.st49{fill:#CCD3E6;}
	.st50{fill:#575759;}
	.st51{fill:#363638;}
	.st52{fill:#FD615B;}
	.st53{fill:#0592F5;}
	.st54{fill:#CEDCEC;}
	.st55{clip-path:url(#SVGID_4_);}
	.st56{fill:#FF9B79;}
	.st57{fill:#F56C63;}
	.st58{fill:#FFB028;}
	.st59{fill:#DC7F21;}
	.st60{fill:#0076FA;}
	.st61{fill:#004ECB;}
	.st62{fill:#00B570;}
	.st63{fill:#007D55;}
	.st64{fill:#CE101D;}
</style>
<g>
	<rect x="-2" y="846.2" class="st14" width="1095" height="0.5"/>
	<rect x="910.7" y="881.5" class="st14" width="72.5" height="0.5"/>
	<rect x="704.3" y="887.4" class="st14" width="19" height="0.5"/>
	<rect x="866.5" y="861.1" class="st14" width="42" height="0.5"/>
	<rect x="112.9" y="864.8" class="st14" width="94.6" height="0.5"/>
	<rect x="227" y="864.8" class="st14" width="13.9" height="0.5"/>
	<rect x="285.9" y="874" class="st14" width="205.2" height="0.5"/>
	<path class="st14" d="M517.1,748.5H94.2c-6.9,0-12.5-5.6-12.5-12.5V141.6c0-6.9,5.6-12.5,12.5-12.5h422.9c6.9,0,12.5,5.6,12.5,12.5
		V736C529.6,742.9,524,748.5,517.1,748.5z M94.2,129.6c-6.6,0-12,5.4-12,12V736c0,6.6,5.4,12,12,12h422.9c6.6,0,12-5.4,12-12V141.6
		c0-6.6-5.4-12-12-12H94.2z"/>
	<path class="st14" d="M990.8,748.5H567.9c-6.9,0-12.5-5.6-12.5-12.5V141.6c0-6.9,5.6-12.5,12.5-12.5h422.9
		c6.9,0,12.5,5.6,12.5,12.5V736C1003.3,742.9,997.6,748.5,990.8,748.5z M567.9,129.6c-6.6,0-12,5.4-12,12V736c0,6.6,5.4,12,12,12
		h422.9c6.6,0,12-5.4,12-12V141.6c0-6.6-5.4-12-12-12H567.9z"/>
</g>
<g>
	<g>
		<path class="st15" d="M852.3,781.5c0,0,12.4-27-1.8-53.6c-14.1-26.6-18.2-32.9-9.2-38.3c9-5.5,13.1,21.3,13.1,21.3
			s7.6-18.4,1.3-37.6c-6.3-19.3-10.2-50.6-1.6-54c8.6-3.4,1.6,39.1,9.1,53.6c0,0,6.2-16.1,7.3-31.6c1-15.5-0.6-40.2,6.2-46.5
			c6.8-6.3,11.1-2,4.4,32.2c-6.6,34.1-6.6,61.9-6.6,61.9s14.7-44.8,24.5-46.1c9.9-1.3,9.8,13.2,1.4,25.8
			c-8.4,12.6-24.7,35.1-27.4,46.7c0,0,16.1-33.7,30.6-23.4c14.5,10.3-12.6,30.7-24.7,38c-12.1,7.4-20.5,53.4-20.5,53.4L852.3,781.5z
			"/>
		<path class="st14" d="M862.1,792.6c0,0-12-27.2,2.4-53.6c14.5-26.4,18.6-32.6,9.7-38.2c-8.9-5.6-13.4,21.1-13.4,21.1
			s-7.4-18.5-0.9-37.7c6.5-19.2,10.8-50.5,2.3-53.9c-8.5-3.5-2.1,39.1-9.7,53.5c0,0-6-16.2-6.9-31.7c-0.8-15.5,1.1-40.1-5.6-46.6
			c-6.7-6.4-11.1-2.1-4.8,32.1c6.2,34.2,5.9,62,5.9,62s-14.1-45-24-46.4c-9.8-1.5-10,13-1.7,25.7c8.3,12.7,24.3,35.5,26.8,47.1
			c0,0-15.7-33.9-30.3-23.8C797.2,712.3,824,733,836,740.5c12,7.5,19.8,53.7,19.8,53.7L862.1,792.6z"/>
		<g>
			<polygon class="st14" points="806.5,773.2 906.1,773.2 898,844.4 814.6,844.4 			"/>
		</g>
	</g>
	<g>
		
			<ellipse transform="matrix(0.9732 -0.2298 0.2298 0.9732 -39.3919 133.5013)" class="st15" cx="553.6" cy="235.9" rx="44.5" ry="44.5"/>
		
			<ellipse transform="matrix(0.9732 -0.2298 0.2298 0.9732 -39.3919 133.5013)" class="st16" cx="553.6" cy="235.9" rx="37.8" ry="37.8"/>
		<polyline class="st17" points="551.8,261.9 551.8,235.4 534.3,245.3 		"/>
	</g>
	<g>
		
			<rect x="785.1" y="268.6" transform="matrix(-1.836970e-16 1 -1 -1.836970e-16 1218.3933 -495.9)" class="st15" width="144.1" height="185.4"/>
		<rect x="770.1" y="295.2" class="st14" width="174.1" height="132.1"/>
		<rect x="833" y="357.5" class="st18" width="21" height="29.7"/>
		<rect x="859.2" y="366.2" class="st18" width="22.1" height="31.8"/>
		
			<rect x="852" y="311.6" transform="matrix(0.9915 0.1304 -0.1304 0.9915 50.0834 -109.7692)" class="st18" width="22.1" height="31.8"/>
		<rect x="907.9" y="310.3" class="st18" width="22.1" height="31.8"/>
		<rect x="881.5" y="306.9" class="st18" width="22.1" height="31.8"/>
		<rect x="785.2" y="306" class="st18" width="13.7" height="13.7"/>
		
			<rect x="803.2" y="307.3" transform="matrix(0.9339 0.3574 -0.3574 0.9339 165.7829 -268.7669)" class="st18" width="13.7" height="13.7"/>
		<path class="st15" d="M792.1,307.7c0,0.4-0.4,0.8-0.8,0.8c-0.4,0-0.8-0.4-0.8-0.8c0-0.4,0.4-0.8,0.8-0.8
			C791.7,306.9,792.1,307.3,792.1,307.7z"/>
		<path class="st15" d="M807.9,307.7c0,0.4-0.4,0.8-0.8,0.8c-0.4,0-0.8-0.4-0.8-0.8c0-0.4,0.4-0.8,0.8-0.8
			C807.5,306.9,807.9,307.3,807.9,307.7z"/>
		<path class="st15" d="M865.4,340.8c0,0.4-0.4,0.8-0.8,0.8c-0.4,0-0.8-0.4-0.8-0.8c0-0.4,0.4-0.8,0.8-0.8
			C865,340,865.4,340.4,865.4,340.8z"/>
		<path class="st15" d="M844.3,359.6c0,0.4-0.4,0.8-0.8,0.8s-0.8-0.4-0.8-0.8c0-0.4,0.4-0.8,0.8-0.8S844.3,359.2,844.3,359.6z"/>
		<path class="st15" d="M856.3,312.6c0,0.4-0.4,0.8-0.8,0.8c-0.4,0-0.8-0.4-0.8-0.8c0-0.4,0.4-0.8,0.8-0.8
			C856,311.7,856.3,312.1,856.3,312.6z"/>
		<circle class="st15" cx="892.5" cy="308.7" r="0.8"/>
		<path class="st15" d="M919.8,311.7c0,0.4-0.4,0.8-0.8,0.8c-0.4,0-0.8-0.4-0.8-0.8c0-0.4,0.4-0.8,0.8-0.8
			C919.4,310.9,919.8,311.3,919.8,311.7z"/>
		<rect x="889.4" y="389.5" class="st15" width="44" height="27.6"/>
		<rect x="788.7" y="386" class="st15" width="38.5" height="30.4"/>
	</g>
	<g>
		<rect x="145.3" y="270.1" class="st19" width="150.3" height="272.9"/>
		<rect x="156.2" y="280.9" class="st16" width="129.2" height="251.9"/>
		<polygon class="st20" points="219.9,280.9 156.2,519.7 156.2,390.4 185.3,280.9 		"/>
		<polygon class="st20" points="248.4,280.9 181.2,532.8 168.5,532.8 235.7,280.9 		"/>
		<rect x="149.6" y="457" class="st19" width="141.3" height="8.8"/>
	</g>
</g>
<ellipse id="_x3C_Path_x3E__2_" class="st18" cx="545.5" cy="920.3" rx="424.6" ry="24.8"/>
<g>
	<g>
		<path class="st21" d="M368.1,907.2H380V586.8h15v320.4h11.9c1.8,0,3.3,1.5,3.3,3.3v4.7h-45.3v-4.7
			C364.8,908.7,366.3,907.2,368.1,907.2z"/>
		<path class="st21" d="M648.6,907.2h11.9V586.8h15v320.4h11.9c1.8,0,3.3,1.5,3.3,3.3v4.7h-45.3v-4.7
			C645.3,908.7,646.8,907.2,648.6,907.2z"/>
	</g>
	<g class="st22">
		<path class="st5" d="M368.1,907.2H380V586.8h15v320.4h11.9c1.8,0,3.3,1.5,3.3,3.3v4.7h-45.3v-4.7
			C364.8,908.7,366.3,907.2,368.1,907.2z"/>
		<path class="st5" d="M648.6,907.2h11.9V586.8h15v320.4h11.9c1.8,0,3.3,1.5,3.3,3.3v4.7h-45.3v-4.7
			C645.3,908.7,646.8,907.2,648.6,907.2z"/>
	</g>
	
		<rect x="315.8" y="294.8" transform="matrix(-1 -1.224647e-16 1.224647e-16 -1 1055.4166 902.1367)" class="st21" width="423.9" height="312.6"/>
	
		<rect x="315.8" y="294.8" transform="matrix(-1 -1.224647e-16 1.224647e-16 -1 1055.4166 902.1367)" class="st23" width="423.9" height="312.6"/>
	
		<rect x="382.4" y="250.1" transform="matrix(-1.836970e-16 1 -1 -1.836970e-16 978.7765 -76.6402)" class="st24" width="290.7" height="402"/>
	
		<rect x="382.4" y="250.1" transform="matrix(-1.836970e-16 1 -1 -1.836970e-16 978.7765 -76.6402)" class="st25" width="290.7" height="402"/>
	<path class="st26" d="M358.5,452.6c3.4-4.3,6.2-9,10-13.2c0.8-0.9,1.3-1.8,1.5-2.7c2.7-0.4,5.7,0,8.8,1.3
		c10.6,4.8,20.3,12.8,28.7,20.7c1.8,1.7,3.6,3.3,5.5,4.9c-8.3-9.2-16.6-18.5-24.9-27.7c-2.8-3-3.9-6.4-3.7-9.7
		c4-4.2,8-8.7,12.8-12.1c0.9-0.6,1.6-1.4,2.1-2.2c2.9,0.2,5.9,1.5,8.5,4.3c17.9,19.5,35.7,38.6,55.5,56.1c-1.6-2.2-3.2-4.4-4.7-6.7
		c-10.4-15.4-21.5-30.3-33.2-44.8c-8.2-10.2-22.3-22.8-25-36.4c0.5-0.7,1.1-1.3,1.6-2c0.7-0.9,1.5-1.7,2.3-2.5
		c0.7-0.1,1.4-0.4,2.1-0.8c3.5-2.3,5.7-6.9,2.9-10.7c-0.6-0.8-1.4-1.5-2.2-2.1c-4.2-5.3-8.4-10.7-12.3-16.2
		c-0.2-0.3-0.4-0.6-0.6-0.9c2.8-8.1,9.6-14,16.2-19.6c2.2,0.5,4.3,1.7,6.2,3.7c7.9,8.6,17,16.1,24.3,25.2
		c7.8,9.7,14.3,20.5,21.8,30.5c0.1,0.2,0.3,0.3,0.4,0.5c9,10,18.1,20,26.8,30.3c7.6,7.7,15.4,15.3,22.9,22.8
		c11.9,12,24,24.1,36.5,35.7c-3.1-4.6-6.2-9.2-9.4-13.7c-14.1-20.1-29.8-39-44.9-58.4c-7.4-9.5-14.2-19.5-21.5-29.2
		c-5.7-7.6-14.2-14.6-18.7-23c-1-1.8-1.5-3.7-1.8-5.4c0.5-0.4,1-0.9,1.4-1.5c3.4-4.5,8.7-7.9,13.7-10.4c1.3-0.7,2.2-1.6,2.7-2.6
		c2,0.6,3.9,1.6,5.7,3.1c7,6,13.7,12.6,20,19.6c-2-3.5-3.7-7-4.9-10.8c-3.5-12.1,10-21,20.3-15.6c0.3,0.2,0.6,0.3,0.9,0.5
		c2.1-6.8,10.1-11.8,17.3-10c4-5.3,11-8.1,17.3-3.3c26,19.8,50.7,41.8,75.2,63.5c2.2,2,4.4,4,6.6,5.9c-4.2-6.6-8.7-13-13.7-19.3
		c-5.6-7.1-13.5-14.6-16.5-23.5c0.3-0.2,0.6-0.4,0.9-0.7c6.3-5.9,11.7-12.6,15.8-20.3c0-0.1,0-0.1,0.1-0.2
		c10.9,2.4,22.4,9.5,31.6,14.9c12.1,7,23,15.3,33.6,24.3c0,1.1,0.2,2.1,0.6,3.4c0.2,0.6,0.6,1.2,0.9,1.8c0,0.7-0.1,1.3-0.1,2
		c-0.9,1.9-1.6,3.7-2.2,5.6c-1.7,0.8-3.2,2-4.2,3.6c-1,1.7-1.4,3.9-1.4,5.8c0.1,0.5,0.1,1.1,0.2,1.6c-1.1,0.9-1.8,2-2.1,3.2
		c-2.3-0.4-4.6-1.4-6.8-3.3c-2.9-2.5-5.8-4.9-8.8-7.3c3.8,6.3,7.4,12.8,11.1,18.9c6.4,10.8,13.2,21.4,20.6,31.6
		c5.6,7.8,13.2,14.6,14.1,23.2c-5.2,4.4-8.9,10-13.4,15.1c-0.2,0.3-0.4,0.6-0.6,0.9c-4.3-0.1-8.8-2-13.2-4.8
		c1.2,1.4,2.4,2.9,3.5,4.4c9.9,13.6,23.9,24.6,32.9,38.7c1.2,1.8,1.8,3.6,2.2,5.3c-1,1.3-2.1,2.6-3.1,3.9c-1.7,2.2-2.5,5-1.5,7.4
		c-0.1,0.1-0.1,0.1-0.2,0.2c0.4,0.4,0.7,0.9,1.1,1.3c0,0,0,0,0.1,0.1c1.5,1.9,2.6,4.1,3.1,6.4c-4.4,6.5-9.2,12.6-15.2,17.2
		c-8.2-0.6-15.4-5.9-22.5-10c-4.9-2.8-9.8-5.7-14.6-8.7c2.4,3.1,4.6,6.4,6.1,10.1c0.6,1.4,1,2.9,1.2,4.4c-0.4,0.2-0.8,0.5-1.2,0.8
		c-5.8,4.5-11.8,9.2-16.7,14.8c-0.7-0.3-1.5-0.6-2.3-1c-4.7-2.5-9.3-5.4-13.7-8.6c0.7,2.1,1.1,4.2,1.1,6.3c-2.1-0.3-4.4,0.4-6.1,1.8
		c-3.9,3.4-7.1,7.7-11,11.2c-1.2-0.3-2.4-0.8-3.5-1.6c-10.3-7-19-16.2-28.9-23.8c-2.5-1.9-5-3.8-7.5-5.7c0.7,2,0.9,4,0.7,6.1
		c-0.9,0.2-1.8,0.7-2.7,1.4c-4.7,3.8-9.4,7.7-14,11.6c-1.1-0.4-2.2-1-3.4-1.8c-4.6-3.2-9-7-13.2-11c-0.1,0.8-0.3,1.6-0.5,2.4
		c-1.9-0.7-4.1-0.8-5.7,0.5c-3.8,2.9-7.6,5.6-10.9,8.9c-5.5-1.5-9.2-5.4-13.7-8.8c-0.8-0.6-1.5-1.1-2.3-1.7c-0.3,0.6-0.6,1.1-1,1.6
		c-1.4-0.2-2.8,0.1-3.9,0.9c-1.9,1.4-3.6,2.9-5.3,4.5c-0.2,0.2-0.5,0.4-0.7,0.7c-1.9,0.3-3.9,0.3-5.6-0.1
		c-10.1-2.7-19.1-9.7-27.8-15.8c1.7,2,3.4,4,5.1,6c6.3,7.8,15.6,16.2,18.8,26.1c-0.4,0.4-0.8,0.8-1.1,1.4c-1.2,2-2.6,4-4,5.9
		c-4.7,2.9-9.3,6.4-12.7,10.5c-0.7-0.2-1.4-0.4-2-0.7c-10.2-4.3-17.8-12.6-25.4-20.3c-5.4-5.5-10.7-11.2-15.8-17.1
		c-0.3,0.8-0.7,1.5-1.2,2.2c-2.4-0.9-5.2-0.2-7.3,1.5c-2.2,1.8-4.6,3.5-6.9,5.2c-3.9-0.3-7.8-2-10.7-5.8
		c-11.4-14.8-43.3-55.1-32.6-77.9c-5.3-5.5-10.2-11.2-13.2-17.7C359.2,455.5,358.8,454.1,358.5,452.6z"/>
	<path class="st26" d="M700.4,451.2c-3.4,4.3-6.2,9-10,13.2c-0.8,0.9-1.3,1.8-1.5,2.7c-2.7,0.4-5.7,0-8.8-1.3
		c-10.6-4.8-20.3-12.8-28.7-20.7c-1.8-1.7-3.6-3.3-5.5-4.9c8.3,9.2,16.6,18.5,24.9,27.7c2.8,3,3.9,6.4,3.7,9.7
		c-4,4.2-8,8.7-12.8,12.1c-0.9,0.6-1.6,1.4-2.1,2.2c-2.9-0.2-5.9-1.5-8.5-4.3c-17.9-19.5-35.7-38.6-55.5-56.1
		c1.6,2.2,3.2,4.4,4.7,6.7c10.4,15.4,21.5,30.3,33.2,44.8c8.2,10.2,22.3,22.8,25,36.4c-0.5,0.7-1.1,1.3-1.6,2
		c-0.7,0.9-1.5,1.7-2.3,2.5c-0.7,0.1-1.4,0.4-2.1,0.8c-3.5,2.3-5.7,6.9-2.9,10.7c0.6,0.8,1.4,1.5,2.2,2.1
		c4.2,5.3,8.4,10.7,12.3,16.2c0.2,0.3,0.4,0.6,0.6,0.9c-2.8,8.1-9.6,14-16.2,19.6c-2.2-0.5-4.3-1.7-6.2-3.7
		c-7.9-8.6-17-16.1-24.3-25.2c-7.8-9.7-14.3-20.5-21.8-30.5c-0.1-0.2-0.3-0.3-0.4-0.5c-9-10-18.1-20-26.8-30.3
		c-7.6-7.7-15.4-15.3-22.9-22.8c-11.9-12-24-24.1-36.5-35.7c3.1,4.6,6.2,9.2,9.4,13.7c14.1,20.1,29.8,39,44.9,58.4
		c7.4,9.5,14.2,19.5,21.5,29.2c5.7,7.6,14.2,14.6,18.7,23c1,1.8,1.5,3.7,1.8,5.4c-0.5,0.4-1,0.9-1.4,1.5c-3.4,4.5-8.7,7.9-13.7,10.4
		c-1.3,0.7-2.2,1.6-2.7,2.6c-2-0.6-3.9-1.6-5.7-3.1c-7-6-13.7-12.6-20-19.6c2,3.5,3.7,7,4.9,10.8c3.5,12.1-10,21-20.3,15.6
		c-0.3-0.2-0.6-0.3-0.9-0.5c-2.1,6.8-10.1,11.8-17.3,10c-4,5.3-11,8.1-17.3,3.3c-26-19.8-50.7-41.8-75.2-63.5c-2.2-2-4.4-4-6.6-5.9
		c4.2,6.6,8.7,13,13.7,19.3c5.6,7.1,13.5,14.6,16.5,23.5c-0.3,0.2-0.6,0.4-0.9,0.7c-6.3,5.9-11.7,12.6-15.8,20.3
		c0,0.1,0,0.1-0.1,0.2c-10.9-2.4-22.4-9.5-31.6-14.9c-12.1-7-23-15.3-33.6-24.3c0-1.1-0.2-2.1-0.6-3.4c-0.2-0.6-0.6-1.2-0.9-1.8
		c0-0.7,0.1-1.3,0.1-2c0.9-1.9,1.6-3.7,2.2-5.6c1.7-0.8,3.2-2,4.2-3.6c1-1.7,1.4-3.9,1.4-5.8c-0.1-0.5-0.1-1.1-0.2-1.6
		c1.1-0.9,1.8-2,2.1-3.2c2.3,0.4,4.6,1.4,6.8,3.3c2.9,2.5,5.8,4.9,8.8,7.3c-3.8-6.3-7.4-12.8-11.1-18.9
		c-6.4-10.8-13.2-21.4-20.6-31.6c-5.6-7.8-13.2-14.6-14.1-23.2c5.2-4.4,8.9-10,13.4-15.1c0.2-0.3,0.4-0.6,0.6-0.9
		c4.3,0.1,8.8,2,13.2,4.8c-1.2-1.4-2.4-2.9-3.5-4.4c-9.9-13.6-23.9-24.6-32.9-38.7c-1.2-1.8-1.8-3.6-2.2-5.3c1-1.3,2.1-2.6,3.1-3.9
		c1.7-2.2,2.5-5,1.5-7.4c0.1-0.1,0.1-0.1,0.2-0.2c-0.4-0.4-0.7-0.9-1.1-1.3c0,0,0,0-0.1-0.1c-1.5-1.9-2.6-4.1-3.1-6.4
		c4.4-6.5,9.2-12.6,15.2-17.2c8.2,0.6,15.4,5.9,22.5,10c4.9,2.8,9.8,5.7,14.6,8.7c-2.4-3.1-4.6-6.4-6.1-10.1c-0.6-1.4-1-2.9-1.2-4.4
		c0.4-0.2,0.8-0.5,1.2-0.8c5.8-4.5,11.8-9.2,16.7-14.8c0.7,0.3,1.5,0.6,2.3,1c4.7,2.5,9.3,5.4,13.7,8.6c-0.7-2.1-1.1-4.2-1.1-6.3
		c2.1,0.3,4.4-0.4,6.1-1.8c3.9-3.4,7.1-7.7,11-11.2c1.2,0.3,2.4,0.8,3.5,1.6c10.3,7,19,16.2,28.9,23.8c2.5,1.9,5,3.8,7.5,5.7
		c-0.7-2-0.9-4-0.7-6.1c0.9-0.2,1.8-0.7,2.7-1.4c4.7-3.8,9.4-7.7,14-11.6c1.1,0.4,2.2,1,3.4,1.8c4.6,3.2,9,7,13.2,11
		c0.1-0.8,0.3-1.6,0.5-2.4c1.9,0.7,4.1,0.8,5.7-0.5c3.8-2.9,7.6-5.6,10.9-8.9c5.5,1.5,9.2,5.4,13.7,8.8c0.8,0.6,1.5,1.1,2.3,1.7
		c0.3-0.6,0.6-1.1,1-1.6c1.4,0.2,2.8-0.1,3.9-0.9c1.9-1.4,3.6-2.9,5.3-4.5c0.2-0.2,0.5-0.4,0.7-0.7c1.9-0.3,3.9-0.3,5.6,0.1
		c10.1,2.7,19.1,9.7,27.8,15.8c-1.7-2-3.4-4-5.1-6c-6.3-7.8-15.6-16.2-18.8-26.1c0.4-0.4,0.8-0.8,1.1-1.4c1.2-2,2.6-4,4-5.9
		c4.7-2.9,9.3-6.4,12.7-10.5c0.7,0.2,1.4,0.4,2,0.7c10.2,4.3,17.8,12.6,25.4,20.3c5.4,5.5,10.7,11.2,15.8,17.1
		c0.3-0.8,0.7-1.5,1.2-2.2c2.4,0.9,5.2,0.2,7.3-1.5c2.2-1.8,4.6-3.5,6.9-5.2c3.9,0.3,7.8,2,10.7,5.8c11.4,14.8,43.3,55.1,32.6,77.9
		c5.3,5.5,10.2,11.2,13.2,17.7C699.7,448.4,700.1,449.8,700.4,451.2z"/>
	<g class="st27">
		<path class="st5" d="M646.8,519.7c-0.7,0.1-1.8,0.4-2.4,1.3l-0.5-5.1l-1.5,0.1l1.1,12.3l1.3-0.1l0.1-1c0.7,0.7,1.9,1,2.6,0.9
			c2-0.2,3.5-2.2,3.2-4.5C650.6,521.3,649.1,519.4,646.8,519.7z M647.3,526.7c-1.2,0.1-2.5-0.6-2.7-2.6c-0.2-1.9,0.9-3,2.1-3.1
			c1.4-0.1,2.4,1,2.6,2.6C649.5,525.2,648.7,526.6,647.3,526.7z"/>
		<path class="st5" d="M362.3,480.2c-0.7,0-1.8,0.2-2.5,1v-5.1h-1.5v12.3h1.3l0.2-1c0.6,0.8,1.8,1.2,2.5,1.2c2.1,0,3.6-1.8,3.6-4.2
			C365.9,482.2,364.5,480.2,362.3,480.2z M362.1,487.3c-1.2,0-2.4-0.9-2.4-2.9c0-1.9,1.2-2.9,2.4-2.9c1.4,0,2.3,1.2,2.3,2.9
			C364.4,486,363.5,487.3,362.1,487.3z"/>
		<g>
			<path class="st5" d="M610.5,522c-1.8,0.2-2.7-0.9-2.9-2.6c-0.2-1.8,0.6-2.9,2.4-3.1c0.8-0.1,1.5,0,2.1,0.3l0.1-1.3
				c-0.5-0.2-1.3-0.4-2.5-0.2c-2.7,0.3-3.8,2.2-3.6,4.5c0.2,2.2,1.7,4.1,4.4,3.8c1.3-0.1,1.9-0.5,2.4-0.8l-0.3-1.2
				C611.9,521.7,611.3,521.9,610.5,522z"/>
		</g>
		<path class="st5" d="M362,505.6c0.8,0,1.4,0.2,2.1,0.5l0.2-1.3c-0.5-0.3-1.3-0.5-2.5-0.5c-2.7,0-4,1.8-4,4.2c0,2.2,1.3,4.2,4,4.2
			c1.3,0,2-0.3,2.4-0.6l-0.2-1.2c-0.6,0.3-1.3,0.5-2.1,0.5c-1.8,0-2.6-1.1-2.6-2.9C359.3,506.7,360.2,505.6,362,505.6z"/>
		<path class="st5" d="M572.4,516.8l-0.2-1.6c-0.3-2.9-1.2-3.8-3.2-3.6c-1.1,0.1-2,0.5-2.6,1.1l0.3,1.2c0.8-0.7,1.4-0.9,2-0.9
			c1.1-0.1,1.8,0.2,1.9,1.7c-2,0.2-4.7,1.1-4.5,3.3c0.1,1.3,1.2,2.2,2.7,2.1c1-0.1,1.8-0.6,2.3-1.4c0.4,0.7,0.7,1.1,2.2,1l0.1,0
			l0.1-1.2l-0.1,0C572.6,518.5,572.5,517.9,572.4,516.8z M569.1,518.8c-0.7,0.1-1.3-0.2-1.4-1.1c-0.1-1.2,0.8-1.8,3.1-2.1l0.2,1.9
			C570.6,518.2,569.9,518.7,569.1,518.8z"/>
		<path class="st5" d="M360.2,464.5c1,0,1.9-0.5,2.5-1.2c0.3,0.8,0.6,1.2,2.1,1.2h0.1l0.2-1.2h-0.1c-0.9,0-0.9-0.5-0.9-1.7V460
			c0-2.9-0.8-3.9-2.8-3.9c-1.1,0-2.1,0.3-2.7,0.8l0.2,1.2c0.9-0.6,1.5-0.7,2.1-0.7c1.1,0,1.8,0.3,1.8,1.9c-2.1,0-4.8,0.6-4.8,2.9
			C357.7,463.5,358.7,464.5,360.2,464.5z M362.5,460.3v1.9c-0.5,0.7-1.3,1.1-2.1,1.1c-0.7,0-1.2-0.4-1.2-1.2
			C359.2,460.9,360.2,460.4,362.5,460.3z"/>
		<path class="st5" d="M440.9,425.9c2-0.4,4-1,6-1.7c14.7-5.3,25.7-17,29.5-31.3c1.6-6,1.8-12.1,0.7-18.2l2.2-0.5
			c0.6-0.1,1-0.7,0.8-1.3c-0.1-0.6-0.7-1-1.3-0.8l-2.2,0.5c-4.7-20.5-23.5-35.6-44-35.2c-2.4,0-4.8,0.3-7.1,0.7l0-0.1
			c-0.1-0.6-0.7-1-1.3-0.8c-0.6,0.1-1,0.7-0.8,1.3l0,0.1c-14.6,3.6-26.5,14.9-31.4,30.8c-6,19.4,0.1,39.1,15.7,50.1
			C417.3,426.3,429.1,428.5,440.9,425.9z M474.6,373.1l-25.6,5.6c-1.1,0.2-2.4,0.7-3.7,1.1c-3.7,1.3-7.9,2.7-10.4,0.9
			c-2.9-2.1-3.6-9.5-4.1-15.3c0.1,0.3,0.4,0.6,0.8,0.7c0.2,0,0.3,0,0.5,0c0.4-0.1,0.7-0.4,0.8-0.8c2-8.3,5.8-16.2,10.9-23
			c0.3-0.4,0.3-0.9,0-1.3c2.2,0.6,4.4,1.4,6.5,2.3c-2.4,5.4-3.7,11.2-4.7,16.8l-0.1,0.4c-1.2,6.5-2.4,13.2-6.7,18
			c-0.4,0.5-0.4,1.1,0.1,1.5c0.3,0.2,0.6,0.3,1,0.3c0.2,0,0.4-0.2,0.6-0.3c4.7-5.2,5.9-12.2,7.2-19l0.1-0.4c1-5.4,2.2-11,4.5-16.2
			C463.2,350,471.7,360.5,474.6,373.1z M433.9,339.6C433.9,339.6,433.9,339.6,433.9,339.6c2.8,0,5.7,0.4,8.4,1
			c-0.1,0.1-0.2,0.2-0.3,0.3c-5.3,7-9.2,15.2-11.3,23.8c0,0,0,0,0,0.1c0-0.1,0-0.3,0-0.4c-0.2-2.7-0.4-5-0.7-6.6l-0.7-3
			c0.2-0.1,0.3-0.3,0.4-0.5c1.3-4.5,2.9-8.9,4.8-13.2C434.7,340.5,434.5,339.9,433.9,339.6z M432.8,339.6c0.1,0,0.3,0,0.4,0
			c-0.3,0.1-0.5,0.3-0.7,0.6c-1.5,3.5-2.8,7.1-4,10.8l-2.3-10.7C428.3,339.9,430.5,339.6,432.8,339.6z M394.2,370
			c4.7-15.1,15.9-25.9,29.8-29.3l3.8,17.5c0.3,1.5,0.5,3.7,0.7,6.3c0.5,6.7,1.2,15.1,5.1,17.9c2.1,1.5,4.8,1.4,7.5,0.9
			c1.7-0.4,3.3-0.9,4.8-1.4c1.3-0.4,2.5-0.8,3.5-1.1l25.5-5.6c1,5.8,0.8,11.5-0.7,17.1c-3.6,13.6-14.1,24.7-28.1,29.8
			c-13,4.7-26.5,3.1-37.1-4.4C394.3,407.3,388.5,388.5,394.2,370z"/>
		<path class="st5" d="M554.1,355.1l16.9-5.6c0.9-0.3,1.8-0.5,2.4-0.3c0.9,0.3,1.4,1.4,2,2.6c0.7,1.4,1.4,3,3,3.8
			c1.8,0.8,3.6,0.1,5.2-0.6c1.3-0.5,2.6-1,3.5-0.6c0.3,0.1,0.6,0.4,0.9,0.6c0.3,0.3,0.7,0.6,1.2,0.8c1.3,0.7,2.8,0.5,4.1,0.4
			c1-0.1,2-0.2,2.8,0.1c0.6,0.3,1.1,0.8,1.6,1.4c0.3,0.3,0.6,0.7,0.9,1c1.8,1.8,4.2,2.4,6.6,2.4c2.6,0,5.3-0.6,7.7-1.2l0.9-0.2
			c5.9-1.4,12.2-1.6,18.2-1.7l44.2-1.3c0.6,0,1.1-0.5,1.1-1.1c0-0.6-0.5-1.1-1.1-1.1l-44.2,1.3c-6.1,0.2-12.5,0.4-18.6,1.8l-1,0.2
			c-4.4,1-9.3,2.2-12.3-0.6c-0.3-0.3-0.5-0.6-0.8-0.8c-0.6-0.7-1.3-1.5-2.3-2c-1.3-0.6-2.7-0.4-3.9-0.3c-1.1,0.1-2.1,0.2-2.8-0.1
			c-0.3-0.1-0.5-0.4-0.8-0.6c-0.4-0.3-0.8-0.7-1.3-0.9c-1.8-0.8-3.6-0.1-5.2,0.5c-1.3,0.5-2.5,1-3.5,0.6c-0.9-0.4-1.4-1.5-1.9-2.7
			c-0.7-1.5-1.5-3.2-3.4-3.8c-1.4-0.4-2.7,0-3.7,0.4l-16.9,5.6c-0.6,0.2-0.9,0.8-0.7,1.4C552.9,355,553.5,355.3,554.1,355.1z"/>
		<path class="st5" d="M548.4,379.1l27.8-1.3c1.2-0.1,2.3-0.1,3,0.4c0.4,0.2,0.7,0.6,0.8,1c0.1,0.2,0,0.4-0.1,0.6
			c-0.3,0.4-0.2,0.9,0.1,1.3c0.3,0.4,0.8,0.5,1.2,0.3c6.5-2.4,13.2-4.7,19.8-6.7c0.2,2.4,0.8,4.7,1.8,6.9c0.1,0.3,0.5,0.6,0.8,0.6
			c0.1,0,0.1,0,0.2,0c0.3,0,0.6-0.1,0.8-0.4c1.7-1.9,3.6-3.7,5.6-5.2c0.4,0.8,0.6,1.7,0.6,2.6c0,0.4,0.2,0.7,0.6,0.9
			c0.3,0.2,0.8,0.2,1.1,0c1.3-0.8,2.5-1.9,3.4-3.2c2.3,0.4,4.5,0.7,6.8,1.1c17.8,2.6,35.9,2.7,53.8,0.4c0.6-0.1,1-0.6,0.9-1.2
			c-0.1-0.6-0.6-1-1.2-0.9c-17.7,2.3-35.6,2.2-53.2-0.4c-2.5-0.4-5-0.8-7.4-1.2c-0.5-0.1-0.9,0.1-1.1,0.5c-0.4,0.8-1,1.5-1.7,2
			c-0.3-1-0.7-2-1.3-2.8c-0.2-0.2-0.4-0.4-0.7-0.4c-0.3,0-0.6,0-0.8,0.2c-2.1,1.5-4,3.1-5.8,5c-0.6-1.9-1-3.9-1-5.9
			c0-0.3-0.2-0.7-0.5-0.9c-0.3-0.2-0.6-0.3-1-0.2c-6.6,1.9-13.2,4.1-19.6,6.5c0,0,0,0,0,0c-0.2-1-0.9-1.9-1.8-2.4
			c-1.4-0.8-3-0.7-4.2-0.6l-27.8,1.3c-0.6,0-1.1,0.5-1,1.1C547.3,378.7,547.8,379.2,548.4,379.1z"/>
		<path class="st5" d="M576.8,407.4c2.1-0.4,4.5,0,5,1.5c0.1,0.2,0.1,0.5,0.2,0.8c0.1,0.8,0.3,1.9,1.2,2.5c0.5,0.3,1,0.4,1.4,0.4
			c0.9,0,1.7-0.4,2.1-0.6l9.3-4.5c0.4-0.2,0.9-0.4,1.3-0.4c0.3,0,0.6,0.3,1,0.6c0.3,0.2,0.5,0.4,0.8,0.6c1.5,0.9,3.3,0.9,4.6,0.8
			c7.1-0.2,14.1-0.6,20.9-1c8.9-0.6,18.2-1.2,27.5-1.1c0,0,0,0,0,0c0.6,0,1.1-0.5,1.1-1.1c0-0.6-0.5-1.1-1.1-1.1
			c-9.4,0-18.7,0.5-27.6,1.1c-6.8,0.4-13.8,0.9-20.9,1c-1.3,0-2.5,0-3.4-0.5c-0.2-0.1-0.4-0.3-0.6-0.4c-0.5-0.4-1.2-0.9-2.1-1
			c-1-0.1-1.9,0.3-2.5,0.6l-9.3,4.5c-1,0.5-1.3,0.4-1.4,0.3c-0.2-0.1-0.3-0.6-0.3-1.1c-0.1-0.4-0.1-0.8-0.2-1.1
			c-0.9-3-4.6-3.5-7.5-3c-6.7,1.1-14.5,1.3-21.4,1.4l-1.5,0c-0.6,0-1.1,0.5-1.1,1.1c0,0.6,0.6,1.1,1.1,1.1l1.5,0
			C562.1,408.7,570,408.6,576.8,407.4z"/>
		<path class="st5" d="M625.5,438c14.5-2.3,29.3-2.8,44-1.5c0.6,0.1,1.1-0.4,1.2-1c0.1-0.6-0.4-1.1-1-1.2
			c-14.8-1.3-29.8-0.8-44.5,1.5c-1.1,0.2-2.4,0.1-2.6-0.5c0-0.1,0-0.2,0-0.4c0-0.3-0.1-0.8-0.3-1.2c-0.3-0.6-0.8-0.9-1.4-1.1
			c-1-0.3-2.2,0.1-3.7,1.1c-2.3,1.5-5.2,1.7-7.9,1.9l-19,1.3c-1.2,0.1-2.5-0.4-2.9-0.9c0-0.1-0.1-0.1,0-0.2c0.2-0.3,0.1-0.7-0.1-1
			c-0.2-0.3-0.5-0.5-0.9-0.5l-18.9-0.6c-4.6-0.2-10.3,0.2-12.7,4.5c-0.3,0.5-0.1,1.2,0.4,1.5c0.2,0.1,0.4,0.1,0.5,0.1
			c0.4,0,0.8-0.2,1-0.6c1.9-3.3,6.7-3.5,10.8-3.4l17.8,0.6c0.1,0.3,0.2,0.6,0.4,0.9c0.9,1.3,3.2,1.9,4.8,1.8l19-1.3
			c2.8-0.2,6.2-0.4,9-2.3c1.2-0.8,1.8-0.9,1.9-0.9c0,0.1,0,0.3,0.1,0.4c0,0.3,0.1,0.5,0.1,0.8C620.9,437.6,622.8,438.4,625.5,438z"
			/>
		<path class="st5" d="M377.1,464.8c4.3-0.6,8.8-0.4,13,0.7l0.4,0.1c1.2,0.3,2.4,0.7,3.7,0.5c1.4-0.1,2.6-0.8,3.7-1.4
			c0.9-0.5,1.7-0.9,2.6-1.1c1.6-0.3,3.2,0.3,4.9,0.9c0.9,0.3,1.7,0.7,2.7,0.9c5.7,1.4,11.2-1.3,16.4-4.4l1.3,3.5
			c0.2,0.5,0.6,0.7,1.1,0.7c0.5,0,0.9-0.4,1-0.9c0.2-1.2,1.4-1.9,2.4-2.1c1-0.2,2.4-0.1,3.1,1c0.3,0.5,0.9,0.6,1.4,0.4
			c2.2-1,4.9-0.4,7.6,0.2c8.4,1.9,16.9,2.9,25.5,2.9c3.9,0,7.9-0.2,11.8-0.6c0.6-0.1,1-0.6,1-1.2c-0.1-0.6-0.6-1-1.2-1
			c-12.2,1.3-24.5,0.5-36.6-2.3c-2.6-0.6-5.5-1.3-8.1-0.3c-1.1-1.1-2.9-1.6-4.7-1.2c-1.1,0.2-2.1,0.8-2.9,1.5l-1-2.5
			c-0.1-0.3-0.4-0.5-0.7-0.6c-0.3-0.1-0.7-0.1-0.9,0.1c-5.1,3.2-10.6,6.2-15.8,4.8c-0.8-0.2-1.6-0.5-2.4-0.8c-1.9-0.7-3.9-1.5-6.1-1
			c-1.2,0.2-2.2,0.8-3.2,1.3c-1,0.5-1.9,1.1-2.9,1.2c-0.9,0.1-1.9-0.2-2.9-0.5l-0.4-0.1c-4.5-1.2-9.3-1.5-13.9-0.8
			c-0.6,0.1-1,0.6-0.9,1.2C375.9,464.5,376.4,464.9,377.1,464.8z"/>
		<path class="st5" d="M480.4,487.9l-45.6,0.5c-6.6,0.1-13.3,0.1-20,1c-2,0.3-3.9,0.6-5.9,0.9c-4.6,0.8-9.3,1.5-13.9,1.3
			c-0.6,0-1.2-0.1-1.5-0.4c-0.2-0.2-0.3-0.5-0.4-0.9c-0.2-0.5-0.3-1.1-0.8-1.6c-1-1.1-2.6-1.1-3.5-1.1l-9.4,0
			c-0.6,0-1.1,0.5-1.1,1.1c0,0.6,0.5,1,1.1,1.1l9.4,0c0.8,0,1.5,0,1.8,0.4c0.2,0.2,0.3,0.5,0.4,0.9c0.2,0.5,0.4,1.1,0.8,1.7
			c0.9,1,2.3,1.1,3,1.1c0.5,0,1.1,0,1.6,0c4.3,0,8.6-0.7,12.8-1.4c1.9-0.3,3.9-0.6,5.8-0.9c6.5-0.8,13.2-0.9,19.7-1l45.6-0.5
			c0.6,0,1.1-0.5,1.1-1.1C481.5,488.3,481,487.9,480.4,487.9C480.4,487.9,480.4,487.9,480.4,487.9z"/>
		<path class="st5" d="M487.9,512.9c-0.1-0.6-0.6-1-1.2-1c-14.8,1.8-29.8,2.2-44.7,1.1l-0.2,0c-2-0.1-4-0.3-6.1,0.1
			c-0.5,0.1-1.1,0.3-1.6,0.4c-1,0.3-2,0.6-2.9,0.5c-0.9-0.1-1.8-0.4-2.7-0.9c-1.3-0.6-2.6-1.1-4.2-1c-1.6,0.1-3,1-4.2,1.8
			c-1.4,0.9-2.6,1.6-3.7,1.3c-0.5-0.1-0.9-0.5-1.4-0.8c-0.2-0.2-0.5-0.4-0.8-0.5c-2.6-1.6-8.2-2.5-11.2-0.5
			c-7.5,0.2-15-0.4-22.4-1.7c-0.6-0.1-1.2,0.3-1.3,0.9c-0.1,0.6,0.3,1.2,0.9,1.3c7.6,1.4,15.4,1.9,23.2,1.7c0.2,0,0.5-0.1,0.7-0.2
			c1.8-1.5,6.8-1,9,0.4c0.2,0.1,0.4,0.3,0.6,0.4c0.6,0.4,1.3,0.9,2.1,1.1c0.4,0.1,0.8,0.2,1.2,0.2c1.6,0,3-0.9,4.3-1.7
			c1.1-0.7,2.2-1.4,3.2-1.5c1-0.1,2.1,0.4,3.2,0.8c1.1,0.5,2.2,0.9,3.5,1c1.3,0.1,2.5-0.3,3.7-0.6c0.5-0.1,1-0.3,1.4-0.4
			c1.7-0.4,3.5-0.2,5.5-0.1l0.2,0c15,1.1,30.2,0.7,45.1-1.2C487.6,514,488,513.5,487.9,512.9z"/>
		<path class="st5" d="M502.4,546.8C502.4,546.8,502.4,546.8,502.4,546.8l-8.6,0.1c-0.6,0-1.2,0-1.6-0.2c-0.3-0.1-0.5-0.4-0.8-0.7
			c-0.3-0.3-0.5-0.5-0.8-0.7c-1.6-1.2-3.6-1.1-5.4-1c-1.3,0.1-2.5,0.2-3.5-0.2l-0.3-0.1c-0.4-0.2-0.9-0.4-1.5-0.4
			c-0.7,0-1.4,0.3-1.9,0.6c-0.4,0.2-0.7,0.4-1.1,0.7c-1.1,0.7-2.1,1.3-3.2,1.4c-0.7,0.1-1.5-0.2-2-0.7c-0.3-0.3-0.4-0.6-0.3-0.8
			c0.1-0.3,0-0.7-0.3-1c-0.2-0.3-0.6-0.4-1-0.3c-2.7,0.4-5.4,1.1-7.9,2.2c-0.6,0.2-0.8,0.9-0.6,1.4c0.2,0.6,0.9,0.8,1.4,0.6
			c2-0.8,4.1-1.5,6.2-1.9c0.1,0.5,0.4,0.9,0.8,1.3c0.9,1,2.4,1.6,3.8,1.4c1.6-0.2,2.8-1,4-1.7c0.3-0.2,0.7-0.4,1-0.6
			c0.3-0.2,0.5-0.3,0.8-0.3c0.2,0,0.4,0.1,0.7,0.2l0.4,0.2c1.5,0.6,3,0.5,4.5,0.4c1.6-0.1,2.9-0.2,3.9,0.5c0.2,0.2,0.4,0.4,0.6,0.5
			c0.4,0.4,0.8,0.8,1.4,1.1c0.8,0.4,1.7,0.5,2.4,0.5c0.1,0,0.2,0,0.2,0l8.6-0.1c0.6,0,1.1-0.5,1.1-1.1
			C503.5,547.3,503,546.8,502.4,546.8z"/>
		<path class="st5" d="M492.1,558.1c-3.6-0.3-7.1,0.8-10.4,1.9c-3.5,1.1-6.8,2.2-10.1,1.7c-1.9-0.3-3.3-1.1-4-2.2
			c-0.3-0.5-1-0.7-1.5-0.4c-0.5,0.3-0.7,1-0.4,1.5c1.4,2.3,4.1,3,5.5,3.3c0.7,0.1,1.3,0.1,2,0.1c3.1,0,6.2-1,9.1-2
			c3.3-1.1,6.4-2.1,9.5-1.8c0.6,0.1,1.1-0.4,1.2-1C493.2,558.7,492.7,558.2,492.1,558.1z"/>
		<path class="st5" d="M373.3,545.2c0.1,0,0.2,0,0.4-0.1l9.3-3.2c0.9-0.3,1.2-0.2,1.2-0.2c0,0.1,0.1,0.3,0.1,0.5
			c0.1,0.5,0.2,1.1,0.8,1.6c1,0.8,2.3,0.4,2.8,0.3l8-2.5c0.2-0.1,0.6-0.2,0.8-0.1c0.2,0,0.4,0.4,0.6,0.6l0.3,0.3
			c1.6,1.9,4.5,2.6,6.9,1.6c0.6-0.2,0.8-0.9,0.6-1.4c-0.2-0.6-0.9-0.8-1.4-0.6c-1.5,0.6-3.3,0.2-4.4-1l-0.2-0.3
			c-0.4-0.5-0.9-1.1-1.7-1.4c-0.8-0.2-1.5,0-2,0.2l-8,2.5c-0.5,0.1-0.6,0.1-0.6,0.2c0-0.1-0.1-0.3-0.1-0.4c-0.1-0.4-0.2-0.9-0.5-1.3
			c-0.5-0.6-1.5-1.3-3.6-0.5l-9.3,3.2c-0.6,0.2-0.9,0.8-0.7,1.4C372.5,544.9,372.9,545.2,373.3,545.2z"/>
		<path class="st5" d="M370.9,560.7c3.7,1.8,8.2,1.9,11.9,0.1l0.4-0.2c0.7-0.3,1.4-0.7,1.9-0.6c0.5,0.1,1,0.5,1.6,1.1
			c0.3,0.2,0.5,0.5,0.8,0.7c1.8,1.4,4.3,1.8,6.2,0.9c0.7-0.3,1.2-0.7,1.7-1c0.4-0.3,0.7-0.5,1.1-0.7c0.4-0.2,0.8-0.3,1.2-0.3
			c-0.5,1-1.1,1.8-1.8,2.6c-0.4,0.4-0.4,1.1,0.1,1.5c0.2,0.2,0.5,0.3,0.7,0.3c0.3,0,0.6-0.1,0.8-0.4c1.1-1.2,2-2.6,2.6-4.2
			c0.2-0.4,0.1-0.8-0.2-1.1c-1.1-1.3-3-1.2-4.4-0.5c-0.5,0.3-1,0.6-1.4,0.9c-0.5,0.3-0.9,0.6-1.3,0.8c-1.2,0.5-2.8,0.3-4-0.6
			c-0.2-0.2-0.5-0.4-0.7-0.6c-0.8-0.7-1.6-1.5-2.8-1.6c-1.2-0.2-2.2,0.4-3.2,0.8l-0.4,0.2c-3.1,1.5-6.9,1.5-9.9-0.1
			c-0.5-0.3-1.2,0-1.5,0.5C370.1,559.7,370.3,560.4,370.9,560.7z"/>
		<path class="st5" d="M410.1,576.5c-6.1-2.4-12.7-1.9-19.1-1.4c-1.3,0.1-2.5,0.2-3.8,0.3c-5.5,0.3-11.1,0.2-16.5,0
			c-0.5,0-1.1,0.5-1.1,1.1c0,0.6,0.5,1.1,1.1,1.1c5.5,0.1,11.1,0.3,16.6,0c1.3-0.1,2.5-0.2,3.8-0.3c6.1-0.5,12.5-0.9,18.1,1.3
			c0.1,0.1,0.3,0.1,0.4,0.1c0.4,0,0.9-0.3,1-0.7C410.9,577.4,410.6,576.7,410.1,576.5z"/>
		<path class="st5" d="M445.6,376.9c-0.2,0.6,0.2,1.2,0.8,1.3c0.2,0,0.4,0,0.5,0c0.4-0.1,0.7-0.4,0.8-0.8c2.2-8,5.9-15.7,10.9-22.3
			c0.4-0.5,0.3-1.2-0.2-1.5c-0.5-0.4-1.2-0.3-1.5,0.2C451.8,360.6,447.9,368.6,445.6,376.9z"/>
		<path class="st5" d="M456.2,373.9c0.2,0.1,0.4,0.1,0.7,0.1c0.3-0.1,0.6-0.3,0.8-0.7c2-4.9,4.4-9.6,7.1-14.1c0.3,0,0.7-0.2,0.9-0.5
			c0.3-0.4,0.3-0.8,0.1-1.2c-0.2-0.4-0.7-0.7-1.1-0.7c-0.5,0-1.2,0.2-1.5,0.8c-2.9,4.7-5.5,9.7-7.6,14.9
			C455.3,373,455.6,373.7,456.2,373.9z"/>
		<path class="st5" d="M466.3,372.4c0.2,0.1,0.4,0.1,0.6,0.1c0.3-0.1,0.6-0.3,0.8-0.7l3.2-7.8c0.2-0.6,0-1.2-0.6-1.4
			c-0.6-0.2-1.2,0-1.4,0.6l-3.2,7.8C465.4,371.6,465.7,372.2,466.3,372.4z"/>
		<path class="st5" d="M686.9,498.4c-7.5-13.6-20-22.1-35.2-23.9c-14.1-1.7-29,2.7-41,11.7c-6-7.4-13.4-13.2-21.4-16.4
			c-13.3-5.2-27.2-3.2-40.4,6c-12.7,8.9-19.8,22.2-20,37.6c-0.2,18,9.5,36.3,25.2,47.7c6.5,4.7,14.3,7,22.4,7c9,0,18.5-2.8,27.2-8.5
			c1.2-0.8,2.3-1.6,3.4-2.4c7.8,8,17.7,12.5,27.8,12.5c1.1,0,2.3-0.1,3.4-0.2c21.9-2.2,41.6-14.2,50.2-30.5
			C695.2,526.5,694.6,512.4,686.9,498.4z M602.6,557.9c-15.8,10.3-34.3,10.8-47.2,1.5c-15.2-11-24.5-28.6-24.3-45.9
			c0.1-14.6,6.9-27.4,19-35.8c12.5-8.7,25.7-10.7,38.3-5.7c7.6,3,14.6,8.6,20.4,15.7c-2.6,2.1-5,4.4-7.3,6.9
			c-11.3,12.4-12.8,31.9-3.9,49.5c2.2,4.4,5,8.3,8,11.7C604.7,556.5,603.6,557.2,602.6,557.9z M610.2,489.3
			c6,7.9,10.4,17.4,12.6,27.6c2.8,13.2-3.2,27.4-15.4,37.4c-3-3.3-5.6-7.1-7.8-11.4c-8.5-16.8-7.1-35.3,3.6-47
			C605.3,493.5,607.7,491.3,610.2,489.3z M686.6,538.1c-8.1,15.4-27.6,27.2-48.4,29.3c-10.5,1.1-21-3.3-29.3-11.5
			c12.8-10.5,19-25.5,16.1-39.5c-2.3-10.6-6.8-20.5-12.9-28.5c10-7.4,22-11.6,33.7-11.6c1.9,0,3.8,0.1,5.7,0.3
			c14.5,1.7,26.5,9.8,33.6,22.8C692.3,512.8,692.9,526.2,686.6,538.1z"/>
		<g>
			<path class="st5" d="M598.1,508.6l-1.5-1.6c4.5-4.4,9.4-8.5,14.6-12.2l1.3,1.8C607.3,500.2,602.5,504.2,598.1,508.6z"/>
		</g>
		<g>
			<path class="st5" d="M596.4,520.3l-1.5-1.6l11-10.4c2.7-2.6,5.5-5.2,9-6.9l1,2c-3.2,1.5-5.9,4.1-8.5,6.5L596.4,520.3z"/>
		</g>
		<g>
			
				<rect x="597.8" y="528.4" transform="matrix(0.8041 -0.5945 0.5945 0.8041 -195.3867 466.0741)" class="st5" width="23.5" height="2.2"/>
		</g>
		<g>
			<path class="st5" d="M604.4,546l-1.7-1.4c3.6-4.4,8-8.2,12.8-11.2l1.2,1.9C612.1,538.1,608,541.7,604.4,546z"/>
		</g>
	</g>
</g>
<g>
	<path class="st21" d="M860.9,368.4c0,0,5.4,2.8,5.4,6.9c0,0,12.2-5.5,16.7,2.1c4.5,7.5-1.7,9.3-1.7,9.3s11.4,4.9,13,11.1
		c1.6,6.1-7,10.2-7,10.2s1,19-12.7,22.1c-13.7,3-26.5,6-34.2-1.3s-11.8-16.4-7.7-22.7c0,0-2.8,0.2-4.3-2.9c-1.5-3.1,5.3-7.4,5.3-7.4
		s-1.4-0.4,1-9.4C837.2,377.2,860.9,368.4,860.9,368.4z"/>
	<path class="st21" d="M812,362.2c-5-2.5-3.9-11.3-3.9-11.3s-5.5,2.1-6-4.4c-0.5-6.5,7.4-11.7,7.4-11.7s-4,0.7,0-7.3
		c4-8,20.9-15.6,35.5-8.1c0,0,5.4-3.5,13-1c7.9,2.5,6.9,8.2,6.9,8.2s8.6,2.8,10.6,15.7c2,13-1.3,27.7-5.6,26.7
		c0,0-1.2,9.7-16.4,17.5c-15.2,7.8-30-14-27.9-26.9C825.6,359.7,817.6,365,812,362.2z"/>
	<g>
		<path class="st28" d="M806.3,443.3c-8,5.7-16.1,10.9-24.7,15.7c-4.3,2.4-8.7,4.6-13.3,6.6c-4.6,2-9.4,3.8-14.9,4.6l-1,0.1
			l-1.1,0.1c-0.4,0-0.7,0.1-1.2,0.1c-0.5,0-1,0-1.4-0.1c-1.8-0.2-3.2-0.6-4.6-1.1c-2.7-1-5-2.2-7.2-3.5c-4.4-2.6-8.4-5.5-12.2-8.6
			c-7.6-6.2-14.7-12.7-21.4-19.8c-1-1.1-1-2.7,0.1-3.7c1-0.9,2.5-1,3.5-0.1l0,0c3.7,3,7.4,5.9,11.2,8.8c3.8,2.9,7.6,5.7,11.4,8.3
			c3.9,2.6,7.8,5.1,11.8,7.2c2,1,4,1.9,5.8,2.4c0.9,0.3,1.8,0.5,2.4,0.5c0.2,0,0.3,0,0.4,0c0.1,0,0.4,0,0.6-0.1l0.7-0.1l0.7-0.1
			c3.9-0.8,8.2-2.5,12.3-4.4c4.1-1.9,8.2-4.1,12.3-6.5c4.1-2.3,8-4.8,12-7.3c4-2.5,7.9-5.2,11.7-7.8l0.1-0.1
			c2.4-1.7,5.7-1.1,7.4,1.4C809.2,438.3,808.7,441.6,806.3,443.3z"/>
	</g>
	<path class="st24" d="M816.2,419.6c-18.6-3.4-25.9,7.3-47.8,25.8c2.2,20.4,17.6,29.2,17.6,29.2S831.6,444.9,816.2,419.6z"/>
	<path class="st29" d="M815.3,445c-7.9,14.5-24.8,26.6-28.6,29.2c-0.5,0.3-0.7,0.5-0.7,0.5s-15.4-8.7-17.6-29.2
		c21.9-18.5,29.1-29.2,47.8-25.8C821.3,428,819.7,436.9,815.3,445z"/>
	<path class="st30" d="M689.8,419.5l5.7-0.4c2.1-0.1,4.2,0.8,5.6,2.4l6.4,7.8c2.5,3.1,3.4,7.3,2.4,11.1l-0.7,2.4
		c-9.4,1.3-20.5-4.3-20.5-4.3l-3.3-1.2c-3-1.1-4.5-4.2-3.5-7.1l2.4-6.7C685,421.3,687.3,419.7,689.8,419.5z"/>
	<path class="st25" d="M815.3,445c-7.9,14.5-24.8,26.6-28.6,29.2c1.3-6.6,5.5-20.6,17.8-29.6C808.5,441.7,812.2,442.3,815.3,445z"/>
	<path class="st24" d="M881.9,421.3c0,0-3.9,14.5-7.3,37.6c-1,7.1-2,14.9-2.8,23.4c-1.5,15.5-2.3,33.2-1.9,52h-74.1
		c0,0-11.7-86.7,7.6-114.6C803.5,419.7,841.5,401.8,881.9,421.3z"/>
	<path class="st29" d="M881.9,421.3c0,0-3.9,14.5-7.3,37.6c-1,7.1-2,14.9-2.8,23.4c-1.5,15.5-2.3,33.2-1.9,52h-74.1
		c0,0-11.7-86.7,7.6-114.6C803.5,419.7,841.5,401.8,881.9,421.3z"/>
	<path class="st25" d="M874.6,458.9c-1,7.1-2,14.9-2.8,23.4c-3.4-6.7-7.4-22.9-2.1-40L874.6,458.9z"/>
	<path class="st30" d="M838.6,487l5.7,0c2.2,0,4.2,1.1,5.4,2.8l5.8,8.2c2.3,3.3,2.9,7.5,1.5,11.3l-0.8,2.3
		c-9.5,0.6-20.2-5.8-20.2-5.8l-3.2-1.5c-2.9-1.3-4.2-4.5-2.9-7.3l2.8-6.5C833.7,488.5,836,487,838.6,487z"/>
	<path class="st24" d="M843.6,407.1c23.2,0,26.2,19.1,26.2,19.1l-10.9-4.7l-31.9,21.4l-7.8-21.6l-9.8,1.8
		C809.2,423.2,823.4,407.2,843.6,407.1z"/>
	<path class="st31" d="M843.6,407.1c23.2,0,26.2,19.1,26.2,19.1l-10.9-4.7l-31.9,21.4l-7.8-21.6l-9.8,1.8
		C809.2,423.2,823.4,407.2,843.6,407.1z"/>
	<path class="st30" d="M828,441.7l30-26.1c-7.3-7.5-3.6-28-0.5-39.2l-22.7,18.2c1.5,8.7,1.2,18-11.6,21
		C823.1,415.6,828,441.6,828,441.7z"/>
	<path class="st25" d="M848.1,383.8l-13.5,10.8c0.4,2.1,0.6,4.1,0.6,6.2c4.8-0.7,11.8-5.9,12.6-10.9
		C848.4,387.4,848.5,385,848.1,383.8z"/>
	<g>
		<path class="st30" d="M861.1,349.3c0.3,18.4,0.9,26.2-7.5,36.7c-12.6,15.9-34.8,13.5-40.6-4.2c-5.2-15.9-4.8-43.3,12.2-52.9
			C842,319.4,860.8,330.9,861.1,349.3z"/>
		<path class="st21" d="M843.2,339.6c12.4,10.6-4.7,29.2,15.2,24.3c19.9-5,5.9-31.6-7.4-35.6C837.8,324.3,843.2,339.6,843.2,339.6z"
			/>
		<path class="st21" d="M833.7,358c0.1,1.5-0.6,2.9-1.6,3c-1,0.1-1.8-1-1.9-2.6c-0.1-1.5,0.6-2.9,1.6-3
			C832.7,355.3,833.6,356.5,833.7,358z"/>
		<path class="st21" d="M815.3,360.7c0.1,1.5-0.6,2.9-1.6,3c-1,0.1-1.8-1-1.9-2.6c-0.1-1.5,0.6-2.9,1.6-3
			C814.4,358,815.2,359.1,815.3,360.7z"/>
		<path class="st21" d="M813.8,358.1l-3.6-0.6C810.2,357.5,812.2,360.2,813.8,358.1z"/>
		<path class="st32" d="M820.6,362.5c0,0-2.1,7-4.7,10.5c2.1,1.6,5.4,0.3,5.4,0.3L820.6,362.5z"/>
		<path class="st21" d="M830.2,378c-0.8,0.2-1.6,0.4-2.5,0.5c-0.2,0-0.4-0.1-0.5-0.4c0-0.2,0.2-0.5,0.4-0.5c6.5-0.9,9.3-6,9.3-6
			c0.1-0.2,0.4-0.3,0.6-0.2c0.2,0.1,0.3,0.4,0.2,0.6C837.6,372.2,835.4,376.3,830.2,378z"/>
		<path class="st30" d="M866.3,366c-1.1,4-3.6,6.9-6.2,8.2c-3.9,1.9-6.7-2.4-6.3-7.4c0.4-4.5,2.8-10.9,7.1-10.7
			C865.1,356.2,867.6,361.4,866.3,366z"/>
		<path class="st21" d="M837,348.9c-0.2,0.1-0.5,0-0.7-0.1c-3.1-2.3-6.2-1-6.2-1c-0.5,0.2-1,0-1.1-0.5c-0.2-0.5,0.1-1,0.5-1.2
			c0.2-0.1,4-1.7,7.8,1.2c0.4,0.3,0.5,0.9,0.2,1.3C837.5,348.7,837.3,348.9,837,348.9z"/>
		<path class="st21" d="M809.5,352.9c-0.2,0.1-0.4,0-0.6-0.1c-0.4-0.2-0.5-0.8-0.3-1.2c2.6-4.4,6.6-4.9,6.8-4.9
			c0.5,0,0.9,0.3,0.9,0.8c0,0.5-0.4,0.9-0.9,1c-0.2,0-3.3,0.4-5.3,3.9C809.9,352.7,809.7,352.8,809.5,352.9z"/>
		<path class="st21" d="M832.2,355.5l-3.6-0.6C828.5,354.9,830.5,357.5,832.2,355.5z"/>
		<path class="st21" d="M831.5,331.9c0,0,4.2,14.8,8.1,7.3c0,0,0.3,11.2,3.5,12.3c3.2,1.1,3.5-2.5,3.5-2.5s1.6,8.9,7.3,9.2
			c3,0.1,6.8-8.3,7.1-10.9c0.5-5.1-3.8-13.6-6.2-17.4c-3.5-5.4-12.3-7-24.9-5.9c-12.6,1.1-22.3,12.5-20.1,18.3
			c2.1,5.8,12.6-8.5,12.6-8.5s-1.4,3,0.8,3.6C825.5,338.1,831.5,331.9,831.5,331.9z"/>
	</g>
	<g>
		<path class="st28" d="M889.4,443.2c1.6,4.5,3,9,4.4,13.5c1.4,4.5,2.6,9,3.8,13.6c0.6,2.3,1.2,4.6,1.8,6.8c0.5,2.3,1.1,4.6,1.6,6.9
			c1.1,4.6,1.9,9.2,2.8,13.9l0,0.1c0.1,0.3,0.1,0.6,0.1,0.9c0,1.9-0.7,4.1-1.9,5.8c-1.2,1.7-2.6,2.8-4,3.6c-2.8,1.6-5.5,2.2-8,2.6
			c-5.1,0.8-9.9,0.7-14.6,0.4c-4.7-0.3-9.4-0.9-14-1.6c-4.6-0.8-9.1-1.7-13.7-2.8c-1.4-0.4-2.3-1.8-1.9-3.2c0.3-1.3,1.6-2.1,2.8-2
			l0.1,0c4.4,0.5,9,1,13.5,1.2c4.5,0.3,9,0.5,13.4,0.4c4.4-0.1,8.8-0.3,12.8-1.2c1.9-0.4,3.8-1.1,4.9-1.8c0.6-0.4,0.9-0.7,1-1
			c0.1-0.2,0.1-0.3,0.1-0.7l0.1,1c-1-4.5-2.1-8.9-3.2-13.4c-1.2-4.4-2.4-8.9-3.6-13.3c-1.3-4.4-2.6-8.8-4-13.2
			c-1.3-4.4-2.8-8.8-4.2-13.1l0-0.1c-0.9-2.8,0.6-5.8,3.4-6.7C885.5,439.1,888.5,440.5,889.4,443.2z"/>
	</g>
	<g>
		<path class="st24" d="M877.3,419.7c12.5,1.9,19.3,11.6,29.5,36.7c-11.8,20.3-29.3,23.1-29.3,23.1S860.1,448.7,877.3,419.7z"/>
		<path class="st29" d="M877.3,419.7c12.5,1.9,19.3,11.6,29.5,36.7c-11.8,20.3-29.3,23.1-29.3,23.1S860.1,448.7,877.3,419.7z"/>
	</g>
	<path class="st25" d="M827.5,449.4c0,0.8-0.7,1.5-1.5,1.5c-0.8,0-1.5-0.7-1.5-1.5c0-0.8,0.7-1.5,1.5-1.5
		C826.9,447.9,827.5,448.6,827.5,449.4z"/>
	<path class="st25" d="M824.6,470.8c0,0.8-0.7,1.5-1.5,1.5c-0.8,0-1.5-0.7-1.5-1.5c0-0.8,0.7-1.5,1.5-1.5
		C824,469.4,824.6,470,824.6,470.8z"/>
	<path class="st25" d="M822.9,493.2c0,0.8-0.7,1.5-1.5,1.5c-0.8,0-1.5-0.7-1.5-1.5c0-0.8,0.7-1.5,1.5-1.5
		C822.3,491.7,822.9,492.4,822.9,493.2z"/>
	<path class="st25" d="M822.9,517c0,0.8-0.7,1.5-1.5,1.5c-0.8,0-1.5-0.7-1.5-1.5c0-0.8,0.7-1.5,1.5-1.5
		C822.3,515.5,822.9,516.2,822.9,517z"/>
	<path class="st5" d="M702.7,423.5l-30.6,14l-4.7,0.3l3.3-3.3l30.6-14c0.6-0.3,1.3,0,1.6,0.6l0.4,0.8
		C703.6,422.5,703.4,423.3,702.7,423.5z"/>
	<polygon class="st21" points="793.9,538.5 795.1,528.2 870.9,528.2 873.7,537.2 	"/>
	<path class="st24" d="M724.7,915.2c14.4,0,16.3-0.2,24.4-0.5c6.9-0.2,8.6,0.6,14.1,0.5c4.6-0.1,4.5-4.5,3-9.7
		c-0.7-2.6-1.8-8-2.8-12.1l-21.1-1.5c-3,5.7-9.7,13.7-17.8,14.8C716.9,907.8,719,915.2,724.7,915.2z"/>
	<path class="st24" d="M828.9,915.2c14.4,0,16.3-0.2,24.4-0.5c6.9-0.2,8.6,0.6,14.1,0.5c4.6-0.1,4.5-4.5,3-9.7
		c-0.7-2.6-1.8-8-2.8-12.1l-21.1-1.5c-3,5.7-9.7,13.7-17.8,14.8C821,907.8,823.1,915.2,828.9,915.2z"/>
	<path class="st33" d="M724.7,915.2c14.4,0,16.3-0.2,24.4-0.5c6.9-0.2,8.6,0.6,14.1,0.5c4.6-0.1,4.5-4.5,3-9.7
		c-0.7-2.6-1.8-8-2.8-12.1l-21.1-1.5c-3,5.7-9.7,13.7-17.8,14.8C716.9,907.8,719,915.2,724.7,915.2z"/>
	<path class="st33" d="M828.9,915.2c14.4,0,16.3-0.2,24.4-0.5c6.9-0.2,8.6,0.6,14.1,0.5c4.6-0.1,4.5-4.5,3-9.7
		c-0.7-2.6-1.8-8-2.8-12.1l-21.1-1.5c-3,5.7-9.7,13.7-17.8,14.8C821,907.8,823.1,915.2,828.9,915.2z"/>
	<g>
		<path class="st21" d="M848.7,531.2h-53.7c-3.2,19.9-18.3,114.7-21.1,166.3c-3.2,60.8-22.7,158.1-33,196.1c2.9,2.6,16.5,3.7,23,0.5
			c0,0,56.2-112.2,48.9-182.4C855.4,591.9,850.1,540,848.7,531.2z"/>
	</g>
	<path class="st25" d="M826.8,669.5c6.7-22,11.5-41.1,14.9-57.5c-3.4-12.8-8.2-23.8-14.7-30.4C827,581.7,817.6,617.4,826.8,669.5z"
		/>
	<g>
		<path class="st21" d="M870.7,531.2h-55.8c3.8,29.4,15.6,119.2,22.9,166.6c9.3,60.1,10.4,156.6,8.1,195.9c3.4,2,15.6,4.3,22.3,2.2
			c0,0,31.4-121.6,10.5-192.2C896.2,575.3,874.2,536.4,870.7,531.2z"/>
	</g>
	<g>
		<polygon class="st21" points="847.6,536.7 872.7,536.7 871.1,529.5 847.6,529.5 		"/>
		<polygon class="st21" points="802,529.5 794.5,529.5 793.9,536.7 802,536.7 		"/>
		<rect x="804.5" y="529.5" class="st21" width="40.6" height="7.1"/>
		<polygon class="st29" points="847.6,536.7 872.7,536.7 871.1,529.5 847.6,529.5 		"/>
		<polygon class="st29" points="802,529.5 794.5,529.5 793.9,536.7 802,536.7 		"/>
		<rect x="804.5" y="529.5" class="st29" width="40.6" height="7.1"/>
		<path class="st5" d="M827.8,537.2h-12.6c-0.3,0-0.6-0.3-0.6-0.6v-7.1c0-0.3,0.3-0.6,0.6-0.6h12.6c0.3,0,0.6,0.3,0.6,0.6v7.1
			C828.3,537,828.1,537.2,827.8,537.2z"/>
	</g>
</g>
<g>
	<g>
		<g>
			<g>
				<g>
					
						<rect x="245.9" y="655.4" transform="matrix(0.9908 -0.1357 0.1357 0.9908 -96.8101 40.8197)" class="st21" width="10.4" height="150.6"/>
				</g>
				<g>
					
						<rect x="181.3" y="655.4" transform="matrix(0.9908 -0.1357 0.1357 0.9908 -97.4081 32.0606)" class="st21" width="10.4" height="150.6"/>
				</g>
				<g class="st34">
					
						<rect x="245.9" y="655.4" transform="matrix(0.9908 -0.1357 0.1357 0.9908 -96.8101 40.8197)" class="st5" width="10.4" height="150.6"/>
				</g>
				<g class="st35">
					
						<rect x="181.3" y="655.4" transform="matrix(0.9908 -0.1357 0.1357 0.9908 -97.4081 32.0606)" class="st5" width="10.4" height="150.6"/>
				</g>
			</g>
			<polygon class="st21" points="253.8,914.5 268.3,914.5 270.1,837.7 270.8,805.3 251.3,805.3 252,837.7 			"/>
			<polygon class="st29" points="253.8,914.5 268.3,914.5 270.1,837.7 270.8,805.3 251.3,805.3 252,837.7 			"/>
			<polygon class="st36" points="270.8,805.3 270.1,838.6 252,838.6 251.3,805.3 			"/>
			<g>
				<g>
					<polygon class="st21" points="327.9,914.5 321.6,807.6 304.6,807.6 313.4,914.5 					"/>
					<polygon class="st37" points="313.4,914.5 327.9,914.5 322.6,823.4 321.6,807.4 304.6,807.4 305.9,823.4 					"/>
					<polygon class="st36" points="304.6,807.4 305.9,824 322.6,824 321.6,807.4 					"/>
				</g>
				<g>
					<polygon class="st21" points="208.7,914.5 217.5,807.6 200.5,807.6 194.2,914.5 					"/>
					<polygon class="st37" points="208.7,914.5 216.2,823.4 217.5,807.4 200.5,807.4 199.5,823.4 194.2,914.5 					"/>
					<polygon class="st36" points="217.5,807.4 216.2,824 199.5,824 200.5,807.4 					"/>
				</g>
			</g>
			<path class="st21" d="M325.4,789.3H196.7c-3,0-5.4,2.4-5.4,5.4v19h139.4v-19C330.7,791.7,328.3,789.3,325.4,789.3z"/>
			<g>
				<path class="st21" d="M253.5,705.9h-77c-5,0-9.2-3.7-9.9-8.7l-5.4-42.3c-0.5-3.6,2.4-6.9,6-6.9h77c5,0,9.2,3.7,9.9,8.7l5.4,42.3
					C260,702.7,257.2,705.9,253.5,705.9z"/>
				<path class="st38" d="M253.5,705.9h-77c-5,0-9.2-3.7-9.9-8.7l-5.4-42.3c-0.5-3.6,2.4-6.9,6-6.9h77c5,0,9.2,3.7,9.9,8.7l5.4,42.3
					C260,702.7,257.2,705.9,253.5,705.9z"/>
			</g>
			<path class="st39" d="M325.4,789.3H196.7c-3,0-5.4,2.4-5.4,5.4v19h139.4v-19C330.7,791.7,328.3,789.3,325.4,789.3z"/>
			<g>
				<path class="st21" d="M335.3,801.5H186.8c-1.2,0-2.2,1-2.2,2.2v7.9c0,1.2,1,2.2,2.2,2.2h148.4c1.2,0,2.2-1,2.2-2.2v-7.9
					C337.4,802.5,336.5,801.5,335.3,801.5z"/>
				<path class="st38" d="M335.3,801.5H186.8c-1.2,0-2.2,1-2.2,2.2v7.9c0,1.2,1,2.2,2.2,2.2h148.4c1.2,0,2.2-1,2.2-2.2v-7.9
					C337.4,802.5,336.5,801.5,335.3,801.5z"/>
			</g>
		</g>
		<g id="_x3C_Group_x3E__1_">
			<path class="st40" d="M300.6,651.4l13.8,14.3c4.6,4.7,9.3,9.5,13.9,13.6c0.6,0.5,1.1,1,1.7,1.4l0.8,0.7l0.7,0.5
				c0.5,0.4,0.9,0.7,1.3,0.9c0.4,0.3,1.1,0.6,1.7,0.9c2.6,1.3,5.6,2.6,8.6,3.9c6.1,2.5,12.4,5,18.6,7.8l0.1,0
				c2.4,1.1,3.5,3.9,2.5,6.3c-0.8,1.9-2.7,3-4.7,2.9c-7-0.4-13.9-1.2-20.8-2.6c-3.5-0.7-6.9-1.5-10.6-2.7c-1-0.4-1.9-0.7-3-1.1
				l-1.6-0.8c-0.5-0.3-1-0.6-1.4-0.8l-1.4-0.9l-1.2-0.8c-0.8-0.6-1.6-1.1-2.4-1.7c-6-4.5-11.1-9.1-16.1-13.9
				c-5-4.8-9.8-9.7-14.5-14.9c-3.5-3.9-3.2-10,0.7-13.5C291.1,647.5,297,647.7,300.6,651.4L300.6,651.4z"/>
			<path class="st41" d="M300.6,651.4l13.8,14.3c4.6,4.7,9.3,9.5,13.9,13.6c0.6,0.5,1.1,1,1.7,1.4l0.8,0.7l0.7,0.5
				c0.5,0.4,0.9,0.7,1.3,0.9c0.4,0.3,1.1,0.6,1.7,0.9c2.6,1.3,5.6,2.6,8.6,3.9c6.1,2.5,12.4,5,18.6,7.8l0.1,0
				c2.4,1.1,3.5,3.9,2.5,6.3c-0.8,1.9-2.7,3-4.7,2.9c-7-0.4-13.9-1.2-20.8-2.6c-3.5-0.7-6.9-1.5-10.6-2.7c-1-0.4-1.9-0.7-3-1.1
				l-1.6-0.8c-0.5-0.3-1-0.6-1.4-0.8l-1.4-0.9l-1.2-0.8c-0.8-0.6-1.6-1.1-2.4-1.7c-6-4.5-11.1-9.1-16.1-13.9
				c-5-4.8-9.8-9.7-14.5-14.9c-3.5-3.9-3.2-10,0.7-13.5C291.1,647.5,297,647.7,300.6,651.4L300.6,651.4z"/>
			<path class="st42" d="M368.5,693.9l-4-2.4c-1.5-0.9-3.4-1-5-0.3l-7.6,3.3c-3,1.3-5.3,4-5.9,7.2l-0.4,2c6.4,4.5,16.6,4.7,16.6,4.7
				l2.9,0.4c2.6,0.3,4.9-1.4,5.2-3.9l0.8-5.8C371.3,697,370.3,695,368.5,693.9z"/>
			<path class="st41" d="M368.5,693.9l-4-2.4c-1.5-0.9-3.4-1-5-0.3l-7.6,3.3c-3,1.3-5.3,4-5.9,7.2l-0.4,2c6.4,4.5,16.6,4.7,16.6,4.7
				l2.9,0.4c2.6,0.3,4.9-1.4,5.2-3.9l0.8-5.8C371.3,697,370.3,695,368.5,693.9z"/>
			<polygon class="st42" points="351.8,876.6 349.6,890.4 347.6,903.2 329.1,903.2 330.7,886.9 332.2,871.3 			"/>
			<path class="st21" d="M346.5,895.9l-18.7-1.2c-0.7-0.1-1.2,0.4-1.3,1.1c0,0,0,0,0,0l-1.8,14.8c-0.1,1.6,1.1,3,2.7,3.1
				c6.5,0.3,9.7,0.1,17.9,0.6c5.1,0.3,15,1.4,22,0.7c7-0.7,6.1-7.6,3.1-7.9c-7.2-0.8-16.6-6.1-21.1-10.1
				C348.5,896.4,347.5,896,346.5,895.9z"/>
			<path class="st24" d="M352.2,899.2c-1.5-0.1-3-0.4-4.4-0.9c-0.1,0-0.3-0.2-0.3-0.3c0-0.2,0.1-0.3,0.2-0.4
				c0.6-0.3,5.5-3.3,7.5-2.3c0.5,0.2,0.8,0.7,0.8,1.2c0.2,0.8,0,1.6-0.6,2.1C354.5,899.1,353.4,899.4,352.2,899.2z M354.9,896
				c-1.1-0.5-3.9,0.7-5.9,1.8c2.9,0.8,5.1,0.8,6,0.1c0.4-0.4,0.5-0.9,0.4-1.4C355.3,896.3,355.1,896.1,354.9,896L354.9,896z"/>
			<path class="st24" d="M347.9,898.3c-0.1,0-0.1,0-0.2,0c-0.1-0.1-0.2-0.2-0.2-0.3c0-0.1-0.1-5,1.7-6.6c0.5-0.4,1.1-0.5,1.7-0.4
				c0.7,0.1,1.2,0.6,1.3,1.3c0.3,1.8-2.4,5.2-4.2,6.1C348.1,898.3,348,898.3,347.9,898.3z M350.6,891.8c-0.3,0-0.6,0.1-0.9,0.3
				c-1.1,0.9-1.4,3.6-1.4,5.2c1.5-1.1,3.3-3.7,3.2-4.9c0-0.2-0.1-0.5-0.7-0.6L350.6,891.8z"/>
			<polygon class="st36" points="351.8,876.6 349.6,890.4 330.7,886.9 332.2,871.3 			"/>
			<path class="st24" d="M354.3,886.8c-0.4,1.2-0.7,1.8-0.7,1.8l-28.8-6.9c0,0,15.8-66,9.9-74.5c-5-7.2-28.8-8.7-62.4-10.4
				c-6.2-0.3-12.9-0.6-19.7-1c-43.7-2.3,47.7-46.7,47.7-46.7s58.5,2.5,73.8,22.6C388.2,790.2,359.1,873.4,354.3,886.8z"/>
			<path class="st36" d="M344.9,880.2l9.4,6.6c-0.4,1.2-0.7,1.8-0.7,1.8l-28.8-6.9c0,0,15.8-66,9.9-74.5c-5-7.2-28.8-8.7-62.4-10.4
				l-3.9-11.5l25-29.1c0,0,53.7,6.5,64.4,27.9C368.6,805.4,344.9,880.2,344.9,880.2z"/>
			<g>
				<path class="st24" d="M324.9,673.3L308.1,692c0,0-0.1-0.1-0.4-0.2c-0.1-0.1-0.3-0.2-0.5-0.2c0,0,0,0,0,0c0,0,0,0-0.1,0
					c0,0,0,0,0,0c-0.7-0.3-1.6-0.8-2.8-1.5c-0.4-0.2-0.7-0.4-1.1-0.6c-0.1-0.1-0.2-0.1-0.3-0.2c-0.4-0.2-0.8-0.5-1.2-0.7
					c-0.5-0.3-1.1-0.6-1.6-1c-3-1.8-6.3-4.1-9-6.4c-0.5-0.4-0.9-0.9-1.3-1.3c-0.9-0.9-1.7-1.8-2.3-2.7c-0.1-0.2-0.2-0.3-0.3-0.5
					c-0.1-0.1-0.1-0.2-0.2-0.3c-0.1-0.2-0.2-0.4-0.3-0.7c-0.1-0.2-0.1-0.3-0.2-0.5c0-0.1-0.1-0.3-0.1-0.4c-0.1-0.3-0.2-0.6-0.3-0.9
					c-0.1-0.3-0.1-0.7-0.2-1c-0.1-0.3-0.1-0.7-0.2-1c0-0.1,0-0.2,0-0.3v0c0-0.3-0.1-0.5-0.1-0.8c0-0.4-0.1-0.8-0.1-1.2
					c0-0.4-0.1-0.8-0.1-1.2c0-0.4,0-0.8,0-1.2c-0.3-11.5,3.5-27.4,9.1-25.6c11.1,3.7,24.9,23.3,29.1,29.7
					C324.4,672.6,324.9,673.3,324.9,673.3z"/>
				<path class="st23" d="M324.9,673.3L308.1,692c0,0-0.1-0.1-0.4-0.2c-0.1-0.1-0.3-0.2-0.5-0.2c0,0,0,0-0.1,0c0,0,0,0,0,0
					c-0.7-0.3-1.6-0.8-2.8-1.5c-0.4-0.2-0.7-0.4-1.1-0.6c-0.1-0.1-0.2-0.1-0.3-0.2c-0.4-0.2-0.8-0.4-1.2-0.7c-0.5-0.3-1.1-0.6-1.6-1
					c-3-1.8-6.3-4.1-9-6.4c-0.5-0.4-0.9-0.9-1.3-1.3c-0.9-0.9-1.7-1.8-2.3-2.7c-0.1-0.2-0.2-0.3-0.3-0.5c-0.1-0.1-0.1-0.2-0.2-0.3
					c-0.1-0.2-0.2-0.4-0.3-0.7c-0.1-0.2-0.1-0.3-0.2-0.5c0-0.1-0.1-0.3-0.1-0.4c-0.1-0.3-0.2-0.6-0.3-0.9c-0.1-0.3-0.1-0.7-0.2-1
					c-0.1-0.3-0.1-0.7-0.2-1c0-0.1,0-0.2,0-0.3v0c0-0.3-0.1-0.5-0.1-0.8c0-0.4-0.1-0.8-0.1-1.2c0-0.4-0.1-0.8-0.1-1.2
					c0-0.4,0-0.8,0-1.2c-0.3-11.5,3.5-27.4,9.1-25.6c11.1,3.7,24.9,23.3,29.1,29.7C324.4,672.6,324.9,673.3,324.9,673.3z"/>
				<polygon class="st24" points="326.7,674.1 310.2,694.9 307,693.5 305.9,692.9 307.1,691.5 307.2,691.3 323.5,671.3 324,670.7 
									"/>
				<path class="st36" d="M307.2,691.3c0,0.1,0,0.1,0,0.2c0,0,0,0,0,0c0,0.6-0.1,1.2-0.2,1.9l-1.1-0.5l1.2-1.4
					c-0.7-0.3-1.6-0.8-2.8-1.5c-0.4-0.2-0.7-0.4-1.1-0.6c-0.1-0.1-0.2-0.1-0.3-0.2c-0.4-0.2-0.8-0.4-1.2-0.7c-0.5-0.3-1.1-0.6-1.6-1
					c-3-1.8-6.3-4.1-9-6.4c-0.5-0.4-0.9-0.9-1.3-1.3c-0.9-0.9-1.7-1.8-2.3-2.7c-0.1-0.2-0.2-0.3-0.3-0.5c-0.1-0.1-0.1-0.2-0.2-0.3
					c-0.1-0.2-0.2-0.4-0.3-0.7c-0.1-0.2-0.1-0.3-0.2-0.5c0-0.1-0.1-0.3-0.1-0.4c-0.1-0.3-0.2-0.6-0.3-0.9c-0.1-0.3-0.1-0.7-0.2-1
					c-0.1-0.3-0.1-0.7-0.2-1c0-0.1,0-0.2,0-0.3v0l9.9-18.8C295.6,652.8,308.6,670.2,307.2,691.3z"/>
			</g>
			<path class="st24" d="M210.2,741.1c0,0-19.4,54.8,35.5,54.8c54.9,0,59.3-21.4,54.7-46.6L210.2,741.1z"/>
			<polygon class="st42" points="299.7,876.6 297.5,890.4 295.5,903.2 277,903.2 278.6,886.9 280.1,871.3 			"/>
			<path class="st21" d="M294.4,895.9l-18.7-1.2c-0.7-0.1-1.2,0.4-1.3,1.1c0,0,0,0,0,0l-1.8,14.8c-0.1,1.6,1.1,3,2.7,3.1
				c6.5,0.3,9.7,0.1,17.9,0.6c5.1,0.3,15,1.4,22,0.7c7-0.7,6.1-7.6,3.1-7.9c-7.2-0.8-16.6-6.1-21.1-10.1
				C296.5,896.4,295.5,896,294.4,895.9z"/>
			<path class="st24" d="M300.2,899.2c-1.5-0.1-3-0.4-4.4-0.9c-0.2,0-0.3-0.2-0.3-0.3c0-0.2,0.1-0.3,0.2-0.4
				c0.6-0.3,5.5-3.3,7.5-2.3c0.5,0.2,0.8,0.7,0.8,1.2c0.2,0.8,0,1.6-0.6,2.1C302.4,899.1,301.3,899.4,300.2,899.2z M302.8,896
				c-1.1-0.5-3.9,0.7-5.9,1.8c2.9,0.8,5.1,0.8,6,0.1c0.4-0.4,0.5-0.9,0.4-1.4C303.2,896.3,303,896.1,302.8,896L302.8,896z"/>
			<path class="st24" d="M295.8,898.3c-0.1,0-0.1,0-0.2,0c-0.1-0.1-0.2-0.2-0.2-0.3c0-0.1-0.1-5,1.7-6.6c0.5-0.4,1.1-0.5,1.7-0.4
				c0.7,0.1,1.2,0.6,1.3,1.3c0.3,1.8-2.4,5.2-4.2,6.1C296,898.3,295.9,898.3,295.8,898.3z M298.6,891.8c-0.3,0-0.6,0.1-0.9,0.3
				c-1.1,0.9-1.4,3.6-1.4,5.2c1.5-1.1,3.3-3.7,3.2-4.9c0-0.2-0.1-0.5-0.7-0.6L298.6,891.8z"/>
			<polygon class="st36" points="299.7,876.6 297.5,890.4 278.6,886.9 280.1,871.3 			"/>
			<path class="st24" d="M322.1,771.7c-8.6-11.3-30.7-17-48.5-19.9l-25.7,44c27,1.1,35.3,9,35.9,11.5c2.9,12-10.9,74.3-10.9,74.3
				l28.8,6.9C301.6,888.6,337.4,791.9,322.1,771.7z"/>
			<g>
				<path class="st24" d="M204.9,751.8c0,0,10.1-73.8,17.1-88.9c7-15.1,18.3-35.8,67.3-23.9c0,0,18.6,5.2,15.4,28.1
					c-3.2,22.9-4.2,82.3-4.2,82.3L204.9,751.8z"/>
				<path class="st23" d="M304.6,667.2c-0.9,6.7-1.7,16.6-2.3,27.2c-0.1,2.5-0.3,5-0.4,7.5c-0.3,5.8-0.5,11.7-0.7,17.2
					c0,1-0.1,1.9-0.1,2.9c-0.5,15.4-0.7,27.5-0.7,27.5l-95.5,2.4c0,0,10.1-73.8,17.1-88.9c7-15.1,18.3-35.9,67.3-23.8
					C289.2,639.1,307.8,644.3,304.6,667.2z"/>
			</g>
			<path class="st24" d="M281.8,652.8l5.7-9.2l7.8,9.2c0,0-2.2-24.4-30.5-24.9c-11.6-0.2-14.4,9.6-14.4,9.6c5,8,18.1,16.8,18.1,16.8
				l5.2-7.9L281.8,652.8z"/>
			<line class="st43" x1="334.1" y1="666.9" x2="347.9" y2="702.6"/>
			<g>
				<path class="st42" d="M259.7,607.2c0,0,1.3,8.5,0.7,16.7c-0.3,4-1,7.8-2.5,10.9c0,0,7.6,7.3,14.4,8.9l7.6,5.6l-0.5-7.7
					c0,0-0.1-0.4-0.1-1.1c-0.2-3,0.1-12.3,8.5-15.7C299.3,620,259.7,607.2,259.7,607.2z"/>
				<path class="st36" d="M259.7,607.2c0,0,1.3,8.5,0.7,16.7c4.8,7.2,11,14,18.9,16.7c-0.2-3,0.1-12.3,8.5-15.7
					C299.3,620,259.7,607.2,259.7,607.2z"/>
			</g>
			<g>
				<path class="st21" d="M290.3,563.1c0,0,11.9,6.7,9.9,20.3c-2,13.6-24.2-9.5-24.2-9.5L290.3,563.1z"/>
				<path class="st42" d="M244.7,598.8c8.3,16.3,12.3,26.2,25.5,30.7c19.8,6.8,39.8-10.9,37.1-29.5c-2.3-16.8-15.6-40.5-36.9-39.3
					C249.1,562,236.4,582.6,244.7,598.8z"/>
				<path class="st21" d="M277.2,596.7c0.6,1.7,2,2.8,3.1,2.4c1.1-0.4,1.6-2.1,1-3.8c-0.6-1.7-2-2.8-3.1-2.4
					C277.1,593.2,276.6,595,277.2,596.7z"/>
				<path class="st21" d="M293.8,587.7c0.6,1.7,2,2.8,3.1,2.4c1.1-0.4,1.6-2.1,1-3.8c-0.6-1.7-2-2.8-3.1-2.4
					C293.7,584.3,293.3,586,293.8,587.7z"/>
				<path class="st21" d="M276.7,583c0.1-0.2,0.1-0.4,0.1-0.7c-0.2-0.6-0.8-0.9-1.4-0.7c-3.3,1-5.9,3.5-7,6.8
					c-0.2,0.6,0.2,1.2,0.8,1.3v0c0.6,0.1,1.1-0.2,1.3-0.8l0,0c0.9-2.6,3-4.6,5.7-5.3C276.5,583.5,276.7,583.3,276.7,583z"/>
				<path class="st21" d="M297.8,574.8c0.2-0.1,0.3-0.3,0.4-0.5c0.2-0.6-0.1-1.2-0.7-1.4c-3.3-1.2-6.9-0.6-9.7,1.4
					c-0.5,0.4-0.5,1-0.2,1.5v0c0.4,0.4,1,0.5,1.5,0.2l0,0c2.3-1.6,5.2-1.9,7.7-1C297.3,575.1,297.6,575,297.8,574.8z"/>
				<path class="st44" d="M291.3,593.9l6.4,2.2c0,0-0.6,2.5-5.2,4.7L291.3,593.9z"/>
				<path class="st21" d="M239.1,587.3c0,0-8.5-10.1,2.4-19c10.9-8.9,37.3-15,43.3-22.7c0,0,8.1,8.3,8.5,14.2l3.5-4.3
					c0,0-1.7,13-12.7,16.6c-11,3.5-22.3,2.2-18.6,17.2s-4.1,20.1-4.1,20.1l-0.6,14.9c0,0-13.7-1.3-20.4-16.3
					C233.6,592.9,239.1,587.3,239.1,587.3z"/>
				<path class="st42" d="M263.5,604.4c0,0-7.2-8.4-11.3-3.7c-4,4.6,2.1,20.5,9.5,18.1C269.1,616.4,268.5,608.5,263.5,604.4z"/>
				<path class="st45" d="M295.2,606.4c0,0-11.7,4-19.4-1"/>
			</g>
			<path class="st42" d="M349.2,690.4l-4.3-1.8c-1.6-0.7-3.5-0.5-5,0.4l-7,4.3c-2.8,1.7-4.6,4.7-4.8,8l-0.1,2
				c7,3.5,17.1,2.2,17.1,2.2l2.9-0.1c2.6-0.1,4.6-2,4.6-4.6l0-5.8C352.4,693.1,351.1,691.2,349.2,690.4z"/>
			<path class="st36" d="M302.3,694.4c-0.1,2.5-0.3,5-0.4,7.5c-0.3,5.8-0.5,11.7-0.7,17.2c0,1-0.1,1.9-0.1,2.9
				c-62.3-2.8-72-48.9-72-48.9s16.2-16.9,25.2-15c9.1,1.8,29.6,26.7,29.6,26.7l-0.9,3.4C285.5,690.7,297,693.3,302.3,694.4z"/>
			<g>
				<path class="st40" d="M247.5,668.9c2.7,2.9,5.7,5.9,8.6,8.7c3,2.8,6.1,5.6,9.2,8.2l2.4,1.9c0.8,0.6,1.6,1.2,2.4,1.9
					c0.8,0.6,1.6,1.2,2.5,1.8c0.8,0.6,1.6,1.2,2.5,1.8c3.4,2.3,6.8,4.3,10.4,6.1l-0.8-0.3l1.3,0.2c0.4,0.1,0.8,0.2,1.3,0.2
					c1,0.1,1.9,0.2,2.9,0.2l3,0.1l3,0c4.1-0.1,8.2-0.3,12.4-0.6c4.1-0.3,8.3-0.7,12.5-1.1c4.2-0.4,8.3-0.9,12.5-1.3l0,0
					c1.2-0.1,2.3,0.7,2.4,1.9c0.1,1.1-0.6,2.1-1.6,2.3c-4.1,1-8.3,1.8-12.4,2.6c-4.2,0.8-8.3,1.5-12.6,2.1c-4.2,0.6-8.5,1-12.8,1.4
					l-3.3,0.2l-3.3,0.1c-1.1,0-2.3-0.1-3.4-0.1c-0.6,0-1.2-0.1-1.8-0.2l-1.8-0.3c-0.2,0-0.4-0.1-0.6-0.2l-0.2-0.1
					c-4-1.9-7.9-4-11.6-6.3c-3.7-2.4-7.3-4.9-10.7-7.6c-3.4-2.7-6.7-5.5-9.9-8.5c-1.6-1.5-3.1-3-4.7-4.5c-1.5-1.5-3-3.1-4.5-4.8
					c-1.6-1.8-1.4-4.6,0.4-6.2C243.1,666.9,245.8,667.1,247.5,668.9L247.5,668.9z"/>
			</g>
			<g>
				<path class="st24" d="M233.8,647.2c13.9-12.9,42.3,35.1,42.3,35.1L259,703.4C259,703.4,203.6,675.1,233.8,647.2z"/>
				<path class="st23" d="M233.8,647.2c13.9-12.9,42.3,35.1,42.3,35.1L259,703.4C259,703.4,203.6,675.1,233.8,647.2z"/>
				<polygon class="st24" points="255.4,704.4 276.1,679.2 280,684.8 262,708.5 				"/>
			</g>
		</g>
		<g>
			<g>
				<path class="st24" d="M305,705.1c0,0,25.3-5.9,40.5-5.4c15.2,0.4,17,2.7,17,2.7s8.7-4.1,15.5-2.7c6.8,1.4,18,3.8,18,3.8v5.1
					l-90.1,1L305,705.1z"/>
				<path class="st46" d="M305,705.1c0,0,25.3-5.9,40.5-5.4c15.2,0.4,17,2.7,17,2.7s8.7-4.1,15.5-2.7c6.8,1.4,18,3.8,18,3.8v5.1
					l-90.1,1L305,705.1z"/>
			</g>
			<g>
				<path class="st21" d="M314.2,709.5l-7.1,27.8c-1.1,4.2-4.9,7.2-9.2,7.2H186.5l-1.8-10.3H289c1.1,0,2.1-0.8,2.4-1.9l5.5-22.8
					L314.2,709.5z"/>
				<path class="st29" d="M314.2,709.5l-7.1,27.8c-1.1,4.2-4.9,7.2-9.2,7.2H186.5l-1.8-10.3H289c1.1,0,2.1-0.8,2.4-1.9l5.5-22.8
					L314.2,709.5z"/>
			</g>
			<path class="st21" d="M410.8,714H263c-0.8,0-1.5-0.7-1.5-1.5v-5.8c0-0.8,0.7-1.5,1.5-1.5h147.9c0.8,0,1.5,0.7,1.5,1.5v5.8
				C412.4,713.3,411.7,714,410.8,714z"/>
			<path class="st37" d="M412.4,708.1v2.9c0,1.6-1.3,3-3,3h-145c-1.6,0-3-1.3-3-3v-2.9c0-1.6,1.3-3,3-3h145
				C411,705.1,412.4,706.4,412.4,708.1z"/>
			<path class="st47" d="M412.4,708.1v2.9c0,1.6-1.3,3-3,3h-70c-1.6,0-3-1.3-3-3v-2.9c0-1.6,1.3-3,3-3h70
				C411,705.1,412.4,706.4,412.4,708.1z"/>
		</g>
	</g>
</g>
</svg>
